<svg xmlns="http://www.w3.org/2000/svg" viewBox="0 0 2340 1560"><defs><style>.cls-1{isolation:isolate;}.cls-2{fill:#b7cfe2;}.cls-3{fill:#65baaa;}.cls-4{opacity:0.5;}.cls-20,.cls-22,.cls-25,.cls-4{mix-blend-mode:overlay;}.cls-5{fill:#fff;}.cls-6{fill:#e8f1f9;}.cls-7{fill:#1b6d5d;}.cls-8{fill:#492c1e;}.cls-9{fill:#ffd6d2;}.cls-10{fill:#f49d98;}.cls-11{fill:#3e9e8b;}.cls-12{fill:#d7e8f7;}.cls-13{fill:#f4b65b;}.cls-14{fill:#cc862b;}.cls-15{fill:#95b5e8;}.cls-16{fill:#6e99d6;}.cls-17{fill:#d67636;}.cls-18{fill:#c15316;}.cls-19{fill:#5a3c2a;}.cls-20,.cls-22{opacity:0.3;}.cls-21{fill:#2b160e;}.cls-23{fill:#5b395a;}.cls-24{fill:#382038;}.cls-25{opacity:0.2;}</style></defs><title>tseting</title><g class="cls-1"><g id="Layer_2" data-name="Layer 2"><path class="cls-2" d="M903.33,228.22v218.5a13.78,13.78,0,0,1-13.78,13.8H583.79A13.8,13.8,0,0,1,570,446.72V228.22a13.81,13.81,0,0,1,13.79-13.8H889.55A13.79,13.79,0,0,1,903.33,228.22Z"/><path class="cls-3" d="M850.08,460.52H795.6l-.88-8.23-.41-3.65-.94-8.67-.31-2.85v0l-.65-6-.38-3.65-1.29-11.93-.27-2.42-.36-3.19-.38-3.63-9.3-85.77.45-23.48a60.93,60.93,0,0,1,41.6,46.47l14.15,72.64.69,3.53.72,3.67v.08l1,5,2.2,6.43Z"/><polygon class="cls-3" points="806.35 460.52 652.1 460.52 653.42 448.61 653.71 446.02 653.83 444.99 654.5 438.8 655.74 427.59 656.15 423.94 658.09 406.54 658.48 402.89 669.84 300.7 669.84 300.68 698.35 292.44 706.46 290.09 708.88 289.4 733.6 286.95 734.46 286.85 744.51 285.87 747.79 286.88 752.73 288.39 760.07 290.64 780.88 297.05 797.52 360.17 798.6 364.3 801.38 398.72 801.81 404.12 802.1 407.79 802.44 412.08 802.7 415.37 803.49 425.31 803.8 428.98 804.62 439.08 805.12 445.37 805.22 446.5 805.51 450.17 806.35 460.52"/><g class="cls-4"><path class="cls-5" d="M802.1,407.78c-18.43,3.9-39.16,5.29-59.45,5.29-33.13,0-65.18-3.73-84.57-6.53l.4-3.64c31.11,4.5,95.27,11.49,143.32,1.21Z"/><path class="cls-5" d="M803.81,429c-18.73,4.1-39.92,5.56-60.68,5.56-34.78,0-68.4-4.12-87.39-7l.4-3.64c30.13,4.5,97.66,12.34,147.36,1.35Z"/><path class="cls-5" d="M805.51,450.18c-19,4.29-40.7,5.81-61.91,5.81-36.55,0-71.81-4.55-90.18-7.37l.4-3.64c28.79,4.45,100,13.26,151.4,1.52Z"/></g><path class="cls-6" d="M760.07,290.66c-.66,10.8-1.71,29-31.21,29.85-24.77.7-30.07-18.75-30.52-28.07l10.54-3,35.62-3.51Z"/><path class="cls-7" d="M801.3,398.71h.07a.8.8,0,0,0,.73-.86l-4.9-61.78a.82.82,0,0,0-.86-.73.79.79,0,0,0-.73.86l4.9,61.77A.8.8,0,0,0,801.3,398.71Z"/><path class="cls-8" d="M709.45,278.23s-24.88-35.06-23.16-62.82S707.68,194,707.68,194L732,205.37l-4.8,45.35Z"/><path class="cls-9" d="M711.68,257.4l-5.83,36.43,0,.16a23.71,23.71,0,0,0,23.47,20.38h0a23.71,23.71,0,0,0,22.47-16.18l.92-2.75V272.5Z"/><polygon class="cls-10" points="727.34 284.17 752.73 295.44 752.73 272.5 727.34 284.17"/><path class="cls-9" d="M780.43,212s-3.68,29.38-10.08,53.06c-5,18.65-26,28.14-43,19.08-9.08-4.83-16.9-13.16-18.4-27.49,0,0-9.8.78-9.38-14.66S713,230.08,715,234.24l.11,2.91a5.57,5.57,0,0,0,3.33,4.89h0a1.88,1.88,0,0,0,2.61-1.5l4.84-40.37Z"/><path class="cls-10" d="M744.42,259.76a.93.93,0,0,1-.83-.83.94.94,0,0,1,.83-1l8.8-.92.56-19.35a.94.94,0,0,1,1-.91,1,1,0,0,1,.91,1l-.57,20.17a1,1,0,0,1-.84.91l-9.62,1Z"/><rect class="cls-8" x="737.47" y="237.97" width="6.49" height="4.26" rx="2.13" transform="translate(423.93 951.41) rotate(-83.95)"/><rect class="cls-8" x="761.34" y="241.88" width="6.49" height="4.26" rx="2.13" transform="matrix(0.11, -0.99, 0.99, 0.11, 441.38, 978.64)"/><path class="cls-5" d="M746.16,268.35a8.64,8.64,0,1,1-15.53-7.57Z"/><path class="cls-8" d="M748.71,233.35a1,1,0,0,1-.55-.25c-6.88-6.42-14.09-3-14.4-2.81a.93.93,0,0,1-1.25-.43.92.92,0,0,1,.41-1.25,15.09,15.09,0,0,1,16.53,3.12.94.94,0,0,1-.74,1.62Z"/><path class="cls-8" d="M774.1,238.29a.88.88,0,0,1-.54-.25c-6.89-6.42-14.1-3-14.4-2.81a1,1,0,0,1-1.26-.42.93.93,0,0,1,.42-1.26,15.07,15.07,0,0,1,16.52,3.12.94.94,0,0,1-.74,1.62Z"/><path class="cls-8" d="M728.09,210.43s25.13,25.82,54.19,20.8a16.38,16.38,0,0,0,12.14-22.65c-6.22-14.43-20.09-32.35-49.84-25.25,0,0-25.36-12.4-36.9,10.67Z"/><path class="cls-10" d="M711.24,248.09h0a.82.82,0,0,1-.71-.79c0-.69-.24-2.85-1.16-3.58a1.25,1.25,0,0,0-1.13-.21.8.8,0,0,1-.34-1.56,2.85,2.85,0,0,1,2.46.52,3.41,3.41,0,0,1,.77.88c.13-2.09-.11-4.26-1.42-4.79-2.77-1.12-4.59,1.85-4.67,2a.79.79,0,0,1-1.09.27.8.8,0,0,1-.27-1.1c.89-1.48,3.42-3.93,6.62-2.64,4,1.6,2,9.53,1.8,10.43A.79.79,0,0,1,711.24,248.09Z"/><path class="cls-9" d="M841.19,435.05c-1.05,3.42-2.11,6.31-3.07,8.68a10.18,10.18,0,0,1-11.52,6.13l-24.68-5.16a16.51,16.51,0,0,1-8-4.23l-2.28-2.18-4.94-1,4.14-22.16,73.51,1.69a2.29,2.29,0,0,1,2.21,2.65h0a2.27,2.27,0,0,1-2.16,1.93l-20.22,2.14c-.23,1.16.09-.39,0,0-.83,4-1.76,7.53-2.7,10.68C841.37,434.48,841.28,434.77,841.19,435.05Z"/><path class="cls-9" d="M796.41,415.21l13.77-7.11a11.89,11.89,0,0,1,7.53-1.15l2.88.51a11.86,11.86,0,0,1,6.62,3.6l4.57,4.89-4.64-.09-6.06-.13-15,13.31Z"/><path class="cls-10" d="M834.29,446.17a.84.84,0,0,1-.27-.91c3.58-11.13,2.16-24.59,2.15-24.73a.82.82,0,0,1,1.64-.18c.06.56,1.48,13.94-2.22,25.42a.83.83,0,0,1-1,.53A1.05,1.05,0,0,1,834.29,446.17Z"/><polygon class="cls-10" points="821.08 415.73 815.53 415.61 818.19 412.84 828 415.87 821.08 415.73"/><path class="cls-10" d="M828.08,450.06a10.94,10.94,0,0,1-1.48-.2l-24.68-5.16a16.48,16.48,0,0,1-8-4.23l-2.29-2.18-4.94-1,4.14-22.16S792.63,441.9,828.08,450.06Z"/><path class="cls-3" d="M629.58,410.51a36.4,36.4,0,0,0,.78,8.64v0a34.48,34.48,0,0,0,2,6.38,36.65,36.65,0,0,0,28.19,22.23c27.08,4.27,70.69,7.14,123.7-3.89,1.59-.33,3.19-.66,4.8-1a5,5,0,0,0,3.86-4.31l.05-.38,2.83-24.58-7.13-.66-107.28-10L693,376.67s4-52.58-23.19-76l-3.26,1.1a40.26,40.26,0,0,0-26.8,31.15C636.77,349.9,630.54,378.7,629.58,410.51Z"/><path class="cls-11" d="M632.34,425.56a36.65,36.65,0,0,0,28.19,22.23c27.08,4.27,70.69,7.14,123.7-3.89,1.59-.33,3.19-.66,4.8-1a5,5,0,0,0,3.86-4.31l.05-.38C668.26,454.29,639.08,436.08,632.34,425.56Z"/><path class="cls-6" d="M784.23,443.9c1.59-.33,3.19-.66,4.8-1a5,5,0,0,0,3.86-4.31l2.88-25-7.13-.66Z"/><polygon class="cls-11" points="681.37 402.91 667.29 402.08 683.58 397.91 681.37 402.91"/><path class="cls-7" d="M739.7,408.78a.8.8,0,0,0,.07-1.59l-57.22-5L693.75,377a.81.81,0,0,0-.41-1.06.79.79,0,0,0-1.05.41l-11.66,26.23a.82.82,0,0,0,0,.73.79.79,0,0,0,.62.39l58.33,5.08Z"/><path class="cls-12" d="M926.94,185v55.86a5,5,0,0,1-5,5H852.15a.64.64,0,0,0-.47.21L833.92,265a2.21,2.21,0,0,1-3.82-1.52V246.55a.65.65,0,0,0-.64-.65H811.2a5,5,0,0,1-5-5V185a5,5,0,0,1,5-5H921.92A5,5,0,0,1,926.94,185Z"/><path class="cls-5" d="M855.47,235.31a4.13,4.13,0,0,1-2.59-.75,2.21,2.21,0,0,1-1-1.8V192.33a2.12,2.12,0,0,1,1.12-2,4.72,4.72,0,0,1,2.43-.66h12.09a20,20,0,0,1,6,.91,9.21,9.21,0,0,1,4.68,3.27c1.2,1.58,1.81,3.85,1.81,6.8a12.61,12.61,0,0,1-1.44,6.33,8.11,8.11,0,0,1-3.86,3.59,10.6,10.6,0,0,1,3.36,1.9,8.16,8.16,0,0,1,2.25,3.19,13.44,13.44,0,0,1,.81,5.08v1.31a15.66,15.66,0,0,1-1.65,7.76,9.68,9.68,0,0,1-4.49,4.18,15.11,15.11,0,0,1-6.33,1.28ZM860,207.43h7a4.57,4.57,0,0,0,3.77-1.5,5.93,5.93,0,0,0,1.21-3.87,5.83,5.83,0,0,0-.62-2.83,4.39,4.39,0,0,0-1.74-1.78,5.42,5.42,0,0,0-2.68-.63H860Zm0,20.77h7a6.09,6.09,0,0,0,4.49-1.62q1.62-1.62,1.62-5.18v-1q0-3.68-1.62-5.14a6.46,6.46,0,0,0-4.49-1.47h-7Z"/><rect class="cls-2" x="570.01" y="519.62" width="333.33" height="246.09" rx="13.8"/><path class="cls-12" d="M888.37,499.55V555.4a5,5,0,0,1-5,5H813.59a.63.63,0,0,0-.47.2l-17.76,18.9a2.21,2.21,0,0,1-3.82-1.51V561.07a.65.65,0,0,0-.65-.64H772.64a5,5,0,0,1-5-5V499.55a5,5,0,0,1,5-5H883.35A5,5,0,0,1,888.37,499.55Z"/><path class="cls-8" d="M748.54,552.66S752,501,722.17,495.6s-60.78,10-69.67,33S643,560.2,643,560.2s-11.8,8.83-13.13,16.46,3.66,15.08,7.82,20.8-12.34,17.47-10.63,29.62,9.91,21.5,10.71,29.86,5,33,35.77,30.59c0,0,10.87,20.75,27.93,20.87s38.67-7.35,42.85-23.68c0,0,27.39-13.73,31-36.67,2.35-14.81-3.78-30.44-8.43-39.67a17.12,17.12,0,0,1,.16-15.58c2.29-4.45,4.35-10.43,3.44-16.57C768.73,564,755.84,554.08,748.54,552.66Z"/><path class="cls-9" d="M753.44,618.67,793.72,680l44.83-74.37,17,9.73L826.19,708.4a29.54,29.54,0,0,1-30.62,19.8h0a29.52,29.52,0,0,1-20.41-11l-38.89-48.88S728.06,629.16,753.44,618.67Z"/><polygon class="cls-10" points="793.72 679.97 790.21 692.44 790.21 674.62 793.72 679.97"/><path class="cls-10" d="M744.59,639.3s21.79,33.55,31.33,78.83l-39.65-49.84Z"/><path class="cls-9" d="M838.55,605.6l16.17,11,2.36-3.57,2.43-1a13.42,13.42,0,0,0,5.83-4.9l11.76-17.82a8.32,8.32,0,0,0,1.24-3,9.24,9.24,0,0,0-2.48-8.28c-1.57-1.59-3.52-3.44-5.89-5.47l-.59-.51c-2.11-1.77-4.52-3.68-7.26-5.65l0,0h0l0,0-.08-.05,0,0-.14-.1h0l4.77-16.89a2.09,2.09,0,0,0-.17-1.68,2.06,2.06,0,0,0-.69-.72,1.87,1.87,0,0,0-2.77.83Z"/><path class="cls-10" d="M849.5,607.32a.6.6,0,0,0,.23-.22c5.55-8.54,18.39-12.22,18.52-12.26a.7.7,0,0,0,.46-.88.73.73,0,0,0-.88-.5c-.55.15-13.46,3.85-19.27,12.82a.74.74,0,0,0,.21,1A.67.67,0,0,0,849.5,607.32Z"/><path class="cls-10" d="M871.82,593a2.47,2.47,0,0,0,.49-.36l6.28-6.06a.35.35,0,0,0,0-.5.34.34,0,0,0-.49,0l-6.28,6.06a1.83,1.83,0,0,1-2.24.19,2,2,0,0,1-.72-2.49l4.5-9.24a.39.39,0,0,0-.12-.46.35.35,0,0,0-.45,0l-7.09,7.46a1.72,1.72,0,0,1-.47.36,2.06,2.06,0,0,1-2.23-.14,2.25,2.25,0,0,1-.77-2.68l4.28-9.94a.37.37,0,0,0-.15-.46.32.32,0,0,0-.45.08l-7.31,9.73A1.9,1.9,0,0,1,856,585a2.1,2.1,0,0,1-.83-2.58l6.91-16.07a.37.37,0,0,0-.18-.48.34.34,0,0,0-.46.17l-6.91,16.07a2.85,2.85,0,0,0,1.11,3.5,2.6,2.6,0,0,0,3.48-.6l5.52-7.35-3.09,7.18a3,3,0,0,0,1,3.57,2.74,2.74,0,0,0,3,.19,2.29,2.29,0,0,0,.62-.48l5.49-5.78-3.47,7.14a2.72,2.72,0,0,0,1,3.43A2.49,2.49,0,0,0,871.82,593Z"/><path class="cls-9" d="M839.07,587.77a10.35,10.35,0,0,1,1.44-6.39l1.3-2.11a9.63,9.63,0,0,1,4.9-4l5.28-1.93,6.76,2.5a2.45,2.45,0,0,1,.47,4.39l-1.79,1-8.95.53,3.74,10.62a7.19,7.19,0,0,1-8.3,9.64l-3.53-.83Z"/><path class="cls-10" d="M851.77,599.19a.34.34,0,0,0,.12-.12,7.91,7.91,0,0,0,.66-6.79L849,582.1l8.49-.5a.42.42,0,0,0,.15,0l1.79-1a2.65,2.65,0,0,0,1.31-2.64,2.87,2.87,0,0,0-1.86-2.41.34.34,0,0,0-.44.22.37.37,0,0,0,.23.46A2.13,2.13,0,0,1,860,578a2,2,0,0,1-1,2l-1.72,1-8.87.52a.33.33,0,0,0-.26.16.37.37,0,0,0,0,.31l3.74,10.62a7.17,7.17,0,0,1-.6,6.17.37.37,0,0,0,.12.5A.34.34,0,0,0,851.77,599.19Z"/><path class="cls-13" d="M632.12,652.49c.33,5.76,1.08,12.56,2.16,19.92a2.64,2.64,0,0,0,.08.6c0,.08,0,.19,0,.26,2.21,15,5.61,32.49,9.15,49,.19.71.34,1.46.49,2.17l.45,2,.11.56c3.21,14.58,6.42,28.15,8.93,38.43h90.67l8-50.06.19-1,4.89-9a32.72,32.72,0,0,0,2.88-7v0a34.85,34.85,0,0,0-1.53-23.48c-.41-.93-.86-1.86-1.35-2.76l-8.77-16.23.15-1,.89-7,3.85-29.12v-.08s-10.79-6.5-31.19-11.29l-1.9-.45a192.59,192.59,0,0,0-32.64-4.33s-2.84,1-7.25,2.84c-8.21,3.36-21.85,9.42-32.6,16.6-6.09,4-11.24,8.41-14,12.86-.93,1.49-1.49,3.92-1.71,7.14A67.71,67.71,0,0,0,632.12,652.49Z"/><path class="cls-14" d="M683.62,719.1a1.07,1.07,0,0,1-1-.59,1.08,1.08,0,0,1,.46-1.46c21.85-11.41,54.72-4.62,56.11-4.33a1.09,1.09,0,0,1-.45,2.13c-.34-.07-33.51-6.92-54.66,4.13A1.11,1.11,0,0,1,683.62,719.1Z"/><path class="cls-14" d="M752.41,715.43a1.08,1.08,0,0,1-.6-.18,1.09,1.09,0,0,1-.31-1.51,66.48,66.48,0,0,0,8.84-22.48c2.07-12-12.56-34.59-12.71-34.81a1.09,1.09,0,0,1,1.82-1.2c.62,1,15.24,23.52,13,36.38A67.54,67.54,0,0,1,753.31,715,1.09,1.09,0,0,1,752.41,715.43Z"/><path class="cls-14" d="M634.24,672.41c0,.19.08.42.12.6s0,.19,0,.26q4.26,25.18,9.23,49a20.73,20.73,0,0,0,.45,2.16c.11.68.26,1.39.41,2.06l.11.56c.37,1.83.78,3.63,1.19,5.42q3.65,16.88,7.66,33h3.44c-.75-15.85-1-38.84,2.54-56.71a32.69,32.69,0,0,0-.19-14.84v0a10.88,10.88,0,0,0-.6-1.83,8.21,8.21,0,0,0-.63-1.68,24,24,0,0,0-3.29-5.65,32,32,0,0,0-10.2-8.41h0a42,42,0,0,0-10.2-3.89Z"/><path class="cls-9" d="M685.47,571.4l-5.19,35h0c1.49,11.31,18.3,19.71,28.88,19.71h0c13.09,0,13.09-18.16,13.09-18.16v-22Z"/><polygon class="cls-10" points="699.75 595.78 722.25 607.93 722.25 585.89 699.75 595.78"/><path class="cls-9" d="M733.51,516.73s4.06,28.15,4.15,51.7a29.29,29.29,0,0,1-11.25,23.24,28.22,28.22,0,0,1-23.7,5.36,31.92,31.92,0,0,1-19.1-11.91,35.84,35.84,0,0,1-4.9-8.87s-8.87,3.22-12.42-11.18,9.38-14.47,12.28-11.13l.56,1.78a2.69,2.69,0,0,0,4.41,1.16h0a6.08,6.08,0,0,0,1.23-4.85l-1.65-11.72c0,.1.54,1,6.29,2.69,6,1.73,15.53-14.6,16.08-15.53,0,.4.13,2.8,6.88,4.49C719.75,533.81,733.51,516.73,733.51,516.73Z"/><path class="cls-10" d="M712.31,570.08a.89.89,0,0,1-1-.56.91.91,0,0,1,.51-1.17l7.91-3.08-4.4-18.06a.9.9,0,0,1,1.75-.43l4.59,18.83a.9.9,0,0,1-.55,1L712.5,570A.59.59,0,0,1,712.31,570.08Z"/><rect class="cls-8" x="701.85" y="549.71" width="4.09" height="6.23" rx="2.05" transform="translate(-80.21 121.25) rotate(-9.32)"/><rect class="cls-8" x="724.93" y="547.26" width="4.09" height="6.23" rx="2.05" transform="translate(-79.51 124.95) rotate(-9.32)"/><path class="cls-8" d="M709.64,543.93a.94.94,0,0,1-.57,0c-8.3-3.56-13.69,1.91-13.92,2.15a.9.9,0,1,1-1.3-1.25,14.49,14.49,0,0,1,15.93-2.56.91.91,0,0,1-.14,1.71Z"/><path class="cls-8" d="M734.06,539.92a.87.87,0,0,1-.57,0c-8.34-3.47-13.67,2.06-13.89,2.3a.91.91,0,0,1-1.32-1.24,14.52,14.52,0,0,1,15.91-2.73.91.91,0,0,1,.48,1.18A.88.88,0,0,1,734.06,539.92Z"/><path class="cls-5" d="M713.92,574.54a2.83,2.83,0,0,1,2.36,4.2,8.62,8.62,0,0,1-15.11-.56,2.85,2.85,0,0,1,2.69-4.12Z"/><path class="cls-10" d="M678.93,568.62h0A.82.82,0,0,1,678,568c-.18-.7-.94-2.81-2-3.32a1.26,1.26,0,0,0-1.18.06.82.82,0,1,1-.72-1.48,2.91,2.91,0,0,1,2.6-.08,3.57,3.57,0,0,1,1,.7c-.38-2.15-1.15-4.27-2.6-4.48-3.06-.45-4.17,3-4.21,3.13a.83.83,0,0,1-1.58-.5c.54-1.7,2.49-4.79,6-4.27,4.37.64,4.37,9.09,4.35,10.05A.82.82,0,0,1,678.93,568.62Z"/><path class="cls-9" d="M614.45,734.1h0l6,31.36h33.91l-4-42.69-.11-1.12-.48.22-.3.11,1.57-5.16.14-.56L658.63,692l1.65-5.42.56-1.87,5-16.6C685,633.24,652.43,621,652.43,621h-.11c-.34,0-.6.08-.93.15a17.24,17.24,0,0,0-1.95.38,10.5,10.5,0,0,0-1.6.45,3,3,0,0,0-.56.18,14.78,14.78,0,0,0-1.68.68,9,9,0,0,0-.9.41c-.56.3-1.12.6-1.68.93a15.3,15.3,0,0,0-1.34.86,4,4,0,0,0-.56.38,16.06,16.06,0,0,0-1.87,1.49,18.45,18.45,0,0,0-1.57,1.38,3.27,3.27,0,0,1-.37.38,41.52,41.52,0,0,0-5.12,6.46c-.3.49-.63,1-.9,1.46s-.63,1.09-.89,1.61c-.53,1-1,1.91-1.5,2.84s-.89,1.87-1.27,2.8-.86,2.06-1.23,3v0c-.15.41-.3.79-.41,1.16-.26.75-.52,1.49-.75,2.17s-.48,1.6-.71,2.28c-.37,1.31-.63,2.39-.82,3.14,0,.26-.11.52-.15.71a3.17,3.17,0,0,1-.07.45L619.38,692Z"/><polygon class="cls-10" points="649.67 722.57 638.44 726.29 651.28 716.28 649.67 722.57"/><path class="cls-14" d="M648.81,722.8a.48.48,0,0,1,.11.09,1.11,1.11,0,0,0,1.06.1l.52-.21.77-2.69,10.31-34a1.07,1.07,0,0,0-.72-1.35,1.1,1.1,0,0,0-1.36.72l-11,36.22A1.1,1.1,0,0,0,648.81,722.8Z"/><path class="cls-10" d="M614.49,734.1l.67-.23c2.5-13,7.5-38.65,13.35-67.16,8.06-39.16,22.6-45.21,23.81-45.68l0,0a8.13,8.13,0,0,0-1,.15c-.66.08-1.32.23-1.95.37a20.59,20.59,0,0,0-3.83,1.31l-.9.41c-.57.29-1.14.59-1.7.93s-.89.56-1.34.86a3.58,3.58,0,0,0-.55.38,22.34,22.34,0,0,0-1.88,1.49,16.78,16.78,0,0,0-1.54,1.4l-.38.37a39.57,39.57,0,0,0-5.12,6.47c-.32.48-.63,1-.91,1.45a59.65,59.65,0,0,0-3.67,7.26c-.45,1-.86,2-1.2,3a0,0,0,0,0,0,0,68.09,68.09,0,0,0-2.94,9.92L619.38,692Z"/><path class="cls-5" d="M817.61,551.06a6.51,6.51,0,0,1-2.28-.43,5.84,5.84,0,0,1-2-1.17,2.31,2.31,0,0,1-.81-1.74,4.06,4.06,0,0,1,.07-.62l11.93-38.91a3.28,3.28,0,0,1,1.94-2,7.74,7.74,0,0,1,3.25-.69,7.63,7.63,0,0,1,3.27.69,3.32,3.32,0,0,1,1.92,2l11.93,38.91a2.75,2.75,0,0,1,.12.62,2.26,2.26,0,0,1-.83,1.7,6,6,0,0,1-2,1.21,6.52,6.52,0,0,1-2.29.43,3.88,3.88,0,0,1-1.7-.34,1.81,1.81,0,0,1-.95-1.26l-2.35-8.23H822.62l-2.29,8.23a1.78,1.78,0,0,1-1,1.26A4,4,0,0,1,817.61,551.06Zm6.74-16.14h10.76l-5.38-19Z"/><path class="cls-15" d="M766.62,1072.31S680.83,940.67,875.35,944.47a7.19,7.19,0,0,1,6.75,9.25C870.94,990.94,824.72,1128.61,766.62,1072.31Z"/><path class="cls-15" d="M719.89,1085.66S769.6,983.89,618.72,1004a7.19,7.19,0,0,0-5.53,10.19C626,1041.59,669,1121.22,719.89,1085.66Z"/><path class="cls-16" d="M746.52,1221.88a3.39,3.39,0,0,0,.55,0,3.6,3.6,0,0,0,3-4.11c-.22-1.41-20.55-142.15,84.57-235.33a3.6,3.6,0,0,0-4.76-5.39c-56.53,50.11-77.16,113.17-84.5,157.26-8,47.71-2.65,83.08-2.42,84.57A3.6,3.6,0,0,0,746.52,1221.88Z"/><path class="cls-16" d="M764.45,1221.88a3.6,3.6,0,0,0,3.6-3.56c0-1.28-.27-128.3-113.7-199.5a3.6,3.6,0,0,0-3.82,6.1C760.59,1094,760.86,1217,760.85,1218.25a3.6,3.6,0,0,0,3.57,3.63Z"/><path class="cls-2" d="M636.43,1184l4.41,25,28.34,161A12,12,0,0,0,681,1380H794.46a12,12,0,0,0,11.8-9.91l28.37-161,4.41-25a10.73,10.73,0,0,0,.14-2.76A12,12,0,0,0,827.24,1170h-179a11.94,11.94,0,0,0-11.94,11.33A10.36,10.36,0,0,0,636.43,1184Z"/><path class="cls-15" d="M636.43,1184l4.41,25H834.63l4.41-25a10.73,10.73,0,0,0,.14-2.76H636.29A10.36,10.36,0,0,0,636.43,1184Z"/><rect class="cls-12" x="623.67" y="1154.53" width="228.13" height="39.08" rx="11.99" transform="translate(1475.46 2348.13) rotate(-180)"/><rect class="cls-2" x="1527.09" y="180" width="165.97" height="166.12" rx="13.18" transform="translate(3220.15 526.12) rotate(-180)"/><rect class="cls-2" x="1285.01" y="180" width="165.97" height="166.12" rx="13.18" transform="translate(2735.98 526.12) rotate(-180)"/><rect class="cls-2" x="1038.26" y="180" width="165.97" height="166.12" rx="13.18" transform="translate(2242.48 526.12) rotate(-180)"/><path class="cls-5" d="M1098.68,300a12.15,12.15,0,0,1-4.25-.81,10.7,10.7,0,0,1-3.69-2.19,4.24,4.24,0,0,1-1.49-3.22,8.38,8.38,0,0,1,.11-1.15l22.21-72.46a6.24,6.24,0,0,1,3.63-3.81,15.25,15.25,0,0,1,12.14,0,6.24,6.24,0,0,1,3.57,3.81l22.21,72.46a4.49,4.49,0,0,1,.23,1.15,4.26,4.26,0,0,1-1.55,3.17,11,11,0,0,1-3.74,2.24,12.24,12.24,0,0,1-4.26.81,7.27,7.27,0,0,1-3.16-.63,3.42,3.42,0,0,1-1.79-2.37l-4.37-15.32H1108L1103.75,297a3.4,3.4,0,0,1-1.84,2.37A7.72,7.72,0,0,1,1098.68,300Zm12.55-30.07h20l-10-35.36Z"/><path class="cls-5" d="M1349.12,300a7.61,7.61,0,0,1-4.78-1.38,4.12,4.12,0,0,1-1.79-3.34V220.63a3.92,3.92,0,0,1,2.08-3.63,8.69,8.69,0,0,1,4.49-1.21h22.32a37.05,37.05,0,0,1,11.17,1.67,17,17,0,0,1,8.63,6q3.33,4.38,3.34,12.55a23.52,23.52,0,0,1-2.65,11.7,15,15,0,0,1-7.14,6.62,20,20,0,0,1,6.22,3.51,15.18,15.18,0,0,1,4.14,5.88,24.87,24.87,0,0,1,1.5,9.39v2.42q0,9-3.05,14.34a18,18,0,0,1-8.29,7.72,28.15,28.15,0,0,1-11.68,2.36Zm8.4-51.5h12.89q4.71,0,7-2.76a12.51,12.51,0,0,0,1.09-12.38,8,8,0,0,0-3.22-3.29,10.12,10.12,0,0,0-5-1.15h-12.77Zm0,38.37h12.89q5.29,0,8.28-3t3-9.56v-1.84q0-6.8-3-9.51t-8.28-2.7h-12.89Z"/><path class="cls-5" d="M1610.94,300.69a33.39,33.39,0,0,1-13.23-2.59,20.88,20.88,0,0,1-9.73-8.41q-3.63-5.82-3.63-15.5V242.28q0-9.67,3.63-15.49a20.88,20.88,0,0,1,9.73-8.41,33.69,33.69,0,0,1,13.34-2.59,35,35,0,0,1,14.22,2.71,23.14,23.14,0,0,1,9.67,7.54,19.3,19.3,0,0,1,3.51,11.64c0,3-.62,5-1.84,5.93s-3.11,1.44-5.65,1.44a11.46,11.46,0,0,1-5.23-1.09,4,4,0,0,1-2.24-3.63,16.15,16.15,0,0,0-.41-3.29,11.85,11.85,0,0,0-1.55-3.74,9,9,0,0,0-3.51-3.11,13.82,13.82,0,0,0-6.5-1.27q-5.88,0-9,3.28t-3.11,10.08v31.91q0,6.92,3.16,10.14t9.16,3.23a12.88,12.88,0,0,0,6.21-1.27,8.49,8.49,0,0,0,3.39-3.17,12.79,12.79,0,0,0,1.5-4c.27-1.38.48-2.69.64-3.92a4.15,4.15,0,0,1,2.3-3.74,11.8,11.8,0,0,1,5.06-1q3.92,0,5.76,1.5c1.22,1,1.84,2.95,1.84,5.87a21.07,21.07,0,0,1-3.51,12.1,22.62,22.62,0,0,1-9.73,7.95A34.83,34.83,0,0,1,1610.94,300.69Z"/><polygon class="cls-16" points="1157.85 818.23 957.13 839.31 916.43 825.21 916.43 806.78 1157.85 806.78 1157.85 818.23"/><polygon class="cls-15" points="889.42 1380 918.84 1380 952.99 824.13 923.57 807.86 889.42 1380"/><polygon class="cls-15" points="1171.34 1380 1141.93 1380 1006.29 823.47 1035.7 807.2 1171.34 1380"/><path class="cls-16" d="M1242,1379.7h26.43l84.37-181.35,13.22-28.44L1597.8,672a12,12,0,1,0-21.73-10.14l-223.24,479.58-13.21,28.44Z"/><polygon class="cls-16" points="1286.2 1055.01 1339.62 1169.91 1352.83 1198.35 1437.11 1379.7 1463.58 1379.7 1366.05 1169.91 1352.83 1141.47 1312.64 1055.01 1286.2 1055.01"/><polygon class="cls-15" points="1276.06 1337.11 1450.75 1337.11 1457.49 1322.79 1282.8 1322.79 1276.06 1337.11"/><path class="cls-15" d="M1218.25,1023.3V1043c0,6.6,6.94,12,15.51,12h373.43c8.57,0,15.51-5.4,15.51-12V1023.3c0-6.63-6.94-12-15.51-12H1233.76C1225.19,1011.3,1218.25,1016.67,1218.25,1023.3Z"/><path class="cls-15" d="M1514.29,839.13q76.64,11,162.47.59c4.88-.59,10.59-5.74,13.2-11.85l62.88-146.93c3.09-7.21.65-12.82-5.19-11.85q-85.29,14.14-158.21-.58c-5-1-12.22,4.57-15.31,11.78l-62.87,146.93C1508.64,833.33,1509.94,838.51,1514.29,839.13Z"/><polygon class="cls-2" points="1457.28 1055.01 1510.69 1169.91 1523.91 1198.35 1608.19 1379.7 1634.65 1379.7 1537.13 1169.91 1523.91 1141.47 1483.72 1055.01 1457.28 1055.01"/><path class="cls-2" d="M1413.1,1379.7h26.44l84.37-181.35,13.22-28.44L1768.88,672a12,12,0,1,0-21.73-10.14l-223.24,479.58-13.22,28.44Z"/><polygon class="cls-9" points="1347.05 1262.17 1349.73 1337.11 1300.48 1330.39 1292.2 1253.33 1347.05 1262.17"/><path class="cls-17" d="M1223.14,1351.59a11.61,11.61,0,0,0-3.71,6,9.1,9.1,0,0,0-.28,1.89,11.49,11.49,0,0,0,7.86,11.88l7.42,2.43a119.41,119.41,0,0,0,37.35,5.94l81.54-.14a12,12,0,0,0,11.64-14.81l-1.18-5-4.61-19.22a29.43,29.43,0,0,0-10.22-16.1h0c-14.81,19-39,2.12-39,2.12.35-10.93-11.75-16.15-11.75-16.15l-51.08,31.73-20.37,7.34A11.31,11.31,0,0,0,1223.14,1351.59Z"/><path class="cls-18" d="M1219.15,1359.44a11.49,11.49,0,0,0,7.86,11.88l7.42,2.43a119.41,119.41,0,0,0,37.35,5.94l81.54-.14a12,12,0,0,0,11.64-14.81l-1.18-5-6.78-.87a20.89,20.89,0,0,0-20.08,9.22h0a9,9,0,0,1-7.16,4l-55.36,2.26a10.23,10.23,0,0,1-8.22-3.6l-.45-.53a10.23,10.23,0,0,0-7.39-3.6C1250.29,1366.43,1232.78,1365.13,1219.15,1359.44Z"/><polygon class="cls-10" points="1297.31 1300.88 1348.78 1310.44 1347.05 1262.17 1292.2 1253.33 1297.31 1300.88"/><path class="cls-19" d="M1509.32,848.68l-6,162.63H1345.76l-163.55-58.58,14.39-99.26c1.85-.91,178.29,16.83,178.29,16.83l4.32-21.61Z"/><path class="cls-20" d="M1450,917.63l53.3,68.19-222.17,2.32-98.89-35.42-5.2-12.4a11.32,11.32,0,0,1,1.51-16.26l193.29-15.75a40.87,40.87,0,0,1,37.07-5.13Z"/><path class="cls-19" d="M1595.87,848.68l9.79,76.33a76.52,76.52,0,0,1-75.84,86.29l-147.51,10.85-22.2,254.59a6,6,0,0,1-5.9,7h-67.29a6,6,0,0,1-5.79-4.46l-.1-251.4a76.92,76.92,0,0,1,47.12-91.72l159-60.06,5.49-27.47Z"/><path class="cls-21" d="M1279.24,1024.55a2.56,2.56,0,0,1-2.53-2.19,80,80,0,0,1,50.54-85.86l76-28.73a2.56,2.56,0,0,1,1.81,4.8l-76,28.73a74.8,74.8,0,0,0-47.28,80.32,2.56,2.56,0,0,1-2.16,2.91A2.42,2.42,0,0,1,1279.24,1024.55Z"/><polygon class="cls-20" points="1456.6 848.68 1603.42 907.61 1595.87 848.68 1456.6 848.68"/><path class="cls-19" d="M1489.7,916.39a387.42,387.42,0,0,0-14.86,45.52,217.25,217.25,0,0,0-5,25.47l-287.63-34.66a36.85,36.85,0,0,1-27-17.28l-2.09-3.38a41.73,41.73,0,0,1-5.63-28.25l2.66-16.75a41.56,41.56,0,0,1,20.91-29.83,36.76,36.76,0,0,1,25.51-3.77Z"/><path class="cls-20" d="M1474.84,961.91a217.25,217.25,0,0,0-5,25.47l-287.63-34.66a36.85,36.85,0,0,1-27-17.28l-2.09-3.38a41.73,41.73,0,0,1-5.63-28.25l2.66-16.75a41.3,41.3,0,0,1,7.67-18.24s-3.53,32.51.29,49.59a7.91,7.91,0,0,0,6.86,6.07c6.5.79,17.65,3.49,22.8,12.64a7.66,7.66,0,0,0,6.14,3.73Z"/><path class="cls-21" d="M1433.91,983.56h-.15l-251.69-29.64a41.73,41.73,0,0,1-27.82-17.8,1.2,1.2,0,0,1,2-1.34,40,40,0,0,0,26.12,16.76l251.7,29.64a1.2,1.2,0,0,1-.14,2.39Z"/><path class="cls-21" d="M1467.91,912.91a1,1,0,0,1-.25,0l-233.42-50.11a1.2,1.2,0,0,1-.92-1.43,1.22,1.22,0,0,1,1.42-.92l233.42,50.11a1.2,1.2,0,0,1-.25,2.38Z"/><path class="cls-17" d="M1473.07,917.83l-54.82,16.58c-16,4.2-26.67,16.8-25.57,30.28h0c.76,9.16,6.88,17.33,16.47,22h0a91.67,91.67,0,0,0,49.17,8.11l85-9c16.84-1.79,30-13.27,30.88-27l.74-11.17c1-14.7-12.29-27.06-30.27-28.22l-30.18-5.19Z"/><path class="cls-18" d="M1567.39,947.2l-.74,11.19a17.55,17.55,0,0,1-2.62,7.94,24.21,24.21,0,0,1-1.65,2.3,25.55,25.55,0,0,1-8.3,6.56,12,12,0,0,1-1.75.81,30.45,30.45,0,0,1-8.56,2.45c-.38.07-.79.12-1.2.17l-.6.07-8.68.91-1.77.19-8.68.92-1.78.19-8.68.91-1.79.19-8.68.91-1.78.2-8.68.93-1.8.17-8.68.94-1.79.19-8.66.91-1.8.19-8.68.91-1.8.2-.69.07-2.09.19c-2,.17-4,.26-5.92.26-.6,0-1.18,0-1.77,0-3,0-5.88-.19-8.78-.51l-1.82-.21c-3-.39-6-.94-8.85-1.61-.62-.14-1.25-.31-1.85-.48a73.6,73.6,0,0,1-8.94-2.93c-.62-.24-1.25-.5-1.85-.77-1-.43-2-.88-3-1.36a26.46,26.46,0,0,1-6.09-4.08,20.07,20.07,0,0,1-1.92-2,17.07,17.07,0,0,1-1.43-21.16,19,19,0,0,1,1.63-2.24,26.7,26.7,0,0,1,8.29-6.64,18.63,18.63,0,0,1,1.73-.87,33.47,33.47,0,0,1,5.35-1.89l3.26-.39,1.77-.21,8.66-1,1.79-.21,8.68-1,1.78-.21,8.68-1,1.8-.22,8.65-1,1.78-.22,2.2-.26a31.71,31.71,0,0,1,6.53-.1c.62.05,1.22.12,1.82.22a31.76,31.76,0,0,1,8.92,2.64c.33.14.67.29,1,.46s.56.26.84.38a18.93,18.93,0,0,0,7.7,1.66,8.85,8.85,0,0,0,1.15,0c.6,0,1.2-.1,1.8-.19a19,19,0,0,0,8.49-3.6c.38-.29.76-.6,1.12-.92l.58-.53h0a26.23,26.23,0,0,1,8.4-5c.57-.22,1.15-.41,1.75-.58a24.89,24.89,0,0,1,4.24-.86l4.39-.53,1.8-.22,8.68-1,1.79-.21,3.84-.46a32,32,0,0,1,4.89.7c.63.12,1.25.29,1.85.45a27.37,27.37,0,0,1,9,4.44,22.23,22.23,0,0,1,1.92,1.66A16.93,16.93,0,0,1,1567.39,947.2Z"/><g class="cls-22"><path d="M1406.57,976.15a20.07,20.07,0,0,1-1.92-2L1403.22,953a19,19,0,0,1,1.63-2.24Z"/><path d="M1417.53,982.36c-.62-.24-1.25-.5-1.85-.77l-2.54-37.48a18.63,18.63,0,0,1,1.73-.87Z"/><path d="M1428.32,985.77c-.62-.14-1.25-.31-1.85-.48l-3-44.33,1.77-.21Z"/><path d="M1439,987.59l-1.82-.21-3.26-47.67,1.79-.21Z"/><path d="M1449.54,988.07c-.6,0-1.18,0-1.77,0l-3.39-49.64,1.78-.21Z"/><polygon points="1460.04 987.35 1458.24 987.54 1454.84 937.22 1456.64 937 1460.04 987.35"/><polygon points="1470.52 986.25 1468.72 986.44 1465.29 935.97 1467.07 935.75 1470.52 986.25"/><path d="M1481,985.15l-1.79.19-3.38-50c.62.05,1.22.12,1.82.22Z"/><path d="M1491.45,984l-1.8.17-3.11-46c.33.14.67.29,1,.46s.56.26.84.38Z"/><path d="M1501.91,982.91l-1.78.2-2.9-42.41c.6,0,1.2-.1,1.8-.19Z"/><path d="M1512.38,981.81l-1.79.19-3.07-45.09c.38-.29.76-.6,1.12-.92l.58-.53Z"/><path d="M1522.84,980.71l-1.78.19-3.42-50.45c.57-.22,1.15-.41,1.75-.58Z"/><polygon points="1533.29 979.6 1531.52 979.79 1528.02 928.48 1529.82 928.26 1533.29 979.6"/><path d="M1543.77,978.45c-.38.07-.79.12-1.2.17l-.6.07-3.47-51.46,1.79-.21Z"/><path d="M1554.08,975.19a12,12,0,0,1-1.75.81L1549,927.26c.63.12,1.25.29,1.85.45Z"/><path d="M1564,966.33a24.21,24.21,0,0,1-1.65,2.3l-2.47-36.48a22.23,22.23,0,0,1,1.92,1.66Z"/></g><path class="cls-9" d="M1208.11,565.62s-7-12.45-24-17.65l-10.62-8.82a3.38,3.38,0,0,0-2.83-.72h0a3.39,3.39,0,0,0-2.22,5.08l5.44,8.92Z"/><path class="cls-9" d="M1212.43,571.4l-24.64,16.18-4.67-7.22a11.92,11.92,0,0,0-5.79-4.69l-40.24-15.27a9.64,9.64,0,0,1-3.61-2.19l-17.67-16.91a2.73,2.73,0,0,1,1.54-4.68h0a2.75,2.75,0,0,1,1.62.29l23,12.23,51.06,5.27,15,11.21Z"/><path class="cls-9" d="M1132.89,546.13l-15.64-12.93a2.1,2.1,0,0,1,1-3.7l2-.28h0a2.3,2.3,0,0,1,1.92-3.62h0a8.72,8.72,0,0,1,4.72,1.48l5.35,3.57.92-.29a9,9,0,0,1,8.16,1.48l11.93,9.25,13.65,6.83,26.15,6.49-41.82,3.78-12.65-5.44Z"/><path class="cls-10" d="M1155,547.29a.66.66,0,0,0,.65-.33.65.65,0,0,0-.25-.88l-7.82-4.38-14.91-11.57a.66.66,0,0,0-.91.12.65.65,0,0,0,.12.91l15,11.62,7.9,4.43A.63.63,0,0,0,1155,547.29Z"/><path class="cls-10" d="M1147.19,549.07a.65.65,0,0,0,.45-1.18l-12.32-8.47-14.66-10.72a.65.65,0,0,0-.91.14.64.64,0,0,0,.14.9l14.68,10.74,12.34,8.48A.61.61,0,0,0,1147.19,549.07Z"/><path class="cls-10" d="M1186.63,564.3a.67.67,0,0,0,.5-.14.66.66,0,0,0,.09-.91c-5.8-7.1-17.41-10-23.69-11.08a28.27,28.27,0,0,0,4.19-1.35.64.64,0,0,0,.33-.85.65.65,0,0,0-.85-.34,28.5,28.5,0,0,1-8,2,.65.65,0,0,0-.59.65.62.62,0,0,0,.59.64c.19,0,19.38,1.81,27,11.2A.66.66,0,0,0,1186.63,564.3Z"/><polygon class="cls-10" points="1171.89 549.15 1185.59 552.55 1169.8 545.73 1171.89 549.15"/><path class="cls-23" d="M1418.05,537.83l-7.89,1.46a77.05,77.05,0,0,0-49.63,32.38l-51.14,75.08-100.05-79.48s-17.17,10.61-21.55,20.31l81.6,108.74a54.5,54.5,0,0,0,44.37,21.79h0a54.48,54.48,0,0,0,42.36-21.18L1403,636.24Z"/><path class="cls-24" d="M1318.69,654.94a1.21,1.21,0,0,0,1.1-.46,1.2,1.2,0,0,0-.21-1.68l-32.36-25.2a1.2,1.2,0,0,0-1.47,1.9l32.36,25.19A1.16,1.16,0,0,0,1318.69,654.94Z"/><path class="cls-25" d="M1187.8,587.59l81.6,108.74a54.51,54.51,0,0,0,86.73.61l46.87-60.7,8.93-58.4L1340.5,699.47a8.31,8.31,0,0,1-9.7,3.7c-11-3.51-21.25.32-26.8,3.21a8.14,8.14,0,0,1-8.77-.73c-8-6.19-26-21.57-49.17-50.06a501.34,501.34,0,0,1-51.38-77A31.39,31.39,0,0,0,1187.8,587.59Z"/><path class="cls-6" d="M1368.85,859.65a35.64,35.64,0,0,0,1.79,6.07,36.63,36.63,0,0,0,23.58,21.92c68.76,20.83,140.38,10.57,182.75.58a44.4,44.4,0,0,0,30.55-25.47,43.52,43.52,0,0,0,2.12-5.9,44.57,44.57,0,0,0,1.34-16.79l-1.1-9.77-.6-5.46-2.88-26.07-.6-5.46-2.91-26.07-.6-5.46-2.89-26.1-.6-5.46-2.91-26.12-.6-5.46-17-153.4-42.79-12.35-15.79-4.58L1466.22,523l-23.37,7.17-31.24,9.6-13.34,101-18,59.64-.44,5.51-2.11,26.29-.47,5.52-2.11,26.29-.44,5.51-2.11,26.26-.44,5.52L1370,827.57l-.44,5.55-1.32,16.32A37.66,37.66,0,0,0,1368.85,859.65Z"/><path class="cls-5" d="M1442.86,530.2c1,16.21-9,43.56,35.3,44.8,37.17,1,56.65-28.13,57.32-42.12l-15.8-4.57L1466.22,523Z"/><path class="cls-8" d="M1542.46,466.29l-23.55,35.53-13.14,9.39-76.06-101.94s-17.41-9.5-1.58-21.13c12.61-9.28,21-21.47,23.86-26.05,10-4.94,34.89-14.58,60.71-5.36,33.51,11.95,28.16,34.49,28.16,34.49s5.06,2.09,9.31,19.18S1542.46,466.29,1542.46,466.29Z"/><path class="cls-9" d="M1515.46,480.3l8.76,54.67,0,.23c-2.49,17.54-29.08,30.58-46.79,30.58-15.78-.3-22-11.61-23.52-28.4V503Z"/><polygon class="cls-10" points="1491.96 514.92 1453.87 537.38 1453.87 502.95 1491.96 514.92"/><path class="cls-9" d="M1431.5,393.68s-5.81,44.05-5.5,80.86c.23,29,27,50.72,55.18,44.05,15-3.56,29.53-12.68,37.15-32.91,0,0,13.92,4.86,19.18-17.71s-14.93-22.43-19.39-17.15l-1.26,4.18a8.31,8.31,0,0,1-6.69,5.83h0a2.81,2.81,0,0,1-3.22-3.16l8.3-60.45Z"/><path class="cls-10" d="M1465.65,476.67a1.42,1.42,0,0,0,1.53-.9,1.41,1.41,0,0,0-.82-1.82l-12.42-4.68,6.53-28.3a1.4,1.4,0,0,0-1-1.69,1.43,1.43,0,0,0-1.69,1.06l-6.81,29.5a1.39,1.39,0,0,0,.87,1.63l13.57,5.12A1.82,1.82,0,0,0,1465.65,476.67Z"/><rect class="cls-8" x="1471.06" y="441.7" width="6.4" height="9.74" rx="3.2" transform="translate(2864.79 1109.37) rotate(-171.37)"/><rect class="cls-8" x="1434.94" y="438.31" width="6.4" height="9.74" rx="3.2" transform="translate(2793.45 1097.2) rotate(-171.37)"/><path class="cls-5" d="M1459.88,488.48a13,13,0,1,0,25.41-5.1Z"/><path class="cls-8" d="M1469.46,436.69a1.44,1.44,0,0,0,.88-.15c12.43-6.7,21.59,1,22,1.39a1.41,1.41,0,0,0,1.86-2.12,22.65,22.65,0,0,0-25.17-1.75,1.41,1.41,0,0,0,.46,2.63Z"/><path class="cls-8" d="M1430.72,434.21a1.42,1.42,0,0,0,.88-.15c12.43-6.71,21.59,1.05,22,1.39a1.41,1.41,0,0,0,2-.14,1.39,1.39,0,0,0-.13-2,22.64,22.64,0,0,0-25.16-1.76,1.41,1.41,0,0,0-.57,1.91A1.36,1.36,0,0,0,1430.72,434.21Z"/><path class="cls-10" d="M1518.25,472.34h0a1.2,1.2,0,0,0,1.32-.87c.28-1,1.44-4.05,3.05-4.76a1.83,1.83,0,0,1,1.71.13,1.2,1.2,0,1,0,1.09-2.14,4.3,4.3,0,0,0-3.77-.19,5.33,5.33,0,0,0-1.45,1c.61-3.09,1.78-6.15,3.89-6.42,4.44-.56,6,4.44,6,4.65a1.2,1.2,0,0,0,2.3-.68c-.74-2.48-3.49-7-8.62-6.35-6.35.81-6.57,13.05-6.57,14.45A1.19,1.19,0,0,0,1518.25,472.34Z"/><path class="cls-5" d="M1539.72,450.52l.54-2.34-43-9.92a19.28,19.28,0,0,0-36.45,2.6,20.23,20.23,0,0,0-.59,3.73,5.58,5.58,0,0,0-2.67-.91,3.76,3.76,0,0,0-.91.08,19.32,19.32,0,1,0-.61,4.06c.14-.5.23-1,.32-1.51.57-.31,2-.63,4,1.46a19.3,19.3,0,1,0,37.87-6.84Zm-106.66,8.79a16.93,16.93,0,1,1,20.65-12.09A17,17,0,0,1,1433.06,459.31Zm42.14,2.82A16.93,16.93,0,1,1,1495.84,450,16.95,16.95,0,0,1,1475.2,462.13Z"/><path class="cls-8" d="M1430.07,405.87s15.52,2.69,20.15-11.4c0,0,31.28,62.26,64.63,38.3l6-39.5-90.16-9.14Z"/><path class="cls-17" d="M1549.19,452.27l-27.53-32.56-11.17-13.2-31.35-14.14-39.79-18a45.64,45.64,0,0,1,4.48-5.58c10.49-11.39,39.41-34.13,86.93-7.62A59.38,59.38,0,0,1,1550,377.58C1573.12,408.88,1549.19,452.27,1549.19,452.27Z"/><path class="cls-20" d="M1549.19,452.27l-27.53-32.56-12.54-16.88-30-10.46-39.79-18a45.64,45.64,0,0,1,4.48-5.58c49.78,1.08,81.51,24.14,94.83,36.29a7.48,7.48,0,0,0,12.46-4.33c1-7.35.06-16.21-1.17-23.21C1573.12,408.88,1549.19,452.27,1549.19,452.27Z"/><path class="cls-17" d="M1428.13,388.13s26.09-9.91,67,14,47.28,64.18,47.28,64.18l6-4.64a17.82,17.82,0,0,0,5.89-19.95,96.55,96.55,0,0,0-46.72-54.28c-29.85-15.63-53.19-17.17-65.19-16.52a12.78,12.78,0,0,0-11.45,8.72Z"/><path class="cls-13" d="M1519.17,401.75l-4.6,5.8a2.38,2.38,0,0,0,.16,3.17c3.44,3.48,11.9,12.19,15.55,17.46a2.37,2.37,0,0,0,3.45.52l5.61-4.42a2.38,2.38,0,0,0,.61-3c-2-3.5-7.15-11.56-17.39-19.88A2.42,2.42,0,0,0,1519.17,401.75Z"/><path class="cls-5" d="M1521.75,463.38l-2,3.55a4.86,4.86,0,0,0-.61,1.81,4.76,4.76,0,0,0,2.33,4.66l.68.39a4.7,4.7,0,0,0,5.19-.33,4.51,4.51,0,0,0,1.26-1.44l2-3.55a4.72,4.72,0,0,0-1.73-6.44l-.68-.39A4.73,4.73,0,0,0,1521.75,463.38Z"/><path class="cls-2" d="M1520.54,465.49l-.83,1.44a4.86,4.86,0,0,0-.61,1.81,4.76,4.76,0,0,0,2.33,4.66l.68.39a4.7,4.7,0,0,0,5.19-.33,4.51,4.51,0,0,0,1.26-1.44l.83-1.43a5.11,5.11,0,0,1-8.85-5.1Z"/><path class="cls-5" d="M1519,464.13h0a2.22,2.22,0,0,1,2.22,2.22v14.74a0,0,0,0,1,0,0h-4.45a0,0,0,0,1,0,0V466.35A2.22,2.22,0,0,1,1519,464.13Z" transform="translate(2599.6 1640.15) rotate(-150.07)"/><path class="cls-23" d="M1626.08,893.7a12.57,12.57,0,0,1-4,11.18c-36.33,31.7-144.66,3.9-149,2.75l-.14,0c23.26-57.46,29.64-204.07,24.5-274.35-1.72-23.54.72-43,4.75-58.34,7.94-30.53,22-45.29,22-45.29l9.44,2.74,44.6,12.86L1592,645Z"/><path class="cls-13" d="M1533.66,532.37l-5.29,53.13a4,4,0,0,1-6.14,2.88l-20-13.46c7.94-30.53,22-45.29,22-45.29Z"/><path class="cls-25" d="M1622.1,904.88c-36.33,31.7-144.66,3.9-149,2.75,76.37,11.93,119.94-8.93,125.33-55.2s-25.39-217-25.39-217L1592,645l34.13,248.7A12.57,12.57,0,0,1,1622.1,904.88Z"/><path class="cls-23" d="M1454,526.8s-.76,19-1.7,47c-1,28.41-2.09,66.12-2.78,102.67-1.31,69.5-36.46,190.31-31.43,221.79a2,2,0,0,1-2.71,2.2c-9.82-3.86-37.81-14.44-60.31-18.88a6.55,6.55,0,0,1-5.11-7.84c4.5-20.7,18.11-85.31,24-136.26,7.08-61.54,37.72-197.69,37.72-197.69l29.71-9.12Z"/><path class="cls-13" d="M1454,526.8s-.76,19-1.7,47l-19.78,3.62a3.94,3.94,0,0,1-4.48-5.09l13.33-41.66Z"/><path class="cls-24" d="M1380.22,696.4l-.23,0a1.2,1.2,0,0,1-1-1.41l18.64-96.26a1.2,1.2,0,1,1,2.35.46l-18.64,96.26A1.2,1.2,0,0,1,1380.22,696.4Z"/><path class="cls-9" d="M1462.45,706.16l-11,7.94-19.62-6.26L1377,704.9,1353.8,692a2.73,2.73,0,0,1,.31-4.91h0a2.76,2.76,0,0,1,1.63-.12l27.53,8.88,48.31-10.75,17.32,7Z"/><path class="cls-9" d="M1371.49,692.35l-18.34-8.51a2.09,2.09,0,0,1,.07-3.82l1.84-.78h0a2.29,2.29,0,0,1,.94-4h0a8.65,8.65,0,0,1,4.91.23l6.06,2.09.82-.51a8.92,8.92,0,0,1,8.24-.64l13.83,5.9,14.88,3.13,26.84-.35-39.36,14.21-13.56-2Z"/><path class="cls-10" d="M1393.07,687.88a.64.64,0,0,0,.54-.47.65.65,0,0,0-.46-.79l-8.64-2.25L1367.22,677a.64.64,0,1,0-.51,1.18l17.38,7.41,8.73,2.28A.71.71,0,0,0,1393.07,687.88Z"/><path class="cls-10" d="M1386,691.57a.65.65,0,0,0,.13-1.25l-14-5-16.84-6.64a.65.65,0,0,0-.48,1.21l16.86,6.63,14,5.06A.77.77,0,0,0,1386,691.57Z"/><path class="cls-9" d="M1435.37,699.21s-9.93-10.21-27.57-10.94l-12.46-5.82a3.37,3.37,0,0,0-2.91,0h0a3.38,3.38,0,0,0-.86,5.46L1404,699.31Z"/><path class="cls-10" d="M1404.12,700a.64.64,0,0,1-.52-.16l-12.46-11.38a4,4,0,0,1-1.19-3.53,4,4,0,0,1,5.66-3l12.34,5.76a46.38,46.38,0,0,1,13.48,2.61.64.64,0,1,1-.43,1.21,45.36,45.36,0,0,0-13.23-2.53,1.14,1.14,0,0,1-.25-.06L1395.06,683a2.72,2.72,0,0,0-3,4.43l12.45,11.37a.64.64,0,0,1,0,.91A.59.59,0,0,1,1404.12,700Z"/><path class="cls-10" d="M1369.51,691.43l12,2.92,2.68-1.76S1378.94,693.52,1369.51,691.43Z"/><path class="cls-23" d="M1575.31,545.23h0a68.15,68.15,0,0,1,52.51,42.29l36.78,93.38a47.29,47.29,0,0,1-6.23,45.79h0c-1.94,2.57-5.22,5.19-9.15,7.66a68.84,68.84,0,0,1-48.74,9.09l-154-27.52s-2.33-16-9.34-28.54l157.93-6-21.19-46.92S1550.8,586.29,1575.31,545.23Z"/><path class="cls-24" d="M1595,682.1a1.33,1.33,0,0,0,.34-.1,1.19,1.19,0,0,0,.6-1.59L1575,634a1.23,1.23,0,0,0-.63-.62l-7.66-3.17a1.2,1.2,0,0,0-.92,2.22l7.22,3,20.72,46A1.2,1.2,0,0,0,1595,682.1Z"/><path class="cls-24" d="M1623.49,745a82.75,82.75,0,0,1-23.23-.33l-154-27.51a1.2,1.2,0,0,1,.43-2.37l154,27.52c.28,0,28.21,4.94,47.84-8.89a1.2,1.2,0,1,1,1.38,2C1641.58,741.2,1632,743.87,1623.49,745Z"/><path class="cls-24" d="M1604.48,682.1h-.11l-167.16,6.47a1.2,1.2,0,0,1-.09-2.4l167.16-6.47a1.2,1.2,0,0,1,.2,2.39Z"/><rect class="cls-2" x="1340.48" y="764.28" width="168.78" height="15.6" rx="2.4" transform="translate(2849.75 1544.15) rotate(-180)"/><path class="cls-12" d="M1137.84,779.87h222.39a4.8,4.8,0,0,0,4.23-7.06l-69.89-130.94a4.81,4.81,0,0,0-4.23-2.54H1068a4.79,4.79,0,0,0-4.23,7.06l69.89,130.94A4.78,4.78,0,0,0,1137.84,779.87Z"/><ellipse class="cls-5" cx="1214.09" cy="709.6" rx="14.39" ry="14.4"/><rect class="cls-2" x="902.18" y="779.87" width="823.58" height="26.91" rx="5.23" transform="translate(2627.95 1586.65) rotate(-180)"/><rect class="cls-15" x="1457.85" y="779.87" width="269.38" height="26.91" rx="5.46" transform="translate(3185.09 1586.65) rotate(-180)"/><polygon class="cls-15" points="1445.32 1380 1474.73 1380 1507.83 837.51 1478.41 821.25 1445.32 1380"/><polygon class="cls-15" points="1727.24 1380 1697.82 1380 1563.63 829.38 1593.04 813.11 1727.24 1380"/><polygon class="cls-16" points="1713.75 818.23 1513.03 839.31 1472.33 825.21 1472.33 806.78 1713.75 806.78 1713.75 818.23"/><rect class="cls-15" x="916.43" y="806.78" width="555.9" height="18.43" transform="translate(2388.76 1631.99) rotate(-180)"/><polygon class="cls-2" points="1039.42 649.49 1047.05 779.89 1014.72 779.89 1039.42 649.49"/><path class="cls-12" d="M944.8,779.9H1032l7.42-130.41H956.76A4.79,4.79,0,0,0,952,654Z"/></g></g></svg>