<svg width="2340" height="1560" viewBox="0 0 2340 1560" fill="none" xmlns="http://www.w3.org/2000/svg">
<path d="M903.33 228.22V446.72C903.333 448.531 902.978 450.325 902.287 451.999C901.595 453.674 900.581 455.195 899.301 456.477C898.021 457.759 896.501 458.775 894.828 459.469C893.155 460.163 891.361 460.52 889.55 460.52H583.79C580.132 460.517 576.624 459.062 574.038 456.475C571.453 453.887 570 450.378 570 446.72V228.22C570.003 224.563 571.456 221.056 574.041 218.468C576.627 215.881 580.133 214.425 583.79 214.42H889.55C891.361 214.421 893.154 214.779 894.826 215.474C896.499 216.168 898.019 217.185 899.298 218.466C900.578 219.747 901.592 221.268 902.284 222.942C902.976 224.616 903.331 226.409 903.33 228.22Z" fill="#FFD331"/>
<path d="M850.08 460.52H795.6L794.72 452.29L794.31 448.64L793.37 439.97L793.06 437.12L792.41 431.12L792.03 427.47L790.74 415.54L790.47 413.12L790.11 409.93L789.73 406.3L780.43 320.53L780.88 297.05C791.357 300.329 800.754 306.379 808.077 314.559C815.399 322.739 820.376 332.745 822.48 343.52L836.63 416.16L837.32 419.69L838.04 423.36V423.44L839.04 428.44L841.24 434.87L850.08 460.52Z" fill="#65BAAA"/>
<path d="M806.35 460.52H652.1L653.42 448.61L653.71 446.02L653.83 444.99L654.5 438.8L655.74 427.59L656.15 423.94L658.09 406.54L658.48 402.89L669.84 300.7V300.68L698.35 292.44L706.46 290.09L708.88 289.4L733.6 286.95L734.46 286.85L744.51 285.87L747.79 286.88L752.73 288.39L760.07 290.64L780.88 297.05L797.52 360.17L798.6 364.3L801.38 398.72L801.81 404.12L802.1 407.79L802.44 412.08L802.7 415.37L803.49 425.31L803.8 428.98L804.62 439.08L805.12 445.37L805.22 446.5L805.51 450.17L806.35 460.52Z" fill="#65BAAA"/>
<g style="mix-blend-mode:overlay" opacity="0.5">
<g style="mix-blend-mode:overlay" opacity="0.5">
<path d="M802.1 407.78C783.67 411.68 762.94 413.07 742.65 413.07C709.52 413.07 677.47 409.34 658.08 406.54L658.48 402.9C689.59 407.4 753.75 414.39 801.8 404.11L802.1 407.78Z" fill="white"/>
</g>
<g style="mix-blend-mode:overlay" opacity="0.5">
<path d="M803.81 429C785.08 433.1 763.89 434.56 743.13 434.56C708.35 434.56 674.73 430.44 655.74 427.56L656.14 423.92C686.27 428.42 753.8 436.26 803.5 425.27L803.81 429Z" fill="white"/>
</g>
<g style="mix-blend-mode:overlay" opacity="0.5">
<path d="M805.51 450.18C786.51 454.47 764.81 455.99 743.6 455.99C707.05 455.99 671.79 451.44 653.42 448.62L653.82 444.98C682.61 449.43 753.82 458.24 805.22 446.5L805.51 450.18Z" fill="white"/>
</g>
</g>
<path d="M760.07 290.66C759.41 301.46 758.36 319.66 728.86 320.51C704.09 321.21 698.79 301.76 698.34 292.44L708.88 289.44L744.5 285.93L760.07 290.66Z" fill="#E8F1F9"/>
<path d="M801.3 398.71H801.37C801.581 398.692 801.776 398.592 801.912 398.431C802.049 398.269 802.117 398.061 802.1 397.85L797.2 336.07C797.177 335.861 797.075 335.669 796.915 335.534C796.755 335.398 796.55 335.329 796.34 335.34C796.235 335.348 796.133 335.376 796.039 335.423C795.946 335.471 795.862 335.537 795.794 335.617C795.726 335.697 795.675 335.79 795.643 335.89C795.612 335.99 795.6 336.095 795.61 336.2L800.51 397.97C800.525 398.17 800.615 398.357 800.761 398.494C800.907 398.631 801.1 398.708 801.3 398.71V398.71Z" fill="#1B6D5D"/>
<path d="M709.45 278.23C709.45 278.23 684.57 243.17 686.29 215.41C688.01 187.65 707.68 194 707.68 194L732 205.37L727.2 250.72L709.45 278.23Z" fill="#492C1E"/>
<path d="M711.68 257.4L705.85 293.83V293.99C706.652 299.644 709.468 304.818 713.779 308.562C718.091 312.307 723.609 314.369 729.32 314.37V314.37C734.288 314.367 739.13 312.804 743.162 309.901C747.194 306.998 750.212 302.901 751.79 298.19L752.71 295.44V272.5L711.68 257.4Z" fill="#FFD6D2"/>
<path d="M727.34 284.17L752.73 295.44V272.5L727.34 284.17Z" fill="#F49D98"/>
<path d="M780.43 212C780.43 212 776.75 241.38 770.35 265.06C765.35 283.71 744.35 293.2 727.35 284.14C718.27 279.31 710.45 270.98 708.95 256.65C708.95 256.65 699.15 257.43 699.57 241.99C699.99 226.55 713 230.08 715 234.24L715.11 237.15C715.15 238.196 715.483 239.209 716.072 240.074C716.661 240.938 717.482 241.62 718.44 242.04V242.04C718.708 242.156 719 242.207 719.292 242.19C719.583 242.173 719.867 242.089 720.12 241.943C720.374 241.798 720.59 241.595 720.751 241.352C720.912 241.108 721.015 240.83 721.05 240.54L725.89 200.17L780.43 212Z" fill="#FFD6D2"/>
<path d="M744.42 259.76C744.207 259.738 744.009 259.644 743.857 259.492C743.706 259.341 743.612 259.143 743.59 258.93C743.573 258.688 743.65 258.45 743.804 258.263C743.959 258.077 744.179 257.958 744.42 257.93L753.22 257.01L753.78 237.66C753.784 237.534 753.813 237.41 753.866 237.295C753.918 237.181 753.994 237.078 754.087 236.993C754.18 236.908 754.29 236.843 754.409 236.801C754.528 236.759 754.654 236.742 754.78 236.75C755.029 236.773 755.261 236.888 755.43 237.073C755.598 237.258 755.691 237.5 755.69 237.75L755.12 257.92C755.103 258.144 755.01 258.356 754.858 258.521C754.705 258.686 754.502 258.795 754.28 258.83L744.66 259.83L744.42 259.76Z" fill="#F49D98"/>
<path d="M738.761 238.793L738.526 241.011C738.402 242.18 739.25 243.229 740.419 243.353C741.589 243.477 742.638 242.629 742.762 241.46L742.997 239.242C743.121 238.072 742.273 237.023 741.103 236.899C739.934 236.775 738.885 237.623 738.761 238.793Z" fill="#492C1E"/>
<path d="M765.068 247.204L764.823 249.411C764.694 250.576 765.533 251.625 766.697 251.754C767.862 251.884 768.911 251.045 769.04 249.88L769.286 247.672C769.415 246.508 768.576 245.459 767.411 245.329C766.247 245.2 765.198 246.039 765.068 247.204Z" fill="#492C1E"/>
<path d="M746.16 268.35C745.677 269.392 744.991 270.328 744.142 271.101C743.293 271.875 742.298 272.472 741.216 272.857C740.133 273.241 738.985 273.407 737.838 273.342C736.691 273.278 735.568 272.986 734.536 272.482C733.503 271.979 732.581 271.275 731.824 270.411C731.067 269.547 730.49 268.541 730.126 267.451C729.762 266.361 729.62 265.21 729.706 264.065C729.793 262.919 730.107 261.803 730.63 260.78L746.16 268.35Z" fill="white"/>
<path d="M748.71 233.35C748.505 233.325 748.313 233.238 748.16 233.1C741.28 226.68 734.07 230.1 733.76 230.29C733.65 230.344 733.53 230.377 733.407 230.384C733.285 230.392 733.162 230.376 733.045 230.336C732.929 230.296 732.822 230.233 732.73 230.151C732.638 230.07 732.563 229.971 732.51 229.86C732.453 229.751 732.419 229.632 732.409 229.51C732.399 229.388 732.414 229.265 732.452 229.149C732.49 229.032 732.551 228.925 732.632 228.832C732.712 228.74 732.81 228.664 732.92 228.61C735.674 227.43 738.716 227.097 741.66 227.653C744.604 228.209 747.316 229.628 749.45 231.73C749.593 231.865 749.691 232.041 749.729 232.234C749.766 232.427 749.743 232.627 749.661 232.805C749.58 232.984 749.444 233.133 749.273 233.231C749.103 233.328 748.906 233.37 748.71 233.35V233.35Z" fill="#492C1E"/>
<path d="M774.1 238.29C773.896 238.272 773.705 238.183 773.56 238.04C766.67 231.62 759.46 235.04 759.16 235.23C758.935 235.326 758.682 235.337 758.45 235.259C758.218 235.182 758.022 235.022 757.9 234.81C757.844 234.7 757.81 234.58 757.8 234.456C757.791 234.333 757.806 234.209 757.845 234.092C757.884 233.974 757.947 233.866 758.028 233.773C758.11 233.68 758.209 233.604 758.32 233.55C761.072 232.37 764.113 232.037 767.055 232.592C769.998 233.148 772.708 234.568 774.84 236.67C774.983 236.805 775.081 236.981 775.119 237.174C775.156 237.367 775.133 237.567 775.051 237.745C774.97 237.924 774.834 238.073 774.663 238.171C774.493 238.268 774.296 238.31 774.1 238.29V238.29Z" fill="#492C1E"/>
<path d="M728.09 210.43C728.09 210.43 753.22 236.25 782.28 231.23C784.714 230.795 787.017 229.814 789.018 228.362C791.019 226.909 792.665 225.023 793.833 222.844C795.001 220.665 795.661 218.25 795.762 215.779C795.864 213.309 795.405 210.848 794.42 208.58C788.2 194.15 774.33 176.23 744.58 183.33C744.58 183.33 719.22 170.93 707.68 194L728.09 210.43Z" fill="#492C1E"/>
<path d="M711.24 248.09C711.047 248.064 710.87 247.97 710.74 247.825C710.61 247.681 710.535 247.494 710.53 247.3C710.53 246.61 710.29 244.45 709.37 243.72C709.212 243.597 709.027 243.514 708.831 243.477C708.634 243.441 708.431 243.452 708.24 243.51C708.039 243.54 707.834 243.493 707.667 243.378C707.5 243.262 707.382 243.088 707.339 242.889C707.296 242.691 707.33 242.483 707.434 242.309C707.538 242.134 707.705 242.006 707.9 241.95C708.323 241.843 708.764 241.834 709.19 241.924C709.617 242.014 710.017 242.201 710.36 242.47C710.665 242.717 710.926 243.015 711.13 243.35C711.26 241.26 711.02 239.09 709.71 238.56C706.94 237.44 705.12 240.41 705.04 240.56C704.987 240.65 704.916 240.728 704.832 240.79C704.748 240.852 704.653 240.897 704.551 240.922C704.45 240.947 704.345 240.952 704.241 240.936C704.138 240.921 704.039 240.884 703.95 240.83C703.86 240.776 703.782 240.704 703.719 240.619C703.657 240.534 703.612 240.438 703.587 240.336C703.562 240.234 703.557 240.128 703.573 240.024C703.589 239.92 703.625 239.82 703.68 239.73C704.57 238.25 707.1 235.8 710.3 237.09C714.3 238.69 712.3 246.62 712.1 247.52C712.049 247.702 711.934 247.86 711.776 247.965C711.618 248.069 711.428 248.114 711.24 248.09V248.09Z" fill="#F49D98"/>
<path d="M841.19 435.05C840.14 438.47 839.08 441.36 838.12 443.73C837.222 445.939 835.577 447.763 833.471 448.884C831.366 450.004 828.934 450.349 826.6 449.86L801.92 444.7C798.911 444.063 796.141 442.598 793.92 440.47L791.64 438.29L786.7 437.29L790.84 415.13L864.35 416.82C864.677 416.827 864.998 416.905 865.293 417.046C865.587 417.188 865.848 417.392 866.057 417.643C866.267 417.894 866.42 418.187 866.507 418.502C866.593 418.817 866.611 419.147 866.56 419.47C866.481 419.993 866.222 420.472 865.828 420.824C865.433 421.177 864.929 421.38 864.4 421.4L844.18 423.54C843.95 424.7 844.27 423.15 844.18 423.54C843.35 427.54 842.42 431.07 841.48 434.22C841.37 434.48 841.28 434.77 841.19 435.05Z" fill="#FFD6D2"/>
<path d="M796.41 415.21L810.18 408.1C812.496 406.901 815.142 406.497 817.71 406.95L820.59 407.46C823.129 407.908 825.453 409.172 827.21 411.06L831.78 415.95L827.14 415.86L821.08 415.73L806.08 429.04L796.41 415.21Z" fill="#FFD6D2"/>
<path d="M834.29 446.17C834.158 446.063 834.062 445.919 834.014 445.757C833.966 445.594 833.968 445.421 834.02 445.26C837.6 434.13 836.18 420.67 836.17 420.53C836.146 420.313 836.21 420.094 836.347 419.924C836.483 419.753 836.683 419.644 836.9 419.62C837.118 419.596 837.336 419.66 837.506 419.797C837.677 419.933 837.786 420.133 837.81 420.35C837.87 420.91 839.29 434.29 835.59 445.77C835.521 445.968 835.38 446.134 835.194 446.232C835.009 446.33 834.793 446.355 834.59 446.3C834.484 446.273 834.383 446.229 834.29 446.17V446.17Z" fill="#F49D98"/>
<path d="M821.08 415.73L815.53 415.61L818.19 412.84L828 415.87L821.08 415.73Z" fill="#F49D98"/>
<path d="M828.08 450.06C827.583 450.027 827.088 449.96 826.6 449.86L801.92 444.7C798.911 444.064 796.14 442.599 793.92 440.47L791.63 438.29L786.69 437.29L790.83 415.13C790.83 415.13 792.63 441.9 828.08 450.06Z" fill="#F49D98"/>
<path d="M629.58 410.51C629.495 413.411 629.756 416.311 630.36 419.15V419.15C630.818 421.336 631.488 423.473 632.36 425.53C634.757 431.342 638.61 436.44 643.547 440.333C648.484 444.226 654.339 446.784 660.55 447.76C687.63 452.03 731.24 454.9 784.25 443.87C785.84 443.54 787.44 443.21 789.05 442.87C790.061 442.64 790.975 442.102 791.667 441.33C792.358 440.558 792.793 439.59 792.91 438.56L792.96 438.18L795.79 413.6L788.66 412.94L681.38 402.94L693 376.67C693 376.67 697 324.09 669.81 300.67L666.55 301.77C659.697 304.077 653.592 308.187 648.877 313.668C644.161 319.15 641.008 325.8 639.75 332.92C636.77 349.9 630.54 378.7 629.58 410.51Z" fill="#65BAAA"/>
<path d="M632.34 425.56C634.737 431.372 638.59 436.47 643.527 440.363C648.464 444.256 654.319 446.814 660.53 447.79C687.61 452.06 731.22 454.93 784.23 443.9C785.82 443.57 787.42 443.24 789.03 442.9C790.041 442.67 790.955 442.132 791.647 441.36C792.338 440.588 792.773 439.62 792.89 438.59L792.94 438.21C668.26 454.29 639.08 436.08 632.34 425.56Z" fill="#3E9E8B"/>
<path d="M784.23 443.9C785.82 443.57 787.42 443.24 789.03 442.9C790.041 442.67 790.955 442.132 791.647 441.36C792.338 440.588 792.773 439.62 792.89 438.59L795.77 413.59L788.64 412.93L784.23 443.9Z" fill="#E8F1F9"/>
<path d="M681.37 402.91L667.29 402.08L683.58 397.91L681.37 402.91Z" fill="#3E9E8B"/>
<path d="M739.7 408.78C739.898 408.768 740.084 408.684 740.223 408.543C740.362 408.402 740.443 408.214 740.452 408.017C740.461 407.819 740.396 407.625 740.27 407.472C740.144 407.319 739.966 407.219 739.77 407.19L682.55 402.19L693.75 377C693.834 376.805 693.839 376.584 693.762 376.386C693.685 376.188 693.534 376.028 693.34 375.94C693.244 375.897 693.141 375.874 693.036 375.871C692.931 375.868 692.827 375.887 692.729 375.925C692.631 375.963 692.542 376.02 692.467 376.093C692.391 376.166 692.331 376.254 692.29 376.35L680.63 402.58C680.574 402.693 680.544 402.818 680.544 402.945C680.544 403.072 680.574 403.197 680.63 403.31C680.694 403.42 680.784 403.513 680.892 403.581C681 403.649 681.123 403.69 681.25 403.7L739.58 408.78H739.7Z" fill="#1B6D5D"/>
<path d="M926.94 185V240.86C926.94 242.186 926.413 243.458 925.476 244.396C924.538 245.333 923.266 245.86 921.94 245.86H852.15C852.061 245.861 851.974 245.879 851.893 245.916C851.812 245.952 851.74 246.004 851.68 246.07L833.92 265C833.616 265.323 833.222 265.547 832.79 265.643C832.357 265.74 831.905 265.703 831.493 265.539C831.081 265.376 830.728 265.091 830.479 264.724C830.231 264.357 830.099 263.923 830.1 263.48V246.55C830.1 246.379 830.033 246.215 829.913 246.094C829.793 245.972 829.631 245.903 829.46 245.9H811.2C809.874 245.9 808.602 245.373 807.664 244.436C806.727 243.498 806.2 242.226 806.2 240.9V185C806.2 183.674 806.727 182.402 807.664 181.464C808.602 180.527 809.874 180 811.2 180H921.92C922.578 179.997 923.231 180.125 923.84 180.375C924.448 180.625 925.002 180.993 925.468 181.457C925.935 181.922 926.305 182.474 926.557 183.082C926.81 183.69 926.94 184.342 926.94 185Z" fill="#0670ED"/>
<path d="M855.47 235.31C854.547 235.357 853.635 235.093 852.88 234.56C852.58 234.364 852.332 234.097 852.158 233.784C851.983 233.47 851.888 233.119 851.88 232.76V192.33C851.855 191.924 851.948 191.52 852.146 191.166C852.345 190.811 852.641 190.521 853 190.33C853.735 189.894 854.575 189.666 855.43 189.67H867.52C869.555 189.666 871.578 189.973 873.52 190.58C875.387 191.147 877.026 192.292 878.2 193.85C879.4 195.43 880.01 197.7 880.01 200.65C880.091 202.849 879.594 205.032 878.57 206.98C877.719 208.573 876.361 209.837 874.71 210.57C875.937 210.992 877.076 211.636 878.07 212.47C879.067 213.336 879.839 214.43 880.32 215.66C880.915 217.285 881.19 219.01 881.13 220.74V222.05C881.255 224.735 880.687 227.408 879.48 229.81C878.476 231.653 876.9 233.12 874.99 233.99C872.997 234.868 870.838 235.304 868.66 235.27L855.47 235.31ZM860 207.43H867C867.701 207.487 868.407 207.382 869.061 207.121C869.715 206.861 870.3 206.453 870.77 205.93C871.616 204.822 872.044 203.452 871.98 202.06C872.015 201.08 871.801 200.106 871.36 199.23C870.964 198.481 870.36 197.863 869.62 197.45C868.796 197.013 867.873 196.796 866.94 196.82H860V207.43ZM860 228.2H867C867.819 228.246 868.639 228.127 869.41 227.848C870.182 227.57 870.889 227.138 871.49 226.58C872.57 225.5 873.11 223.773 873.11 221.4V220.4C873.11 217.947 872.57 216.233 871.49 215.26C870.233 214.221 868.629 213.695 867 213.79H860V228.2Z" fill="white"/>
<path d="M889.54 519.62H583.81C576.188 519.62 570.01 525.798 570.01 533.42V751.91C570.01 759.532 576.188 765.71 583.81 765.71H889.54C897.161 765.71 903.34 759.532 903.34 751.91V533.42C903.34 525.798 897.161 519.62 889.54 519.62Z" fill="#FFD331"/>
<path d="M888.37 499.55V555.4C888.37 556.726 887.843 557.998 886.906 558.936C885.968 559.873 884.696 560.4 883.37 560.4H813.59C813.502 560.399 813.415 560.416 813.334 560.45C813.253 560.485 813.18 560.536 813.12 560.6L795.36 579.5C795.057 579.822 794.664 580.046 794.232 580.143C793.8 580.239 793.349 580.204 792.938 580.041C792.526 579.879 792.173 579.596 791.924 579.23C791.674 578.865 791.541 578.433 791.54 577.99V561.07C791.537 560.899 791.468 560.737 791.346 560.617C791.225 560.497 791.061 560.43 790.89 560.43H772.64C771.314 560.43 770.042 559.903 769.104 558.965C768.167 558.028 767.64 556.756 767.64 555.43V499.55C767.64 498.224 768.167 496.952 769.104 496.014C770.042 495.077 771.314 494.55 772.64 494.55H883.35C884.008 494.547 884.661 494.675 885.27 494.925C885.878 495.175 886.432 495.543 886.898 496.007C887.365 496.472 887.735 497.024 887.987 497.632C888.24 498.24 888.37 498.892 888.37 499.55V499.55Z" fill="#0670ED"/>
<path d="M748.54 552.66C748.54 552.66 752 501 722.17 495.6C692.34 490.2 661.39 505.6 652.5 528.6C643.61 551.6 643 560.2 643 560.2C643 560.2 631.2 569.03 629.87 576.66C628.54 584.29 633.53 591.74 637.69 597.46C641.85 603.18 625.35 614.93 627.06 627.08C628.77 639.23 636.97 648.58 637.77 656.94C638.57 665.3 642.77 689.94 673.54 687.53C673.54 687.53 684.41 708.28 701.47 708.4C718.53 708.52 740.14 701.05 744.32 684.72C744.32 684.72 771.71 670.99 775.32 648.05C777.67 633.24 771.54 617.61 766.89 608.38C765.682 605.956 765.067 603.279 765.095 600.571C765.123 597.862 765.793 595.199 767.05 592.8C769.34 588.35 771.4 582.37 770.49 576.23C768.73 564 755.84 554.08 748.54 552.66Z" fill="#492C1E"/>
<path d="M753.44 618.67L793.72 680L838.55 605.63L855.55 615.36L826.19 708.4C824.038 714.651 819.851 719.999 814.3 723.588C808.748 727.178 802.153 728.802 795.57 728.2V728.2C791.602 727.839 787.748 726.678 784.24 724.788C780.732 722.897 777.643 720.316 775.16 717.2L736.27 668.32C736.27 668.32 728.06 629.16 753.44 618.67Z" fill="#FFD6D2"/>
<path d="M793.72 679.97L790.21 692.44V674.62L793.72 679.97Z" fill="#F49D98"/>
<path d="M744.59 639.3C744.59 639.3 766.38 672.85 775.92 718.13L736.27 668.29L744.59 639.3Z" fill="#F49D98"/>
<path d="M838.55 605.6L854.72 616.6L857.08 613.03L859.51 612.03C861.886 610.994 863.911 609.292 865.34 607.13L877.1 589.31C877.706 588.401 878.128 587.382 878.34 586.31C878.633 584.832 878.56 583.305 878.128 581.862C877.696 580.419 876.917 579.103 875.86 578.03C874.29 576.44 872.34 574.59 869.97 572.56L869.38 572.05C867.27 570.28 864.86 568.37 862.12 566.4L862.04 566.35L861.9 566.25L866.67 549.36C866.76 549.084 866.791 548.791 866.762 548.502C866.733 548.213 866.644 547.933 866.5 547.68C866.332 547.387 866.095 547.14 865.81 546.96C865.581 546.805 865.32 546.704 865.046 546.662C864.773 546.621 864.494 546.64 864.229 546.72C863.964 546.799 863.72 546.936 863.514 547.121C863.309 547.306 863.147 547.535 863.04 547.79L838.55 605.6Z" fill="#FFD6D2"/>
<path d="M849.5 607.32C849.595 607.269 849.675 607.193 849.73 607.1C855.28 598.56 868.12 594.88 868.25 594.84C868.338 594.813 868.42 594.768 868.491 594.709C868.562 594.65 868.62 594.577 868.663 594.496C868.706 594.414 868.732 594.324 868.74 594.233C868.748 594.141 868.738 594.048 868.71 593.96C868.656 593.779 868.535 593.626 868.371 593.533C868.207 593.439 868.013 593.413 867.83 593.46C867.28 593.61 854.37 597.31 848.56 606.28C848.46 606.442 848.426 606.636 848.465 606.822C848.504 607.008 848.613 607.172 848.77 607.28C848.875 607.357 848.999 607.401 849.129 607.408C849.259 607.415 849.388 607.385 849.5 607.32V607.32Z" fill="#F49D98"/>
<path d="M871.82 593C871.998 592.901 872.162 592.78 872.31 592.64L878.59 586.58C878.623 586.547 878.65 586.508 878.668 586.466C878.686 586.423 878.695 586.377 878.695 586.33C878.695 586.283 878.686 586.237 878.668 586.194C878.65 586.151 878.623 586.113 878.59 586.08C878.558 586.047 878.52 586.021 878.478 586.003C878.436 585.985 878.391 585.976 878.345 585.976C878.299 585.976 878.254 585.985 878.212 586.003C878.17 586.021 878.132 586.047 878.1 586.08L871.82 592.14C871.521 592.416 871.138 592.585 870.733 592.619C870.327 592.654 869.921 592.552 869.58 592.33C869.184 592.068 868.894 591.674 868.762 591.217C868.63 590.761 868.665 590.273 868.86 589.84L873.36 580.6C873.394 580.521 873.4 580.433 873.378 580.35C873.356 580.266 873.308 580.193 873.24 580.14C873.177 580.087 873.097 580.058 873.015 580.058C872.933 580.058 872.853 580.087 872.79 580.14L865.7 587.6C865.565 587.746 865.406 587.868 865.23 587.96C864.884 588.154 864.49 588.243 864.094 588.219C863.699 588.194 863.319 588.055 863 587.82C862.589 587.525 862.29 587.1 862.15 586.614C862.01 586.127 862.038 585.608 862.23 585.14L866.51 575.2C866.544 575.118 866.548 575.027 866.521 574.942C866.493 574.858 866.436 574.786 866.36 574.74C866.325 574.715 866.286 574.698 866.245 574.688C866.203 574.679 866.16 574.678 866.118 574.685C866.076 574.693 866.036 574.709 866.001 574.732C865.965 574.755 865.934 574.785 865.91 574.82L858.6 584.55C858.309 584.947 857.876 585.216 857.391 585.3C856.906 585.384 856.407 585.276 856 585C855.579 584.737 855.265 584.334 855.113 583.862C854.961 583.39 854.981 582.879 855.17 582.42L862.08 566.35C862.118 566.262 862.12 566.163 862.087 566.074C862.053 565.984 861.986 565.911 861.9 565.87C861.859 565.85 861.814 565.839 861.768 565.836C861.722 565.834 861.677 565.841 861.634 565.857C861.591 565.873 861.552 565.897 861.518 565.929C861.485 565.96 861.458 565.998 861.44 566.04L854.53 582.11C854.273 582.731 854.243 583.422 854.446 584.063C854.649 584.703 855.072 585.251 855.64 585.61C856.189 585.966 856.852 586.103 857.498 585.991C858.143 585.88 858.722 585.53 859.12 585.01L864.64 577.66L861.55 584.84C861.293 585.461 861.251 586.151 861.433 586.798C861.614 587.445 862.007 588.013 862.55 588.41C862.977 588.731 863.489 588.919 864.022 588.953C864.555 588.987 865.086 588.864 865.55 588.6C865.783 588.477 865.992 588.314 866.17 588.12L871.66 582.34L868.19 589.48C867.915 590.076 867.864 590.752 868.048 591.382C868.232 592.013 868.637 592.555 869.19 592.91C869.576 593.169 870.027 593.315 870.492 593.331C870.957 593.347 871.417 593.232 871.82 593V593Z" fill="#F49D98"/>
<path d="M839.07 587.77C838.846 585.54 839.351 583.298 840.51 581.38L841.81 579.27C842.946 577.423 844.673 576.014 846.71 575.27L851.99 573.34L858.75 575.84C859.185 575.995 859.567 576.269 859.852 576.631C860.138 576.993 860.315 577.429 860.364 577.887C860.414 578.346 860.332 578.809 860.13 579.224C859.927 579.638 859.612 579.987 859.22 580.23L857.43 581.23L848.48 581.76L852.22 592.38C852.699 593.598 852.837 594.924 852.618 596.215C852.399 597.505 851.832 598.712 850.978 599.704C850.124 600.696 849.015 601.436 847.771 601.844C846.527 602.252 845.196 602.313 843.92 602.02L840.39 601.19L839.07 587.77Z" fill="#FFD6D2"/>
<path d="M851.77 599.19C851.82 599.161 851.861 599.119 851.89 599.07C852.5 598.059 852.875 596.925 852.99 595.75C853.104 594.575 852.954 593.389 852.55 592.28L849 582.1L857.49 581.6C857.54 581.609 857.59 581.609 857.64 581.6L859.43 580.6C859.885 580.339 860.253 579.949 860.486 579.479C860.719 579.009 860.808 578.48 860.74 577.96C860.687 577.424 860.485 576.914 860.156 576.488C859.827 576.062 859.385 575.737 858.88 575.55C858.837 575.534 858.791 575.528 858.745 575.531C858.699 575.533 858.654 575.545 858.613 575.566C858.572 575.586 858.535 575.615 858.506 575.65C858.476 575.685 858.454 575.726 858.44 575.77C858.411 575.862 858.419 575.961 858.462 576.046C858.505 576.132 858.579 576.198 858.67 576.23C859.033 576.375 859.349 576.616 859.583 576.929C859.818 577.241 859.962 577.611 860 578C860.051 578.395 859.984 578.796 859.806 579.153C859.627 579.509 859.347 579.804 859 580L857.28 581L848.41 581.52C848.357 581.524 848.306 581.54 848.26 581.568C848.215 581.596 848.177 581.634 848.15 581.68C848.128 581.729 848.116 581.781 848.116 581.835C848.116 581.889 848.128 581.941 848.15 581.99L851.89 592.61C852.258 593.618 852.395 594.695 852.291 595.763C852.187 596.831 851.845 597.862 851.29 598.78C851.241 598.863 851.227 598.961 851.249 599.054C851.271 599.148 851.329 599.228 851.41 599.28C851.472 599.302 851.539 599.304 851.603 599.288C851.667 599.272 851.725 599.238 851.77 599.19V599.19Z" fill="#F49D98"/>
<path d="M632.12 652.49C632.45 658.25 633.2 665.05 634.28 672.41C634.284 672.612 634.31 672.814 634.36 673.01C634.36 673.09 634.36 673.2 634.36 673.27C636.57 688.27 639.97 705.76 643.51 722.27C643.7 722.98 643.85 723.73 644 724.44L644.45 726.44L644.56 727C647.77 741.58 650.98 755.15 653.49 765.43H744.16L752.16 715.37L752.35 714.37L757.24 705.37C758.468 703.156 759.434 700.807 760.12 698.37C762.348 690.603 761.807 682.303 758.59 674.89C758.18 673.96 757.73 673.03 757.24 672.13L748.47 655.9L748.62 654.9L749.51 647.9L753.36 618.78V618.7C753.36 618.7 742.57 612.2 722.17 607.41L720.27 606.96C709.534 604.588 698.614 603.139 687.63 602.63C687.63 602.63 684.79 603.63 680.38 605.47C672.17 608.83 658.53 614.89 647.78 622.07C641.69 626.07 636.54 630.48 633.78 634.93C632.85 636.42 632.29 638.85 632.07 642.07C631.819 645.539 631.836 649.023 632.12 652.49V652.49Z" fill="#F4B65B"/>
<path d="M683.62 719.1C683.414 719.108 683.21 719.057 683.033 718.952C682.856 718.848 682.712 718.694 682.62 718.51C682.554 718.384 682.514 718.246 682.501 718.105C682.488 717.963 682.504 717.82 682.547 717.684C682.589 717.549 682.659 717.423 682.75 717.314C682.842 717.205 682.954 717.115 683.08 717.05C704.93 705.64 737.8 712.43 739.19 712.72C739.46 712.792 739.692 712.965 739.838 713.203C739.984 713.44 740.033 713.725 739.976 713.999C739.918 714.272 739.758 714.512 739.528 714.671C739.298 714.829 739.016 714.893 738.74 714.85C738.4 714.78 705.23 707.93 684.08 718.98C683.937 719.053 683.78 719.094 683.62 719.1Z" fill="#CC862B"/>
<path d="M752.41 715.43C752.197 715.431 751.988 715.368 751.81 715.25C751.569 715.091 751.4 714.842 751.342 714.559C751.284 714.276 751.341 713.981 751.5 713.74C755.795 706.849 758.791 699.23 760.34 691.26C762.41 679.26 747.78 656.67 747.63 656.45C747.551 656.331 747.497 656.197 747.47 656.056C747.443 655.916 747.444 655.771 747.472 655.631C747.501 655.491 747.557 655.357 747.637 655.239C747.718 655.12 747.82 655.019 747.94 654.94C748.06 654.861 748.193 654.807 748.334 654.78C748.474 654.753 748.619 654.754 748.759 654.782C748.899 654.811 749.033 654.867 749.151 654.947C749.27 655.028 749.371 655.13 749.45 655.25C750.07 656.25 764.69 678.77 762.45 691.63C760.89 699.923 757.79 707.849 753.31 715C753.205 715.138 753.069 715.249 752.912 715.324C752.756 715.399 752.583 715.435 752.41 715.43Z" fill="#CC862B"/>
<path d="M634.24 672.41C634.24 672.6 634.32 672.83 634.36 673.01C634.4 673.19 634.36 673.2 634.36 673.27C637.2 690.057 640.277 706.39 643.59 722.27C643.702 722.997 643.852 723.718 644.04 724.43C644.15 725.11 644.3 725.82 644.45 726.49L644.56 727.05C644.93 728.88 645.34 730.68 645.75 732.47C648.183 743.723 650.737 754.723 653.41 765.47H656.85C656.1 749.62 655.85 726.63 659.39 708.76C660.465 703.864 660.4 698.787 659.2 693.92V693.92C659.054 693.293 658.854 692.681 658.6 692.09C658.452 691.509 658.241 690.945 657.97 690.41C657.136 688.385 656.029 686.484 654.68 684.76C651.902 681.277 648.428 678.413 644.48 676.35V676.35C641.264 674.615 637.835 673.307 634.28 672.46L634.24 672.41Z" fill="#CC862B"/>
<path d="M685.47 571.4L680.28 606.4C681.77 617.71 698.58 626.11 709.16 626.11C722.25 626.11 722.25 607.95 722.25 607.95V585.95L685.47 571.4Z" fill="#FFD6D2"/>
<path d="M699.75 595.78L722.25 607.93V585.89L699.75 595.78Z" fill="#F49D98"/>
<path d="M733.51 516.73C733.51 516.73 737.57 544.88 737.66 568.43C737.685 572.906 736.684 577.328 734.734 581.357C732.784 585.385 729.936 588.913 726.41 591.67C723.108 594.272 719.267 596.104 715.166 597.031C711.066 597.959 706.81 597.958 702.71 597.03C695.108 595.511 688.319 591.278 683.61 585.12C681.565 582.41 679.915 579.424 678.71 576.25C678.71 576.25 669.84 579.47 666.29 565.07C662.74 550.67 675.67 550.6 678.57 553.94L679.13 555.72C679.266 556.155 679.51 556.549 679.839 556.864C680.169 557.179 680.573 557.405 681.014 557.521C681.455 557.637 681.918 557.639 682.36 557.527C682.802 557.415 683.208 557.192 683.54 556.88V556.88C684.077 556.205 684.465 555.424 684.677 554.587C684.889 553.751 684.921 552.879 684.77 552.03L683.12 540.31C683.12 540.41 683.66 541.31 689.41 543C695.41 544.73 704.94 528.4 705.49 527.47C705.49 527.87 705.62 530.27 712.37 531.96C719.75 533.81 733.51 516.73 733.51 516.73Z" fill="#FFD6D2"/>
<path d="M712.31 570.08C712.104 570.119 711.891 570.085 711.708 569.982C711.525 569.88 711.384 569.716 711.31 569.52C711.225 569.297 711.23 569.049 711.326 568.831C711.421 568.612 711.599 568.439 711.82 568.35L719.73 565.27L715.33 547.21C715.302 547.095 715.296 546.976 715.314 546.859C715.332 546.742 715.373 546.63 715.434 546.528C715.496 546.427 715.576 546.339 715.672 546.269C715.767 546.199 715.875 546.148 715.99 546.12C716.105 546.092 716.224 546.086 716.341 546.104C716.458 546.122 716.57 546.163 716.672 546.224C716.773 546.286 716.861 546.366 716.931 546.462C717.001 546.557 717.052 546.665 717.08 546.78L721.67 565.61C721.708 565.815 721.674 566.026 721.574 566.208C721.474 566.391 721.313 566.533 721.12 566.61L712.5 570C712.442 570.038 712.378 570.065 712.31 570.08V570.08Z" fill="#F49D98"/>
<path d="M705.768 551.401C705.584 550.283 704.532 549.526 703.418 549.709C702.303 549.892 701.548 550.946 701.732 552.063L702.077 554.165C702.26 555.282 703.312 556.039 704.427 555.857C705.541 555.674 706.296 554.62 706.113 553.502L705.768 551.401Z" fill="#492C1E"/>
<path d="M728.846 548.945C728.663 547.828 727.611 547.071 726.496 547.253C725.382 547.436 724.627 548.49 724.81 549.608L725.155 551.709C725.339 552.827 726.391 553.584 727.505 553.401C728.62 553.218 729.375 552.164 729.191 551.047L728.846 548.945Z" fill="#492C1E"/>
<path d="M709.64 543.93C709.455 543.989 709.255 543.989 709.07 543.93C700.77 540.37 695.38 545.84 695.15 546.08C694.984 546.252 694.757 546.352 694.518 546.357C694.279 546.361 694.047 546.271 693.875 546.105C693.703 545.939 693.603 545.712 693.598 545.473C693.594 545.234 693.684 545.002 693.85 544.83C695.952 542.872 698.589 541.584 701.426 541.128C704.262 540.672 707.17 541.07 709.78 542.27C709.952 542.347 710.095 542.475 710.191 542.637C710.287 542.799 710.33 542.987 710.314 543.175C710.299 543.362 710.226 543.54 710.105 543.684C709.984 543.829 709.822 543.932 709.64 543.98V543.93Z" fill="#492C1E"/>
<path d="M734.06 539.92C733.875 539.984 733.675 539.984 733.49 539.92C725.15 536.45 719.82 541.98 719.6 542.22C719.43 542.368 719.211 542.448 718.985 542.444C718.759 542.44 718.543 542.352 718.379 542.198C718.214 542.043 718.113 541.833 718.095 541.608C718.076 541.383 718.142 541.159 718.28 540.98C720.364 539.002 722.988 537.686 725.821 537.2C728.653 536.714 731.566 537.08 734.19 538.25C734.408 538.345 734.581 538.521 734.671 538.742C734.761 538.963 734.76 539.21 734.67 539.43C734.613 539.553 734.528 539.662 734.422 539.747C734.317 539.832 734.193 539.891 734.06 539.92V539.92Z" fill="#492C1E"/>
<path d="M713.92 574.54C714.402 574.56 714.872 574.702 715.284 574.955C715.695 575.207 716.036 575.56 716.272 575.981C716.509 576.402 716.634 576.877 716.635 577.36C716.636 577.843 716.514 578.318 716.28 578.74C715.488 580.067 714.353 581.157 712.994 581.896C711.636 582.634 710.104 582.993 708.559 582.936C707.014 582.879 705.513 582.407 704.213 581.57C702.913 580.733 701.862 579.562 701.17 578.18C700.948 577.735 700.846 577.239 700.874 576.742C700.903 576.246 701.061 575.765 701.333 575.348C701.605 574.932 701.982 574.594 702.425 574.368C702.868 574.142 703.363 574.035 703.86 574.06L713.92 574.54Z" fill="white"/>
<path d="M678.93 568.62C678.725 568.653 678.516 568.608 678.343 568.493C678.17 568.378 678.048 568.202 678 568C677.82 567.3 677.06 565.19 676 564.68C675.813 564.593 675.608 564.553 675.403 564.563C675.197 564.574 674.997 564.634 674.82 564.74C674.624 564.835 674.398 564.849 674.191 564.778C673.985 564.707 673.815 564.556 673.72 564.36C673.625 564.164 673.611 563.938 673.682 563.731C673.753 563.525 673.904 563.355 674.1 563.26C674.497 563.046 674.939 562.927 675.391 562.913C675.842 562.899 676.29 562.991 676.7 563.18C677.071 563.354 677.409 563.591 677.7 563.88C677.32 561.73 676.55 559.61 675.1 559.4C672.04 558.95 670.93 562.4 670.89 562.53C670.815 562.728 670.666 562.889 670.476 562.982C670.285 563.074 670.066 563.089 669.864 563.026C669.662 562.962 669.492 562.823 669.389 562.638C669.286 562.453 669.258 562.235 669.31 562.03C669.85 560.33 671.8 557.24 675.31 557.76C679.68 558.4 679.68 566.85 679.66 567.81C679.659 568.011 679.584 568.205 679.449 568.354C679.315 568.503 679.13 568.598 678.93 568.62V568.62Z" fill="#F49D98"/>
<path d="M614.45 734.1L620.45 765.46H654.36L650.36 722.77L650.25 721.65L649.77 721.87L649.47 721.98L651.04 716.82L651.18 716.26L658.63 692L660.28 686.58L660.84 684.71L665.84 668.11C685 633.24 652.43 621 652.43 621H652.32C651.98 621 651.72 621.08 651.39 621.15C650.733 621.239 650.082 621.366 649.44 621.53C648.896 621.638 648.361 621.788 647.84 621.98C647.648 622.021 647.46 622.082 647.28 622.16C646.707 622.352 646.146 622.579 645.6 622.84C645.293 622.96 644.992 623.097 644.7 623.25C644.14 623.55 643.58 623.85 643.02 624.18C642.559 624.443 642.111 624.73 641.68 625.04C641.483 625.151 641.296 625.278 641.12 625.42C640.461 625.869 639.835 626.368 639.25 626.91C638.701 627.34 638.177 627.801 637.68 628.29C637.567 628.426 637.443 628.554 637.31 628.67C635.393 630.648 633.678 632.812 632.19 635.13C631.89 635.62 631.56 636.13 631.29 636.59C631.02 637.05 630.66 637.68 630.4 638.2C629.87 639.2 629.4 640.11 628.9 641.04C628.4 641.97 628.01 642.91 627.63 643.84C627.25 644.77 626.77 645.9 626.4 646.84C626.25 647.25 626.1 647.63 625.99 648C625.73 648.75 625.47 649.49 625.24 650.17C625.01 650.85 624.76 651.77 624.53 652.45C624.16 653.76 623.9 654.84 623.71 655.59C623.71 655.85 623.6 656.11 623.56 656.3C623.547 656.451 623.524 656.602 623.49 656.75L619.38 692L614.45 734.1Z" fill="#FFD6D2"/>
<path d="M649.67 722.57L638.44 726.29L651.28 716.28L649.67 722.57Z" fill="#F49D98"/>
<path d="M648.81 722.8C648.851 722.824 648.888 722.855 648.92 722.89C649.074 722.994 649.252 723.058 649.437 723.075C649.622 723.093 649.809 723.063 649.98 722.99L650.5 722.78L651.27 720.09L661.58 686.09C661.623 685.954 661.638 685.811 661.625 685.669C661.612 685.527 661.571 685.389 661.504 685.264C661.437 685.138 661.345 685.027 661.235 684.937C661.124 684.847 660.997 684.78 660.86 684.74C660.584 684.658 660.287 684.688 660.033 684.823C659.779 684.957 659.588 685.186 659.5 685.46L648.5 721.68C648.442 721.877 648.44 722.086 648.495 722.284C648.55 722.482 648.659 722.661 648.81 722.8V722.8Z" fill="#CC862B"/>
<path d="M817.61 551.06C816.83 551.054 816.058 550.909 815.33 550.63C814.592 550.377 813.912 549.98 813.33 549.46C813.078 549.245 812.875 548.978 812.736 548.678C812.596 548.378 812.522 548.051 812.52 547.72C812.527 547.512 812.551 547.304 812.59 547.1L824.52 508.19C824.677 507.735 824.932 507.319 825.267 506.974C825.602 506.628 826.01 506.36 826.46 506.19C827.481 505.727 828.59 505.492 829.71 505.5C830.838 505.485 831.954 505.721 832.98 506.19C833.425 506.365 833.827 506.635 834.159 506.98C834.49 507.325 834.743 507.738 834.9 508.19L846.83 547.1C846.894 547.301 846.934 547.509 846.95 547.72C846.943 548.046 846.865 548.367 846.721 548.661C846.578 548.954 846.373 549.213 846.12 549.42C845.539 549.95 844.86 550.362 844.12 550.63C843.389 550.91 842.613 551.055 841.83 551.06C841.245 551.076 840.664 550.96 840.13 550.72C839.887 550.595 839.675 550.417 839.51 550.199C839.346 549.981 839.233 549.728 839.18 549.46L836.83 541.23H822.62L820.33 549.46C820.274 549.734 820.154 549.99 819.98 550.209C819.807 550.428 819.584 550.603 819.33 550.72C818.789 550.959 818.201 551.075 817.61 551.06ZM824.35 534.92H835.11L829.73 515.92L824.35 534.92Z" fill="white"/>
<path d="M766.62 1072.31C766.62 1072.31 680.83 940.67 875.35 944.47C876.459 944.491 877.547 944.769 878.531 945.281C879.514 945.792 880.366 946.525 881.02 947.42C881.673 948.316 882.111 949.351 882.298 950.444C882.486 951.536 882.418 952.658 882.1 953.72C870.94 990.94 824.72 1128.61 766.62 1072.31Z" fill="#5FE65D"/>
<path d="M719.89 1085.66C719.89 1085.66 769.6 983.89 618.72 1004C617.601 1004.15 616.535 1004.57 615.606 1005.21C614.677 1005.85 613.913 1006.7 613.374 1007.69C612.836 1008.69 612.538 1009.79 612.506 1010.92C612.474 1012.05 612.709 1013.17 613.19 1014.19C626 1041.59 669 1121.22 719.89 1085.66Z" fill="#70D66E"/>
<path d="M746.52 1221.88C746.703 1221.89 746.887 1221.89 747.07 1221.88C748.013 1221.73 748.858 1221.22 749.421 1220.45C749.983 1219.68 750.217 1218.71 750.07 1217.77C749.85 1216.36 729.52 1075.62 834.64 982.44C835.301 981.795 835.688 980.92 835.722 979.997C835.756 979.074 835.434 978.174 834.823 977.481C834.212 976.789 833.358 976.358 832.438 976.278C831.518 976.198 830.602 976.474 829.88 977.05C773.35 1027.16 752.72 1090.22 745.38 1134.31C737.38 1182.02 742.73 1217.39 742.96 1218.88C743.102 1219.72 743.538 1220.48 744.19 1221.03C744.842 1221.58 745.667 1221.88 746.52 1221.88V1221.88Z" fill="#1B6D5D"/>
<path d="M764.45 1221.88C765.398 1221.88 766.308 1221.51 766.982 1220.84C767.656 1220.17 768.039 1219.27 768.05 1218.32C768.05 1217.04 767.78 1090.02 654.35 1018.82C653.542 1018.34 652.58 1018.2 651.669 1018.42C650.757 1018.65 649.969 1019.22 649.471 1020.01C648.973 1020.81 648.805 1021.76 649.003 1022.68C649.201 1023.6 649.749 1024.4 650.53 1024.92C760.59 1094 760.86 1217 760.85 1218.25C760.846 1218.72 760.935 1219.19 761.113 1219.63C761.29 1220.07 761.552 1220.47 761.883 1220.8C762.215 1221.14 762.609 1221.41 763.045 1221.59C763.48 1221.78 763.947 1221.88 764.42 1221.88H764.45Z" fill="#1B6D5D"/>
<path d="M636.43 1184L640.84 1209L669.18 1370C669.652 1372.79 671.098 1375.33 673.262 1377.16C675.425 1378.99 678.166 1380 681 1380H794.46C797.277 1380 800.003 1379 802.161 1377.19C804.318 1375.38 805.769 1372.86 806.26 1370.09L834.63 1209.09L839.04 1184.09C839.205 1183.18 839.252 1182.25 839.18 1181.33C839.009 1178.28 837.678 1175.4 835.459 1173.3C833.239 1171.19 830.299 1170.01 827.24 1170H648.24C645.176 1170 642.228 1171.17 640.006 1173.28C637.783 1175.39 636.456 1178.27 636.3 1181.33C636.228 1182.22 636.272 1183.12 636.43 1184Z" fill="#F4B65B"/>
<path d="M636.43 1184L640.84 1209H834.63L839.04 1184C839.205 1183.09 839.252 1182.16 839.18 1181.24H636.29C636.213 1182.16 636.26 1183.09 636.43 1184V1184Z" fill="#95B5E8"/>
<path d="M635.65 1193.6H839.8C846.422 1193.6 851.79 1188.23 851.79 1181.61V1166.51C851.79 1159.89 846.422 1154.52 839.8 1154.52H635.65C629.028 1154.52 623.66 1159.89 623.66 1166.51V1181.61C623.66 1188.23 629.028 1193.6 635.65 1193.6Z" fill="#D67636"/>
<path d="M1540.27 346.12H1679.88C1687.16 346.12 1693.06 340.219 1693.06 332.94V193.18C1693.06 185.901 1687.16 180 1679.88 180L1540.27 180C1532.99 180 1527.09 185.901 1527.09 193.18V332.94C1527.09 340.219 1532.99 346.12 1540.27 346.12Z" fill="#0670ED"/>
<path d="M1298.18 346.12H1437.79C1445.07 346.12 1450.97 340.219 1450.97 332.94V193.18C1450.97 185.901 1445.07 180 1437.79 180L1298.18 180C1290.9 180 1285 185.901 1285 193.18V332.94C1285 340.219 1290.9 346.12 1298.18 346.12Z" fill="#0670ED"/>
<path d="M1051.43 346.12H1191.04C1198.32 346.12 1204.22 340.219 1204.22 332.94V193.18C1204.22 185.901 1198.32 180 1191.04 180L1051.43 180C1044.15 180 1038.25 185.901 1038.25 193.18V332.94C1038.25 340.219 1044.15 346.12 1051.43 346.12Z" fill="#0670ED"/>
<path d="M1098.68 300C1097.23 299.986 1095.79 299.712 1094.43 299.19C1093.06 298.717 1091.81 297.972 1090.74 297C1090.27 296.603 1089.9 296.109 1089.64 295.553C1089.38 294.997 1089.25 294.392 1089.25 293.78C1089.26 293.395 1089.3 293.01 1089.36 292.63L1111.57 220.17C1111.86 219.309 1112.34 218.522 1112.96 217.864C1113.59 217.206 1114.35 216.692 1115.2 216.36C1117.12 215.529 1119.18 215.1 1121.27 215.1C1123.36 215.1 1125.42 215.529 1127.34 216.36C1128.17 216.7 1128.93 217.216 1129.54 217.874C1130.16 218.531 1130.63 219.315 1130.91 220.17L1153.12 292.63C1153.25 293.002 1153.32 293.388 1153.35 293.78C1153.33 294.388 1153.19 294.986 1152.92 295.533C1152.65 296.08 1152.27 296.563 1151.8 296.95C1150.72 297.939 1149.44 298.7 1148.06 299.19C1146.7 299.711 1145.26 299.986 1143.8 300C1142.71 300.029 1141.63 299.814 1140.64 299.37C1140.18 299.135 1139.78 298.8 1139.47 298.389C1139.16 297.979 1138.95 297.504 1138.85 297L1134.48 281.68H1108L1103.75 297C1103.65 297.509 1103.42 297.988 1103.11 298.399C1102.79 298.81 1102.38 299.142 1101.91 299.37C1100.89 299.81 1099.79 300.025 1098.68 300ZM1111.23 269.93H1131.23L1121.23 234.57L1111.23 269.93Z" fill="white"/>
<path d="M1349.12 300C1347.42 300.089 1345.73 299.603 1344.34 298.62C1343.8 298.247 1343.35 297.749 1343.04 297.168C1342.73 296.587 1342.56 295.939 1342.55 295.28V220.63C1342.52 219.89 1342.7 219.157 1343.07 218.514C1343.43 217.872 1343.98 217.347 1344.63 217C1345.99 216.196 1347.54 215.778 1349.12 215.79H1371.44C1375.23 215.773 1378.99 216.336 1382.61 217.46C1386.05 218.498 1389.07 220.599 1391.24 223.46C1393.46 226.38 1394.57 230.563 1394.58 236.01C1394.72 240.073 1393.81 244.105 1391.93 247.71C1390.35 250.649 1387.84 252.979 1384.79 254.33C1387.06 255.117 1389.16 256.306 1391.01 257.84C1392.84 259.44 1394.26 261.457 1395.15 263.72C1396.25 266.724 1396.76 269.913 1396.65 273.11V275.53C1396.65 281.53 1395.63 286.31 1393.6 289.87C1391.74 293.268 1388.83 295.976 1385.31 297.59C1381.63 299.201 1377.65 300.006 1373.63 299.95L1349.12 300ZM1357.52 248.5H1370.41C1373.55 248.5 1375.88 247.58 1377.41 245.74C1378.65 243.95 1379.41 241.866 1379.6 239.695C1379.79 237.523 1379.41 235.34 1378.5 233.36C1377.77 231.972 1376.65 230.827 1375.28 230.07C1373.74 229.264 1372.02 228.867 1370.28 228.92H1357.51L1357.52 248.5ZM1357.52 286.87H1370.41C1373.94 286.87 1376.7 285.87 1378.69 283.87C1380.68 281.87 1381.68 278.683 1381.69 274.31V272.47C1381.69 267.937 1380.69 264.767 1378.69 262.96C1376.69 261.153 1373.93 260.253 1370.41 260.26H1357.52V286.87Z" fill="white"/>
<path d="M1610.94 300.69C1606.4 300.735 1601.9 299.854 1597.71 298.1C1593.66 296.39 1590.26 293.447 1587.98 289.69C1585.56 285.81 1584.35 280.643 1584.35 274.19V242.28C1584.35 235.833 1585.56 230.67 1587.98 226.79C1590.26 223.033 1593.66 220.09 1597.71 218.38C1601.93 216.62 1606.47 215.738 1611.05 215.79C1615.93 215.693 1620.77 216.616 1625.27 218.5C1629.11 220.098 1632.45 222.703 1634.94 226.04C1637.33 229.441 1638.56 233.523 1638.45 237.68C1638.45 240.68 1637.83 242.68 1636.61 243.61C1635.39 244.54 1633.5 245.05 1630.96 245.05C1629.16 245.104 1627.36 244.73 1625.73 243.96C1625.05 243.628 1624.48 243.111 1624.09 242.468C1623.69 241.826 1623.48 241.085 1623.49 240.33C1623.47 239.222 1623.33 238.12 1623.08 237.04C1622.78 235.714 1622.26 234.449 1621.53 233.3C1620.66 231.971 1619.44 230.898 1618.02 230.19C1615.99 229.246 1613.76 228.81 1611.52 228.92C1607.6 228.92 1604.6 230.013 1602.52 232.2C1600.44 234.387 1599.4 237.747 1599.41 242.28V274.19C1599.41 278.803 1600.46 282.183 1602.57 284.33C1604.68 286.477 1607.73 287.553 1611.73 287.56C1613.87 287.661 1616.01 287.224 1617.94 286.29C1619.34 285.569 1620.52 284.471 1621.33 283.12C1622.05 281.88 1622.56 280.528 1622.83 279.12C1623.1 277.74 1623.31 276.43 1623.47 275.2C1623.47 274.424 1623.68 273.662 1624.08 273.001C1624.49 272.34 1625.08 271.806 1625.77 271.46C1627.36 270.758 1629.09 270.416 1630.83 270.46C1633.44 270.46 1635.36 270.96 1636.59 271.96C1637.81 272.96 1638.43 274.91 1638.43 277.83C1638.52 282.127 1637.3 286.349 1634.92 289.93C1632.49 293.446 1629.12 296.202 1625.19 297.88C1620.69 299.808 1615.83 300.765 1610.94 300.69Z" fill="white"/>
<path d="M1157.85 818.23L957.13 839.31L916.43 825.21V806.78H1157.85V818.23Z" fill="#6E99D6"/>
<path d="M889.42 1380H918.84L952.99 824.13L923.57 807.86L889.42 1380Z" fill="#95B5E8"/>
<path d="M1171.34 1380H1141.93L1006.29 823.47L1035.7 807.2L1171.34 1380Z" fill="#95B5E8"/>
<path d="M1242 1379.7H1268.43L1352.8 1198.35L1366.02 1169.91L1597.8 672C1598.54 670.564 1598.99 668.992 1599.11 667.378C1599.23 665.765 1599.03 664.144 1598.51 662.613C1597.98 661.082 1597.16 659.671 1596.08 658.467C1595 657.263 1593.69 656.289 1592.22 655.605C1590.75 654.921 1589.16 654.541 1587.55 654.486C1585.93 654.432 1584.32 654.705 1582.81 655.29C1581.3 655.874 1579.93 656.757 1578.77 657.886C1577.61 659.015 1576.69 660.367 1576.07 661.86L1352.83 1141.44L1339.62 1169.88L1242 1379.7Z" fill="#6E99D6"/>
<path d="M1286.2 1055.01L1339.62 1169.91L1352.83 1198.35L1437.11 1379.7H1463.58L1366.05 1169.91L1352.83 1141.47L1312.64 1055.01H1286.2Z" fill="#6E99D6"/>
<path d="M1276.06 1337.11H1450.75L1457.49 1322.79H1282.8L1276.06 1337.11Z" fill="#95B5E8"/>
<path d="M1218.25 1023.3V1043C1218.25 1049.6 1225.19 1055 1233.76 1055H1607.19C1615.76 1055 1622.7 1049.6 1622.7 1043V1023.3C1622.7 1016.67 1615.76 1011.3 1607.19 1011.3H1233.76C1225.19 1011.3 1218.25 1016.67 1218.25 1023.3Z" fill="#95B5E8"/>
<path d="M1514.29 839.13C1565.38 846.463 1619.54 846.66 1676.76 839.72C1681.64 839.13 1687.35 833.98 1689.96 827.87L1752.84 680.94C1755.93 673.73 1753.49 668.12 1747.65 669.09C1690.79 678.517 1638.05 678.323 1589.44 668.51C1584.44 667.51 1577.22 673.08 1574.13 680.29L1511.26 827.22C1508.64 833.33 1509.94 838.51 1514.29 839.13Z" fill="#95B5E8"/>
<path d="M1457.28 1055.01L1510.69 1169.91L1523.91 1198.35L1608.19 1379.7H1634.65L1537.13 1169.91L1523.91 1141.47L1483.72 1055.01H1457.28Z" fill="#B7CFE2"/>
<path d="M1413.1 1379.7H1439.54L1523.91 1198.35L1537.13 1169.91L1768.88 672C1769.62 670.564 1770.07 668.992 1770.19 667.378C1770.31 665.765 1770.11 664.144 1769.59 662.613C1769.06 661.082 1768.24 659.671 1767.16 658.467C1766.08 657.263 1764.77 656.289 1763.3 655.605C1761.83 654.921 1760.24 654.541 1758.63 654.486C1757.01 654.432 1755.4 654.705 1753.89 655.29C1752.38 655.874 1751.01 656.757 1749.85 657.886C1748.69 659.015 1747.77 660.367 1747.15 661.86L1523.91 1141.44L1510.69 1169.88L1413.1 1379.7Z" fill="#B7CFE2"/>
<path d="M1347.05 1262.17L1349.73 1337.11L1300.48 1330.39L1292.2 1253.33L1347.05 1262.17Z" fill="#FFD6D2"/>
<path d="M1223.14 1351.59C1221.31 1353.16 1220.01 1355.25 1219.43 1357.59C1219.27 1358.21 1219.18 1358.84 1219.15 1359.48C1218.93 1362.06 1219.59 1364.63 1221.02 1366.78C1222.44 1368.94 1224.55 1370.55 1227.01 1371.36L1234.43 1373.79C1246.49 1377.74 1259.09 1379.75 1271.78 1379.73L1353.32 1379.59C1355.13 1379.59 1356.92 1379.17 1358.55 1378.38C1360.18 1377.58 1361.61 1376.43 1362.73 1375.01C1363.85 1373.58 1364.63 1371.92 1365.02 1370.15C1365.4 1368.38 1365.38 1366.54 1364.96 1364.78L1363.78 1359.78L1359.17 1340.56C1357.64 1334.21 1354.05 1328.54 1348.95 1324.46C1334.14 1343.46 1309.95 1326.58 1309.95 1326.58C1310.3 1315.65 1298.2 1310.43 1298.2 1310.43L1247.12 1342.16L1226.75 1349.5C1225.43 1349.97 1224.2 1350.68 1223.14 1351.59Z" fill="#D67636"/>
<path d="M1219.15 1359.44C1218.93 1362.02 1219.59 1364.59 1221.02 1366.74C1222.44 1368.9 1224.55 1370.51 1227.01 1371.32L1234.43 1373.75C1246.49 1377.7 1259.09 1379.71 1271.78 1379.69L1353.32 1379.55C1355.13 1379.55 1356.92 1379.13 1358.55 1378.34C1360.18 1377.54 1361.61 1376.39 1362.73 1374.97C1363.85 1373.54 1364.63 1371.88 1365.02 1370.11C1365.4 1368.34 1365.38 1366.5 1364.96 1364.74L1363.78 1359.74L1357 1358.87C1353.13 1358.38 1349.19 1358.98 1345.64 1360.61C1342.09 1362.24 1339.07 1364.83 1336.92 1368.09V1368.09C1336.13 1369.28 1335.07 1370.26 1333.82 1370.95C1332.58 1371.65 1331.18 1372.04 1329.76 1372.09L1274.4 1374.35C1272.85 1374.41 1271.3 1374.12 1269.87 1373.5C1268.45 1372.88 1267.19 1371.94 1266.18 1370.75L1265.73 1370.22C1264.81 1369.14 1263.68 1368.26 1262.41 1367.65C1261.14 1367.03 1259.75 1366.68 1258.34 1366.62C1250.29 1366.43 1232.78 1365.13 1219.15 1359.44Z" fill="#C15316"/>
<path d="M1297.31 1300.88L1348.78 1310.44L1347.05 1262.17L1292.2 1253.33L1297.31 1300.88Z" fill="#F49D98"/>
<path d="M1509.32 848.68L1503.32 1011.31H1345.76L1182.21 952.73L1196.6 853.47C1198.45 852.56 1374.89 870.3 1374.89 870.3L1379.21 848.69L1509.32 848.68Z" fill="#5A3C2A"/>
<g style="mix-blend-mode:overlay" opacity="0.3">
<path d="M1450 917.63L1503.3 985.82L1281.13 988.14L1182.24 952.72L1177.04 940.32C1176.04 939.166 1175.29 937.823 1174.82 936.371C1174.36 934.918 1174.19 933.387 1174.33 931.868C1174.47 930.35 1174.92 928.875 1175.64 927.533C1176.37 926.192 1177.36 925.01 1178.55 924.06L1371.84 908.31C1377.16 904.565 1383.31 902.145 1389.75 901.253C1396.2 900.361 1402.77 901.021 1408.91 903.18L1450 917.63Z" fill="black"/>
</g>
<path d="M1595.87 848.68L1605.66 925.01C1607.05 935.79 1606.12 946.742 1602.95 957.137C1599.77 967.532 1594.42 977.131 1587.24 985.296C1580.07 993.46 1571.23 1000 1561.33 1004.49C1551.43 1008.97 1540.69 1011.29 1529.82 1011.3L1382.31 1022.15L1360.11 1276.74C1360.26 1277.6 1360.21 1278.48 1359.98 1279.32C1359.75 1280.16 1359.34 1280.94 1358.78 1281.61C1358.22 1282.27 1357.52 1282.81 1356.73 1283.18C1355.94 1283.55 1355.08 1283.74 1354.21 1283.74H1286.92C1285.6 1283.74 1284.31 1283.3 1283.27 1282.49C1282.22 1281.69 1281.47 1280.56 1281.13 1279.28L1281.03 1027.88C1276.13 1009.47 1278.24 989.899 1286.95 972.955C1295.65 956.011 1310.33 942.9 1328.15 936.16L1487.15 876.1L1492.64 848.63L1595.87 848.68Z" fill="#5A3C2A"/>
<path d="M1279.24 1024.55C1278.63 1024.55 1278.03 1024.33 1277.57 1023.93C1277.1 1023.52 1276.8 1022.97 1276.71 1022.36C1274.18 1004.44 1277.8 986.196 1286.98 970.602C1296.16 955.008 1310.36 942.986 1327.25 936.5L1403.25 907.77C1403.89 907.53 1404.59 907.553 1405.21 907.833C1405.83 908.113 1406.32 908.628 1406.56 909.265C1406.8 909.902 1406.77 910.607 1406.49 911.227C1406.21 911.847 1405.7 912.33 1405.06 912.57L1329.06 941.3C1313.25 947.362 1299.97 958.606 1291.38 973.196C1282.79 987.786 1279.41 1004.86 1281.78 1021.62C1281.83 1021.95 1281.81 1022.29 1281.73 1022.62C1281.65 1022.95 1281.5 1023.25 1281.3 1023.52C1281.1 1023.79 1280.85 1024.02 1280.56 1024.19C1280.27 1024.37 1279.95 1024.48 1279.62 1024.53C1279.49 1024.55 1279.37 1024.55 1279.24 1024.55Z" fill="#2B160E"/>
<g style="mix-blend-mode:overlay" opacity="0.3">
<path d="M1456.6 848.68L1603.42 907.61L1595.87 848.68H1456.6Z" fill="black"/>
</g>
<path d="M1489.7 916.39C1483.81 931.242 1478.85 946.445 1474.84 961.91C1472.67 970.293 1471 978.798 1469.84 987.38L1182.21 952.72C1176.7 952.059 1171.41 950.162 1166.73 947.17C1162.06 944.178 1158.12 940.168 1155.21 935.44L1153.12 932.06C1147.95 923.61 1145.95 913.596 1147.49 903.81L1150.15 887.06C1151.14 880.826 1153.54 874.901 1157.16 869.732C1160.79 864.563 1165.54 860.288 1171.06 857.23C1178.83 852.934 1187.89 851.595 1196.57 853.46L1489.7 916.39Z" fill="#5A3C2A"/>
<g style="mix-blend-mode:overlay" opacity="0.3">
<path d="M1474.84 961.91C1472.67 970.293 1471 978.798 1469.84 987.38L1182.21 952.72C1176.7 952.059 1171.41 950.162 1166.73 947.17C1162.06 944.178 1158.12 940.168 1155.21 935.44L1153.12 932.06C1147.95 923.61 1145.95 913.596 1147.49 903.81L1150.15 887.06C1151.19 880.448 1153.82 874.189 1157.82 868.82C1157.82 868.82 1154.29 901.33 1158.11 918.41C1158.48 920.008 1159.34 921.451 1160.57 922.539C1161.8 923.627 1163.34 924.305 1164.97 924.48C1171.47 925.27 1182.62 927.97 1187.77 937.12C1188.41 938.196 1189.31 939.099 1190.38 939.749C1191.45 940.4 1192.66 940.778 1193.91 940.85L1474.84 961.91Z" fill="black"/>
</g>
<path d="M1433.91 983.56H1433.76L1182.07 953.92C1176.47 953.002 1171.11 950.95 1166.32 947.889C1161.54 944.829 1157.43 940.824 1154.25 936.12C1154.07 935.855 1154.01 935.53 1154.07 935.217C1154.13 934.903 1154.31 934.628 1154.58 934.45C1154.85 934.272 1155.17 934.207 1155.48 934.269C1155.8 934.331 1156.07 934.515 1156.25 934.78C1159.27 939.173 1163.13 942.918 1167.62 945.796C1172.1 948.675 1177.12 950.627 1182.37 951.54L1434.07 981.18C1434.37 981.219 1434.65 981.371 1434.84 981.605C1435.03 981.838 1435.13 982.137 1435.11 982.44C1435.1 982.743 1434.96 983.029 1434.74 983.238C1434.52 983.448 1434.23 983.566 1433.93 983.57L1433.91 983.56Z" fill="#2B160E"/>
<path d="M1467.91 912.91C1467.83 912.92 1467.74 912.92 1467.66 912.91L1234.24 862.8C1234.09 862.767 1233.94 862.703 1233.81 862.614C1233.68 862.524 1233.57 862.409 1233.48 862.276C1233.4 862.143 1233.34 861.995 1233.31 861.839C1233.28 861.684 1233.29 861.524 1233.32 861.37C1233.39 861.063 1233.58 860.795 1233.84 860.624C1234.11 860.452 1234.43 860.39 1234.74 860.45L1468.16 910.56C1468.46 910.614 1468.72 910.779 1468.9 911.021C1469.09 911.263 1469.17 911.565 1469.14 911.866C1469.11 912.167 1468.96 912.445 1468.73 912.644C1468.51 912.843 1468.21 912.949 1467.91 912.94V912.91Z" fill="#2B160E"/>
<path d="M1473.07 917.83L1418.25 934.41C1402.25 938.61 1391.58 951.21 1392.68 964.69C1393.44 973.85 1399.56 982.02 1409.15 986.69C1424.48 993.882 1441.5 996.689 1458.32 994.8L1543.32 985.8C1560.16 984.01 1573.32 972.53 1574.2 958.8L1574.94 947.63C1575.94 932.93 1562.65 920.57 1544.67 919.41L1514.49 914.22L1473.07 917.83Z" fill="#D67636"/>
<path d="M1567.39 947.2L1566.65 958.39C1566.43 961.209 1565.53 963.933 1564.03 966.33C1563.53 967.128 1562.97 967.896 1562.38 968.63C1560.1 971.372 1557.27 973.606 1554.08 975.19C1553.52 975.507 1552.93 975.777 1552.33 976C1549.61 977.232 1546.73 978.057 1543.77 978.45C1543.39 978.52 1542.98 978.57 1542.57 978.62L1541.97 978.69L1533.29 979.6L1531.52 979.79L1522.84 980.71L1521.06 980.9L1512.38 981.81L1510.59 982L1501.91 982.91L1500.13 983.11L1491.45 984.04L1489.65 984.21L1480.97 985.15L1479.18 985.34L1470.52 986.25L1468.72 986.44L1460.04 987.35L1458.24 987.55L1457.55 987.62L1455.46 987.81C1453.46 987.98 1451.46 988.07 1449.54 988.07C1448.94 988.07 1448.36 988.07 1447.77 988.07C1444.77 988.07 1441.89 987.88 1438.99 987.56L1437.17 987.35C1434.17 986.96 1431.17 986.41 1428.32 985.74C1427.7 985.6 1427.07 985.43 1426.47 985.26C1423.43 984.475 1420.44 983.496 1417.53 982.33C1416.91 982.09 1416.28 981.83 1415.68 981.56C1414.68 981.13 1413.68 980.68 1412.68 980.2C1410.47 979.129 1408.42 977.756 1406.59 976.12C1405.9 975.498 1405.26 974.83 1404.67 974.12C1402.08 971.271 1400.53 967.63 1400.27 963.789C1400.01 959.948 1401.06 956.131 1403.24 952.96C1403.73 952.175 1404.27 951.426 1404.87 950.72C1407.16 947.974 1409.98 945.716 1413.16 944.08C1413.72 943.76 1414.3 943.47 1414.89 943.21C1416.62 942.43 1418.41 941.797 1420.24 941.32L1423.5 940.93L1425.27 940.72L1433.93 939.72L1435.72 939.51L1444.4 938.51L1446.18 938.3L1454.86 937.3L1456.66 937.08L1465.31 936.08L1467.09 935.86L1469.29 935.6C1471.46 935.342 1473.65 935.309 1475.82 935.5C1476.44 935.55 1477.04 935.62 1477.64 935.72C1480.73 936.157 1483.73 937.047 1486.56 938.36C1486.89 938.5 1487.23 938.65 1487.56 938.82C1487.89 938.99 1488.12 939.08 1488.4 939.2C1490.82 940.287 1493.45 940.853 1496.1 940.86C1496.48 940.885 1496.87 940.885 1497.25 940.86C1497.85 940.86 1498.45 940.76 1499.05 940.67C1502.13 940.185 1505.05 938.949 1507.54 937.07C1507.92 936.78 1508.3 936.47 1508.66 936.15L1509.24 935.62C1511.7 933.442 1514.55 931.746 1517.64 930.62C1518.21 930.4 1518.79 930.21 1519.39 930.04C1520.78 929.631 1522.19 929.343 1523.63 929.18L1528.02 928.65L1529.82 928.43L1538.5 927.43L1540.29 927.22L1544.13 926.76C1545.78 926.867 1547.41 927.101 1549.02 927.46C1549.65 927.58 1550.27 927.75 1550.87 927.91C1554.12 928.823 1557.17 930.328 1559.87 932.35C1560.54 932.866 1561.18 933.421 1561.79 934.01C1563.63 935.665 1565.09 937.704 1566.05 939.983C1567.02 942.262 1567.48 944.726 1567.39 947.2V947.2Z" fill="#C15316"/>
<g style="mix-blend-mode:overlay" opacity="0.3">
<g style="mix-blend-mode:overlay" opacity="0.3">
<path d="M1406.57 976.15C1405.88 975.528 1405.24 974.86 1404.65 974.15L1403.22 953C1403.71 952.215 1404.25 951.466 1404.85 950.76L1406.57 976.15Z" fill="black"/>
</g>
<g style="mix-blend-mode:overlay" opacity="0.3">
<path d="M1417.53 982.36C1416.91 982.12 1416.28 981.86 1415.68 981.59L1413.14 944.11C1413.7 943.79 1414.28 943.5 1414.87 943.24L1417.53 982.36Z" fill="black"/>
</g>
<g style="mix-blend-mode:overlay" opacity="0.3">
<path d="M1428.32 985.77C1427.7 985.63 1427.07 985.46 1426.47 985.29L1423.47 940.96L1425.24 940.75L1428.32 985.77Z" fill="black"/>
</g>
<g style="mix-blend-mode:overlay" opacity="0.3">
<path d="M1439 987.59L1437.18 987.38L1433.92 939.71L1435.71 939.5L1439 987.59Z" fill="black"/>
</g>
<g style="mix-blend-mode:overlay" opacity="0.3">
<path d="M1449.54 988.07C1448.94 988.07 1448.36 988.07 1447.77 988.07L1444.38 938.43L1446.16 938.22L1449.54 988.07Z" fill="black"/>
</g>
<g style="mix-blend-mode:overlay" opacity="0.3">
<path d="M1460.04 987.35L1458.24 987.54L1454.84 937.22L1456.64 937L1460.04 987.35Z" fill="black"/>
</g>
<g style="mix-blend-mode:overlay" opacity="0.3">
<path d="M1470.52 986.25L1468.72 986.44L1465.29 935.97L1467.07 935.75L1470.52 986.25Z" fill="black"/>
</g>
<g style="mix-blend-mode:overlay" opacity="0.3">
<path d="M1481 985.15L1479.21 985.34L1475.83 935.34C1476.45 935.39 1477.05 935.46 1477.65 935.56L1481 985.15Z" fill="black"/>
</g>
<g style="mix-blend-mode:overlay" opacity="0.3">
<path d="M1491.45 984L1489.65 984.17L1486.54 938.17C1486.87 938.31 1487.21 938.46 1487.54 938.63C1487.87 938.8 1488.1 938.89 1488.38 939.01L1491.45 984Z" fill="black"/>
</g>
<g style="mix-blend-mode:overlay" opacity="0.3">
<path d="M1501.91 982.91L1500.13 983.11L1497.23 940.7C1497.83 940.7 1498.43 940.6 1499.03 940.51L1501.91 982.91Z" fill="black"/>
</g>
<g style="mix-blend-mode:overlay" opacity="0.3">
<path d="M1512.38 981.81L1510.59 982L1507.52 936.91C1507.9 936.62 1508.28 936.31 1508.64 935.99L1509.22 935.46L1512.38 981.81Z" fill="black"/>
</g>
<g style="mix-blend-mode:overlay" opacity="0.3">
<path d="M1522.84 980.71L1521.06 980.9L1517.64 930.45C1518.21 930.23 1518.79 930.04 1519.39 929.87L1522.84 980.71Z" fill="black"/>
</g>
<g style="mix-blend-mode:overlay" opacity="0.3">
<path d="M1533.29 979.6L1531.52 979.79L1528.02 928.48L1529.82 928.26L1533.29 979.6Z" fill="black"/>
</g>
<g style="mix-blend-mode:overlay" opacity="0.3">
<path d="M1543.77 978.45C1543.39 978.52 1542.98 978.57 1542.57 978.62L1541.97 978.69L1538.5 927.23L1540.29 927.02L1543.77 978.45Z" fill="black"/>
</g>
<g style="mix-blend-mode:overlay" opacity="0.3">
<path d="M1554.08 975.19C1553.52 975.507 1552.93 975.777 1552.33 976L1549 927.26C1549.63 927.38 1550.25 927.55 1550.85 927.71L1554.08 975.19Z" fill="black"/>
</g>
<g style="mix-blend-mode:overlay" opacity="0.3">
<path d="M1564 966.33C1563.5 967.128 1562.94 967.896 1562.35 968.63L1559.88 932.15C1560.55 932.666 1561.19 933.221 1561.8 933.81L1564 966.33Z" fill="black"/>
</g>
</g>
<path d="M1208.11 565.62C1208.11 565.62 1201.11 553.17 1184.11 547.97L1173.49 539.15C1173.1 538.826 1172.65 538.593 1172.16 538.469C1171.67 538.344 1171.16 538.331 1170.66 538.43C1170.13 538.539 1169.63 538.774 1169.21 539.116C1168.78 539.458 1168.45 539.896 1168.23 540.394C1168.01 540.892 1167.92 541.435 1167.96 541.977C1167.99 542.52 1168.16 543.045 1168.44 543.51L1173.88 552.43L1208.11 565.62Z" fill="#FFD6D2"/>
<path d="M1212.43 571.4L1187.79 587.58L1183.12 580.36C1181.74 578.218 1179.71 576.574 1177.33 575.67L1137.09 560.4C1135.74 559.946 1134.51 559.198 1133.48 558.21L1115.81 541.3C1115.44 540.944 1115.17 540.489 1115.05 539.989C1114.92 539.489 1114.94 538.964 1115.1 538.474C1115.27 537.985 1115.56 537.551 1115.96 537.223C1116.36 536.895 1116.84 536.686 1117.35 536.62V536.62C1117.91 536.549 1118.47 536.65 1118.97 536.91L1141.97 549.14L1193.03 554.41L1208.03 565.62L1212.43 571.4Z" fill="#FFD6D2"/>
<path d="M1132.89 546.13L1117.25 533.2C1116.94 532.944 1116.7 532.602 1116.58 532.216C1116.46 531.831 1116.45 531.417 1116.55 531.026C1116.66 530.635 1116.87 530.283 1117.18 530.012C1117.48 529.741 1117.85 529.563 1118.25 529.5L1120.25 529.22C1120.01 528.873 1119.86 528.465 1119.84 528.042C1119.81 527.619 1119.9 527.197 1120.1 526.822C1120.3 526.447 1120.6 526.135 1120.96 525.919C1121.33 525.704 1121.75 525.593 1122.17 525.6V525.6C1123.85 525.627 1125.49 526.141 1126.89 527.08L1132.24 530.65L1133.16 530.36C1134.54 529.934 1136 529.847 1137.42 530.104C1138.84 530.362 1140.18 530.957 1141.32 531.84L1153.25 541.09L1166.9 547.92L1193.05 554.41L1151.23 558.19L1138.58 552.75L1132.89 546.13Z" fill="#FFD6D2"/>
<path d="M1155 547.29C1155.13 547.305 1155.26 547.282 1155.37 547.223C1155.49 547.164 1155.59 547.073 1155.65 546.96C1155.73 546.81 1155.75 546.633 1155.71 546.469C1155.66 546.304 1155.55 546.164 1155.4 546.08L1147.58 541.7L1132.67 530.13C1132.53 530.028 1132.36 529.984 1132.19 530.006C1132.02 530.028 1131.87 530.116 1131.76 530.25C1131.66 530.387 1131.61 530.559 1131.63 530.73C1131.65 530.9 1131.74 531.055 1131.88 531.16L1146.88 542.78L1154.78 547.21C1154.85 547.25 1154.92 547.277 1155 547.29V547.29Z" fill="#F49D98"/>
<path d="M1147.19 549.07C1147.33 549.088 1147.48 549.057 1147.61 548.982C1147.73 548.907 1147.83 548.793 1147.88 548.657C1147.93 548.521 1147.93 548.371 1147.89 548.232C1147.85 548.093 1147.76 547.973 1147.64 547.89L1135.32 539.42L1120.66 528.7C1120.59 528.649 1120.51 528.613 1120.43 528.592C1120.35 528.572 1120.26 528.568 1120.18 528.581C1120.09 528.594 1120.01 528.624 1119.94 528.668C1119.86 528.713 1119.8 528.771 1119.75 528.84C1119.7 528.908 1119.66 528.986 1119.64 529.068C1119.62 529.15 1119.62 529.236 1119.63 529.319C1119.65 529.403 1119.67 529.483 1119.72 529.555C1119.76 529.628 1119.82 529.69 1119.89 529.74L1134.57 540.48L1146.91 548.96C1146.99 549.019 1147.09 549.057 1147.19 549.07V549.07Z" fill="#F49D98"/>
<path d="M1186.63 564.3C1186.72 564.311 1186.81 564.304 1186.89 564.28C1186.98 564.256 1187.06 564.215 1187.13 564.16C1187.26 564.049 1187.34 563.893 1187.36 563.723C1187.37 563.553 1187.33 563.384 1187.22 563.25C1181.42 556.15 1169.81 553.25 1163.53 552.17C1164.96 551.83 1166.36 551.378 1167.72 550.82C1167.8 550.786 1167.87 550.738 1167.93 550.676C1167.99 550.615 1168.03 550.543 1168.06 550.464C1168.09 550.385 1168.11 550.301 1168.11 550.216C1168.1 550.131 1168.08 550.047 1168.05 549.97C1167.98 549.813 1167.85 549.689 1167.7 549.625C1167.54 549.561 1167.36 549.563 1167.2 549.63C1164.64 550.681 1161.95 551.355 1159.2 551.63C1159.04 551.645 1158.89 551.72 1158.78 551.84C1158.67 551.961 1158.61 552.118 1158.61 552.28C1158.6 552.443 1158.66 552.601 1158.77 552.721C1158.88 552.841 1159.04 552.912 1159.2 552.92C1159.39 552.92 1178.58 554.73 1186.2 564.12C1186.32 564.23 1186.47 564.294 1186.63 564.3V564.3Z" fill="#F49D98"/>
<path d="M1171.89 549.15L1185.59 552.55L1169.8 545.73L1171.89 549.15Z" fill="#F49D98"/>
<path d="M1418.05 537.83L1410.16 539.29C1400.16 541.144 1390.63 544.961 1382.11 550.518C1373.59 556.075 1366.26 563.264 1360.53 571.67L1309.39 646.75L1209.34 567.27C1209.34 567.27 1192.17 577.88 1187.79 587.58L1269.39 696.32C1274.55 703.192 1281.25 708.748 1288.96 712.535C1296.67 716.322 1305.17 718.232 1313.76 718.11V718.11C1321.96 717.995 1330.03 716.031 1337.36 712.364C1344.7 708.696 1351.11 703.421 1356.12 696.93L1403 636.24L1418.05 537.83Z" fill="#5B395A"/>
<path d="M1318.69 654.94C1318.9 654.965 1319.11 654.936 1319.3 654.855C1319.49 654.774 1319.66 654.645 1319.79 654.48C1319.98 654.229 1320.07 653.912 1320.03 653.597C1319.99 653.282 1319.83 652.995 1319.58 652.8L1287.22 627.6C1286.97 627.405 1286.65 627.318 1286.33 627.359C1286.02 627.399 1285.73 627.563 1285.54 627.815C1285.34 628.067 1285.25 628.386 1285.29 628.702C1285.33 629.018 1285.5 629.305 1285.75 629.5L1318.11 654.69C1318.28 654.825 1318.48 654.912 1318.69 654.94V654.94Z" fill="#382038"/>
<g style="mix-blend-mode:overlay" opacity="0.2">
<path d="M1187.8 587.59L1269.4 696.33C1274.44 703.044 1280.96 708.504 1288.46 712.283C1295.95 716.062 1304.22 718.059 1312.61 718.118C1321.01 718.177 1329.3 716.297 1336.85 712.623C1344.4 708.95 1351 703.583 1356.13 696.94L1403 636.24L1411.93 577.84L1340.5 699.47C1339.54 701.096 1338.06 702.349 1336.3 703.021C1334.54 703.694 1332.6 703.746 1330.8 703.17C1319.8 699.66 1309.55 703.49 1304 706.38C1302.62 707.112 1301.06 707.432 1299.51 707.302C1297.95 707.173 1296.47 706.599 1295.23 705.65C1287.23 699.46 1269.23 684.08 1246.06 655.59C1226.6 631.563 1209.4 605.786 1194.68 578.59C1191.86 581.148 1189.53 584.198 1187.8 587.59V587.59Z" fill="black"/>
</g>
<path d="M1368.85 859.65C1369.27 861.722 1369.86 863.754 1370.64 865.72C1372.64 870.928 1375.81 875.611 1379.89 879.409C1383.98 883.208 1388.88 886.023 1394.22 887.64C1462.98 908.47 1534.6 898.21 1576.97 888.22C1583.69 886.642 1589.95 883.519 1595.26 879.097C1600.56 874.676 1604.76 869.078 1607.52 862.75C1608.37 860.837 1609.08 858.865 1609.64 856.85C1611.15 851.389 1611.6 845.691 1610.98 840.06L1609.88 830.29L1609.28 824.83L1606.4 798.76L1605.8 793.3L1602.89 767.23L1602.29 761.77L1599.4 735.67L1598.8 730.21L1595.89 704.09L1595.29 698.63L1578.29 545.23L1535.5 532.88L1519.71 528.3L1466.22 523L1442.85 530.17L1411.61 539.77L1398.27 640.77L1380.27 700.41L1379.83 705.92L1377.72 732.21L1377.25 737.73L1375.14 764.02L1374.7 769.53L1372.59 795.79L1372.15 801.31L1370 827.57L1369.56 833.12L1368.24 849.44C1367.98 852.855 1368.18 856.29 1368.85 859.65V859.65Z" fill="#E8F1F9"/>
<path d="M1442.86 530.2C1443.86 546.41 1433.86 573.76 1478.16 575C1515.33 576 1534.81 546.87 1535.48 532.88L1519.68 528.31L1466.22 523L1442.86 530.2Z" fill="white"/>
<path d="M1542.46 466.29L1518.91 501.82L1505.77 511.21L1429.71 409.27C1429.71 409.27 1412.3 399.77 1428.13 388.14C1440.74 378.86 1449.13 366.67 1451.99 362.09C1461.99 357.15 1486.88 347.51 1512.7 356.73C1546.21 368.68 1540.86 391.22 1540.86 391.22C1540.86 391.22 1545.92 393.31 1550.17 410.4C1554.42 427.49 1542.46 466.29 1542.46 466.29Z" fill="#492C1E"/>
<path d="M1515.46 480.3L1524.22 534.97V535.2C1521.73 552.74 1495.14 565.78 1477.43 565.78C1461.65 565.48 1455.43 554.17 1453.91 537.38V503L1515.46 480.3Z" fill="#FFD6D2"/>
<path d="M1491.96 514.92L1453.87 537.38V502.95L1491.96 514.92Z" fill="#F49D98"/>
<path d="M1431.5 393.68C1431.5 393.68 1425.69 437.73 1426 474.54C1426.23 503.54 1453 525.26 1481.18 518.59C1496.18 515.03 1510.71 505.91 1518.33 485.68C1518.33 485.68 1532.25 490.54 1537.51 467.97C1542.77 445.4 1522.58 445.54 1518.12 450.82L1516.86 455C1516.41 456.505 1515.54 457.851 1514.36 458.883C1513.17 459.915 1511.72 460.59 1510.17 460.83V460.83C1509.74 460.898 1509.29 460.864 1508.88 460.73C1508.46 460.596 1508.08 460.367 1507.77 460.06C1507.45 459.753 1507.22 459.377 1507.07 458.962C1506.93 458.547 1506.89 458.104 1506.95 457.67L1515.25 397.22L1431.5 393.68Z" fill="#FFD6D2"/>
<path d="M1465.65 476.67C1465.97 476.716 1466.29 476.652 1466.57 476.489C1466.85 476.325 1467.07 476.071 1467.18 475.77C1467.25 475.597 1467.28 475.412 1467.27 475.227C1467.27 475.041 1467.22 474.859 1467.15 474.69C1467.07 474.521 1466.96 474.368 1466.83 474.242C1466.69 474.115 1466.53 474.015 1466.36 473.95L1453.94 469.27L1460.47 440.97C1460.56 440.613 1460.5 440.236 1460.32 439.92C1460.13 439.604 1459.82 439.374 1459.47 439.28C1459.11 439.202 1458.73 439.269 1458.41 439.467C1458.09 439.665 1457.87 439.978 1457.78 440.34L1450.97 469.84C1450.89 470.171 1450.93 470.52 1451.09 470.82C1451.26 471.121 1451.52 471.352 1451.84 471.47L1465.41 476.59C1465.49 476.622 1465.57 476.649 1465.65 476.67V476.67Z" fill="#F49D98"/>
<path d="M1470.82 447.81C1470.55 449.557 1471.75 451.189 1473.5 451.454C1475.25 451.719 1476.88 450.517 1477.14 448.77L1477.65 445.468C1477.91 443.721 1476.71 442.089 1474.96 441.824C1473.21 441.559 1471.58 442.76 1471.32 444.508L1470.82 447.81Z" fill="#492C1E"/>
<path d="M1434.68 444.411C1434.41 446.159 1435.62 447.79 1437.36 448.055C1439.11 448.32 1440.74 447.119 1441.01 445.372L1441.51 442.069C1441.77 440.322 1440.57 438.691 1438.82 438.426C1437.08 438.16 1435.45 439.362 1435.18 441.109L1434.68 444.411Z" fill="#492C1E"/>
<path d="M1459.88 488.48C1460.09 490.262 1460.67 491.982 1461.58 493.529C1462.49 495.077 1463.71 496.42 1465.16 497.474C1466.61 498.527 1468.27 499.269 1470.02 499.651C1471.77 500.033 1473.59 500.048 1475.35 499.695C1477.11 499.342 1478.77 498.628 1480.25 497.599C1481.72 496.569 1482.96 495.247 1483.89 493.714C1484.82 492.181 1485.43 490.472 1485.67 488.694C1485.91 486.915 1485.78 485.106 1485.29 483.38L1459.88 488.48Z" fill="white"/>
<path d="M1469.46 436.69C1469.76 436.734 1470.07 436.682 1470.34 436.54C1482.77 429.84 1491.93 437.54 1492.34 437.93C1492.48 438.052 1492.64 438.146 1492.82 438.205C1492.99 438.265 1493.18 438.289 1493.36 438.277C1493.55 438.265 1493.73 438.217 1493.89 438.135C1494.06 438.053 1494.21 437.939 1494.33 437.8C1494.45 437.661 1494.55 437.499 1494.61 437.324C1494.66 437.148 1494.69 436.963 1494.68 436.778C1494.67 436.593 1494.62 436.413 1494.53 436.247C1494.45 436.08 1494.34 435.932 1494.2 435.81C1490.65 433.055 1486.36 431.417 1481.88 431.106C1477.4 430.794 1472.93 431.822 1469.03 434.06C1468.77 434.201 1468.56 434.42 1468.44 434.686C1468.31 434.951 1468.27 435.25 1468.32 435.54C1468.37 435.83 1468.51 436.097 1468.72 436.303C1468.93 436.509 1469.2 436.645 1469.49 436.69H1469.46Z" fill="#492C1E"/>
<path d="M1430.72 434.21C1431.02 434.256 1431.33 434.203 1431.6 434.06C1444.03 427.35 1453.19 435.11 1453.6 435.45C1453.74 435.573 1453.9 435.667 1454.08 435.727C1454.26 435.786 1454.44 435.81 1454.63 435.797C1454.82 435.784 1455 435.735 1455.16 435.651C1455.33 435.567 1455.48 435.451 1455.6 435.31C1455.73 435.172 1455.82 435.01 1455.89 434.833C1455.95 434.656 1455.97 434.469 1455.96 434.282C1455.95 434.096 1455.9 433.913 1455.81 433.746C1455.73 433.579 1455.61 433.431 1455.47 433.31C1451.92 430.554 1447.64 428.915 1443.16 428.602C1438.68 428.289 1434.21 429.315 1430.31 431.55C1429.98 431.728 1429.74 432.029 1429.63 432.387C1429.52 432.745 1429.56 433.131 1429.74 433.46C1429.83 433.653 1429.97 433.822 1430.14 433.953C1430.31 434.083 1430.51 434.171 1430.72 434.21Z" fill="#492C1E"/>
<path d="M1518.25 472.34C1518.54 472.38 1518.83 472.313 1519.07 472.153C1519.32 471.993 1519.49 471.75 1519.57 471.47C1519.85 470.47 1521.01 467.42 1522.62 466.71C1522.89 466.59 1523.19 466.54 1523.49 466.562C1523.79 466.585 1524.08 466.68 1524.33 466.84C1524.47 466.912 1524.62 466.955 1524.78 466.967C1524.94 466.979 1525.1 466.961 1525.25 466.912C1525.4 466.863 1525.54 466.785 1525.66 466.683C1525.77 466.581 1525.87 466.456 1525.94 466.315C1526.02 466.174 1526.06 466.021 1526.07 465.864C1526.08 465.707 1526.07 465.549 1526.02 465.399C1525.97 465.249 1525.89 465.11 1525.79 464.99C1525.69 464.87 1525.56 464.772 1525.42 464.7C1524.85 464.384 1524.21 464.202 1523.56 464.169C1522.9 464.136 1522.25 464.253 1521.65 464.51C1521.11 464.761 1520.62 465.099 1520.2 465.51C1520.81 462.42 1521.98 459.36 1524.09 459.09C1528.53 458.53 1530.09 463.53 1530.09 463.74C1530.19 464.035 1530.4 464.279 1530.67 464.423C1530.95 464.566 1531.27 464.597 1531.57 464.509C1531.87 464.421 1532.12 464.221 1532.27 463.95C1532.42 463.68 1532.47 463.361 1532.39 463.06C1531.65 460.58 1528.9 456.06 1523.77 456.71C1517.42 457.52 1517.2 469.76 1517.2 471.16C1517.2 471.451 1517.31 471.732 1517.5 471.949C1517.69 472.167 1517.96 472.306 1518.25 472.34Z" fill="#F49D98"/>
<path d="M1539.72 450.52L1540.26 448.18L1497.26 438.26C1495.7 434.536 1493.02 431.395 1489.58 429.28C1486.14 427.164 1482.13 426.181 1478.1 426.468C1474.08 426.755 1470.24 428.298 1467.14 430.88C1464.04 433.462 1461.82 436.953 1460.81 440.86C1460.5 442.082 1460.3 443.331 1460.22 444.59C1459.42 444.063 1458.5 443.75 1457.55 443.68C1457.24 443.67 1456.94 443.696 1456.64 443.76C1456.85 438.818 1455.16 433.984 1451.91 430.253C1448.67 426.522 1444.11 424.178 1439.19 423.704C1434.26 423.231 1429.35 424.663 1425.45 427.707C1421.55 430.751 1418.97 435.174 1418.23 440.065C1417.5 444.956 1418.67 449.943 1421.5 453.998C1424.33 458.053 1428.61 460.867 1433.45 461.861C1438.3 462.856 1443.34 461.954 1447.54 459.341C1451.74 456.729 1454.78 452.605 1456.03 447.82C1456.17 447.32 1456.26 446.82 1456.35 446.31C1456.92 446 1458.35 445.68 1460.35 447.77C1460.62 450.418 1461.43 452.981 1462.74 455.3C1464.04 457.619 1465.81 459.642 1467.94 461.244C1470.06 462.845 1472.5 463.99 1475.09 464.605C1477.68 465.221 1480.36 465.295 1482.98 464.822C1485.6 464.349 1488.09 463.339 1490.3 461.857C1492.51 460.374 1494.39 458.451 1495.82 456.207C1497.26 453.963 1498.21 451.448 1498.62 448.819C1499.03 446.19 1498.9 443.504 1498.22 440.93L1539.72 450.52ZM1433.06 459.31C1429.82 458.465 1426.9 456.677 1424.68 454.173C1422.45 451.67 1421.02 448.562 1420.56 445.245C1420.1 441.927 1420.64 438.548 1422.1 435.535C1423.57 432.522 1425.89 430.01 1428.78 428.318C1431.67 426.626 1435 425.829 1438.34 426.028C1441.68 426.227 1444.89 427.414 1447.56 429.437C1450.23 431.461 1452.24 434.23 1453.33 437.396C1454.43 440.561 1454.56 443.98 1453.71 447.22C1452.56 451.55 1449.74 455.249 1445.87 457.513C1442.01 459.778 1437.4 460.423 1433.06 459.31ZM1475.2 462.13C1471.96 461.289 1469.04 459.505 1466.81 457.005C1464.59 454.504 1463.15 451.4 1462.69 448.083C1462.22 444.767 1462.75 441.388 1464.21 438.373C1465.67 435.358 1467.99 432.844 1470.88 431.147C1473.76 429.451 1477.09 428.648 1480.43 428.841C1483.77 429.035 1486.98 430.215 1489.66 432.233C1492.33 434.251 1494.34 437.016 1495.44 440.179C1496.54 443.341 1496.68 446.759 1495.84 450C1494.71 454.342 1491.9 458.058 1488.03 460.332C1484.16 462.606 1479.55 463.253 1475.2 462.13V462.13Z" fill="white"/>
<path d="M1430.07 405.87C1430.07 405.87 1445.59 408.56 1450.22 394.47C1450.22 394.47 1481.5 456.73 1514.85 432.77L1520.85 393.27L1430.69 384.13L1430.07 405.87Z" fill="#492C1E"/>
<path d="M1549.19 452.27L1521.66 419.71L1510.49 406.51L1479.14 392.37L1439.35 374.37C1440.69 372.396 1442.19 370.53 1443.83 368.79C1454.32 357.4 1483.24 334.66 1530.76 361.17C1538.28 365.195 1544.84 370.792 1550 377.58C1573.12 408.88 1549.19 452.27 1549.19 452.27Z" fill="#D67636"/>
<g style="mix-blend-mode:overlay" opacity="0.3">
<path d="M1549.19 452.27L1521.66 419.71L1509.12 402.83L1479.12 392.37L1439.33 374.37C1440.67 372.396 1442.17 370.53 1443.81 368.79C1493.59 369.87 1525.32 392.93 1538.64 405.08C1539.64 405.998 1540.86 406.629 1542.19 406.905C1543.51 407.181 1544.89 407.092 1546.17 406.648C1547.45 406.203 1548.58 405.42 1549.45 404.381C1550.32 403.342 1550.89 402.087 1551.1 400.75C1552.1 393.4 1551.16 384.54 1549.93 377.54C1573.12 408.88 1549.19 452.27 1549.19 452.27Z" fill="black"/>
</g>
<path d="M1428.13 388.13C1428.13 388.13 1454.22 378.22 1495.13 402.13C1536.04 426.04 1542.41 466.31 1542.41 466.31L1548.41 461.67C1551.36 459.38 1553.51 456.223 1554.57 452.644C1555.62 449.064 1555.53 445.243 1554.3 441.72C1546.26 418.306 1529.54 398.875 1507.58 387.44C1477.73 371.81 1454.39 370.27 1442.39 370.92C1439.83 371.055 1437.36 371.96 1435.32 373.515C1433.28 375.07 1431.75 377.205 1430.94 379.64L1428.13 388.13Z" fill="#D67636"/>
<path d="M1519.17 401.75L1514.57 407.55C1514.2 408.005 1514.01 408.581 1514.04 409.166C1514.07 409.75 1514.32 410.304 1514.73 410.72C1518.17 414.2 1526.63 422.91 1530.28 428.18C1530.46 428.452 1530.7 428.682 1530.98 428.858C1531.26 429.033 1531.57 429.148 1531.89 429.197C1532.22 429.246 1532.55 429.227 1532.86 429.141C1533.18 429.056 1533.47 428.906 1533.73 428.7L1539.34 424.28C1539.78 423.932 1540.08 423.44 1540.19 422.891C1540.3 422.342 1540.22 421.772 1539.95 421.28C1537.95 417.78 1532.8 409.72 1522.56 401.4C1522.06 400.999 1521.43 400.812 1520.79 400.877C1520.16 400.943 1519.57 401.256 1519.17 401.75Z" fill="#F4B65B"/>
<path d="M1521.75 463.38L1519.75 466.93C1519.43 467.487 1519.22 468.102 1519.14 468.74C1519.03 469.659 1519.2 470.589 1519.61 471.417C1520.02 472.245 1520.67 472.934 1521.47 473.4L1522.15 473.79C1522.95 474.252 1523.87 474.467 1524.79 474.408C1525.72 474.35 1526.6 474.02 1527.34 473.46C1527.86 473.076 1528.29 472.585 1528.6 472.02L1530.6 468.47C1531.22 467.386 1531.39 466.1 1531.07 464.892C1530.74 463.685 1529.95 462.655 1528.87 462.03L1528.19 461.64C1527.1 461.02 1525.82 460.855 1524.61 461.181C1523.4 461.507 1522.38 462.298 1521.75 463.38Z" fill="white"/>
<path d="M1520.54 465.49L1519.71 466.93C1519.39 467.487 1519.18 468.102 1519.1 468.74C1518.99 469.659 1519.16 470.589 1519.57 471.417C1519.98 472.245 1520.63 472.934 1521.43 473.4L1522.11 473.79C1522.91 474.252 1523.83 474.467 1524.75 474.408C1525.68 474.35 1526.56 474.02 1527.3 473.46C1527.82 473.076 1528.25 472.585 1528.56 472.02L1529.39 470.59C1528.69 471.716 1527.58 472.526 1526.29 472.849C1525.01 473.172 1523.65 472.982 1522.5 472.32C1521.35 471.658 1520.5 470.576 1520.14 469.301C1519.77 468.027 1519.92 466.66 1520.54 465.49V465.49Z" fill="#B7CFE2"/>
<path d="M1514.75 480.026C1514.24 479.732 1513.87 479.248 1513.72 478.679C1513.57 478.111 1513.64 477.505 1513.94 476.995L1521.29 464.22L1525.15 466.441L1517.79 479.215C1517.65 479.468 1517.45 479.69 1517.22 479.868C1516.99 480.046 1516.73 480.177 1516.44 480.252C1516.16 480.328 1515.87 480.346 1515.58 480.308C1515.29 480.269 1515.01 480.173 1514.75 480.026V480.026Z" fill="white"/>
<path d="M1626.08 893.7C1626.39 895.749 1626.18 897.842 1625.48 899.792C1624.79 901.743 1623.62 903.49 1622.08 904.88C1585.75 936.58 1477.42 908.78 1473.08 907.63H1472.94C1496.2 850.17 1502.58 703.56 1497.44 633.28C1495.72 609.74 1498.16 590.28 1502.19 574.94C1510.13 544.41 1524.19 529.65 1524.19 529.65L1533.63 532.39L1578.23 545.25L1592 645L1626.08 893.7Z" fill="#5B395A"/>
<path d="M1533.66 532.37L1528.37 585.5C1528.29 586.173 1528.04 586.815 1527.64 587.364C1527.24 587.913 1526.71 588.353 1526.1 588.641C1525.48 588.929 1524.81 589.056 1524.13 589.01C1523.45 588.964 1522.8 588.748 1522.23 588.38L1502.23 574.92C1510.17 544.39 1524.23 529.63 1524.23 529.63L1533.66 532.37Z" fill="#F4B65B"/>
<g style="mix-blend-mode:overlay" opacity="0.2">
<path d="M1622.1 904.88C1585.77 936.58 1477.44 908.78 1473.1 907.63C1549.47 919.56 1593.04 898.7 1598.43 852.43C1603.82 806.16 1573.04 635.43 1573.04 635.43L1592 645L1626.13 893.7C1626.43 895.751 1626.22 897.846 1625.52 899.796C1624.82 901.747 1623.64 903.493 1622.1 904.88V904.88Z" fill="black"/>
</g>
<path d="M1454 526.8C1454 526.8 1453.24 545.8 1452.3 573.8C1451.3 602.21 1450.21 639.92 1449.52 676.47C1448.21 745.97 1413.06 866.78 1418.09 898.26C1418.15 898.61 1418.12 898.971 1417.99 899.304C1417.87 899.637 1417.66 899.93 1417.38 900.154C1417.1 900.379 1416.77 900.525 1416.42 900.579C1416.07 900.632 1415.71 900.591 1415.38 900.46C1405.56 896.6 1377.57 886.02 1355.07 881.58C1354.22 881.409 1353.4 881.069 1352.68 880.581C1351.96 880.092 1351.34 879.464 1350.87 878.734C1350.39 878.004 1350.07 877.186 1349.91 876.328C1349.75 875.471 1349.77 874.591 1349.96 873.74C1354.46 853.04 1368.07 788.43 1373.96 737.48C1381.04 675.94 1411.68 539.79 1411.68 539.79L1441.39 530.67L1454 526.8Z" fill="#5B395A"/>
<path d="M1454 526.8C1454 526.8 1453.24 545.8 1452.3 573.8L1432.52 577.42C1431.85 577.547 1431.15 577.497 1430.51 577.275C1429.86 577.053 1429.28 576.666 1428.83 576.152C1428.38 575.638 1428.07 575.016 1427.93 574.346C1427.79 573.675 1427.83 572.981 1428.04 572.33L1441.37 530.67L1454 526.8Z" fill="#F4B65B"/>
<path d="M1380.22 696.4H1379.99C1379.83 696.376 1379.68 696.32 1379.54 696.235C1379.4 696.151 1379.28 696.039 1379.19 695.908C1379.1 695.776 1379.03 695.627 1379 695.469C1378.96 695.312 1378.96 695.149 1378.99 694.99L1397.63 598.73C1397.65 598.567 1397.7 598.41 1397.79 598.269C1397.87 598.127 1397.98 598.005 1398.12 597.908C1398.25 597.812 1398.4 597.744 1398.56 597.709C1398.72 597.674 1398.89 597.672 1399.05 597.703C1399.21 597.735 1399.37 597.799 1399.5 597.893C1399.64 597.986 1399.75 598.106 1399.84 598.245C1399.93 598.384 1399.98 598.54 1400.01 598.703C1400.03 598.865 1400.02 599.031 1399.98 599.19L1381.34 695.45C1381.28 695.71 1381.14 695.944 1380.94 696.116C1380.74 696.288 1380.49 696.388 1380.22 696.4V696.4Z" fill="#382038"/>
<path d="M1462.45 706.16L1451.45 714.1L1431.83 707.84L1377 704.9L1353.8 692C1353.35 691.748 1352.98 691.375 1352.74 690.924C1352.49 690.472 1352.38 689.961 1352.41 689.448C1352.44 688.935 1352.62 688.441 1352.92 688.024C1353.22 687.607 1353.63 687.283 1354.11 687.09C1354.63 686.886 1355.2 686.844 1355.74 686.97L1383.27 695.85L1431.58 685.1L1448.9 692.1L1462.45 706.16Z" fill="#FFD6D2"/>
<path d="M1371.49 692.35L1353.15 683.84C1352.78 683.669 1352.47 683.396 1352.26 683.053C1352.05 682.709 1351.94 682.312 1351.94 681.907C1351.95 681.503 1352.07 681.109 1352.3 680.774C1352.53 680.439 1352.85 680.177 1353.22 680.02L1355.06 679.24C1354.73 678.968 1354.48 678.61 1354.35 678.204C1354.21 677.799 1354.19 677.364 1354.29 676.947C1354.38 676.531 1354.6 676.151 1354.9 675.849C1355.2 675.547 1355.58 675.336 1356 675.24V675.24C1357.62 674.84 1359.33 674.92 1360.91 675.47L1366.97 677.56L1367.79 677.05C1369.01 676.286 1370.4 675.829 1371.83 675.718C1373.27 675.607 1374.71 675.844 1376.03 676.41L1389.86 682.31L1404.74 685.44L1431.58 685.09L1392.22 699.3L1378.66 697.3L1371.49 692.35Z" fill="#FFD6D2"/>
<path d="M1393.07 687.88C1393.2 687.864 1393.32 687.811 1393.41 687.728C1393.51 687.644 1393.58 687.533 1393.61 687.41C1393.65 687.244 1393.63 687.068 1393.54 686.92C1393.46 686.773 1393.32 686.665 1393.15 686.62L1384.51 684.37L1367.22 677C1367.14 676.967 1367.06 676.949 1366.97 676.947C1366.89 676.946 1366.81 676.961 1366.73 676.993C1366.65 677.024 1366.58 677.07 1366.52 677.129C1366.46 677.187 1366.41 677.258 1366.37 677.335C1366.31 677.492 1366.3 677.668 1366.37 677.827C1366.43 677.985 1366.55 678.112 1366.71 678.18L1384.09 685.59L1392.82 687.87C1392.9 687.888 1392.99 687.892 1393.07 687.88V687.88Z" fill="#F49D98"/>
<path d="M1386 691.57C1386.14 691.548 1386.27 691.479 1386.37 691.375C1386.47 691.271 1386.53 691.138 1386.55 690.995C1386.56 690.852 1386.53 690.709 1386.45 690.587C1386.38 690.465 1386.26 690.371 1386.13 690.32L1372.13 685.32L1355.29 678.68C1355.13 678.616 1354.95 678.619 1354.79 678.688C1354.63 678.756 1354.51 678.885 1354.45 679.045C1354.38 679.205 1354.38 679.385 1354.45 679.543C1354.52 679.702 1354.65 679.826 1354.81 679.89L1371.67 686.52L1385.67 691.58C1385.78 691.601 1385.89 691.597 1386 691.57Z" fill="#F49D98"/>
<path d="M1435.37 699.21C1435.37 699.21 1425.44 689 1407.8 688.27L1395.34 682.45C1394.89 682.233 1394.39 682.12 1393.89 682.12C1393.38 682.12 1392.88 682.233 1392.43 682.45V682.45C1391.94 682.689 1391.52 683.042 1391.2 683.478C1390.88 683.914 1390.67 684.422 1390.58 684.957C1390.5 685.492 1390.54 686.04 1390.72 686.554C1390.89 687.068 1391.18 687.533 1391.57 687.91L1404 699.31L1435.37 699.21Z" fill="#FFD6D2"/>
<path d="M1404.12 700C1404.03 700.013 1403.93 700.006 1403.84 699.978C1403.75 699.95 1403.67 699.903 1403.6 699.84L1391.14 688.46C1390.67 688.012 1390.32 687.457 1390.11 686.842C1389.9 686.227 1389.85 685.571 1389.95 684.93C1390.05 684.316 1390.28 683.732 1390.64 683.226C1391.01 682.719 1391.48 682.304 1392.03 682.013C1392.58 681.722 1393.19 681.563 1393.81 681.548C1394.43 681.534 1395.05 681.664 1395.61 681.93L1407.95 687.69C1412.55 687.886 1417.09 688.766 1421.43 690.3C1421.51 690.328 1421.58 690.372 1421.65 690.428C1421.71 690.485 1421.76 690.553 1421.79 690.629C1421.83 690.705 1421.85 690.788 1421.86 690.872C1421.86 690.956 1421.85 691.041 1421.82 691.12C1421.79 691.199 1421.75 691.273 1421.69 691.335C1421.64 691.398 1421.57 691.449 1421.49 691.485C1421.41 691.521 1421.33 691.542 1421.25 691.546C1421.16 691.55 1421.08 691.538 1421 691.51C1416.74 690.013 1412.28 689.16 1407.77 688.98C1407.68 688.969 1407.6 688.949 1407.52 688.92L1395.06 683C1394.48 682.745 1393.82 682.701 1393.21 682.878C1392.6 683.054 1392.07 683.439 1391.72 683.966C1391.36 684.492 1391.2 685.127 1391.26 685.76C1391.32 686.393 1391.61 686.984 1392.06 687.43L1404.51 698.8C1404.57 698.859 1404.62 698.93 1404.65 699.008C1404.68 699.087 1404.7 699.17 1404.7 699.255C1404.7 699.34 1404.68 699.423 1404.65 699.501C1404.62 699.58 1404.57 699.65 1404.51 699.71C1404.47 699.783 1404.41 699.847 1404.35 699.897C1404.28 699.947 1404.2 699.982 1404.12 700V700Z" fill="#F49D98"/>
<path d="M1369.51 691.43L1381.51 694.35L1384.19 692.59C1384.19 692.59 1378.94 693.52 1369.51 691.43Z" fill="#F49D98"/>
<path d="M1575.31 545.23C1586.98 547.12 1597.95 552.012 1607.16 559.427C1616.37 566.841 1623.49 576.522 1627.82 587.52L1664.6 680.9C1667.57 688.428 1668.55 696.591 1667.46 704.608C1666.37 712.625 1663.24 720.228 1658.37 726.69V726.69C1656.43 729.26 1653.15 731.88 1649.22 734.35C1634.67 743.329 1617.29 746.569 1600.48 743.44L1446.48 715.92C1446.48 715.92 1444.15 699.92 1437.14 687.38L1595.07 681.38L1573.88 634.46C1573.88 634.46 1550.8 586.29 1575.31 545.23Z" fill="#5B395A"/>
<path d="M1595 682.1C1595.12 682.082 1595.23 682.048 1595.34 682C1595.48 681.936 1595.62 681.844 1595.72 681.729C1595.83 681.614 1595.92 681.479 1595.97 681.331C1596.03 681.183 1596.06 681.025 1596.05 680.867C1596.04 680.709 1596.01 680.554 1595.94 680.41L1575 634C1574.87 633.722 1574.65 633.501 1574.37 633.38L1566.71 630.21C1566.42 630.088 1566.08 630.088 1565.79 630.21C1565.5 630.332 1565.26 630.566 1565.14 630.86C1565.02 631.154 1565.02 631.485 1565.14 631.78C1565.26 632.074 1565.5 632.308 1565.79 632.43L1573.01 635.43L1593.73 681.43C1593.84 681.664 1594.02 681.855 1594.25 681.976C1594.48 682.097 1594.74 682.14 1595 682.1V682.1Z" fill="#382038"/>
<path d="M1623.49 745C1615.77 745.983 1607.95 745.872 1600.26 744.67L1446.26 717.16C1445.95 717.103 1445.67 716.923 1445.49 716.661C1445.3 716.398 1445.23 716.074 1445.29 715.76C1445.35 715.446 1445.53 715.167 1445.79 714.985C1446.05 714.803 1446.38 714.733 1446.69 714.79L1600.69 742.31C1600.97 742.31 1628.9 747.25 1648.53 733.42C1648.8 733.237 1649.12 733.167 1649.44 733.225C1649.76 733.283 1650.04 733.465 1650.22 733.73C1650.4 733.995 1650.47 734.322 1650.41 734.639C1650.36 734.956 1650.18 735.237 1649.91 735.42C1641.58 741.2 1632 743.87 1623.49 745Z" fill="#382038"/>
<path d="M1604.48 682.1H1604.37L1437.21 688.57C1436.89 688.582 1436.58 688.467 1436.35 688.25C1436.11 688.034 1435.98 687.733 1435.96 687.415C1435.95 687.097 1436.07 686.787 1436.28 686.553C1436.5 686.32 1436.8 686.182 1437.12 686.17L1604.28 679.7C1604.59 679.686 1604.89 679.792 1605.13 679.997C1605.36 680.202 1605.51 680.489 1605.53 680.799C1605.56 681.108 1605.46 681.416 1605.27 681.656C1605.07 681.897 1604.79 682.053 1604.48 682.09V682.1Z" fill="#382038"/>
<path d="M1342.89 779.87H1506.87C1508.2 779.87 1509.27 778.796 1509.27 777.47V766.67C1509.27 765.345 1508.2 764.27 1506.87 764.27H1342.89C1341.56 764.27 1340.49 765.345 1340.49 766.67V777.47C1340.49 778.796 1341.56 779.87 1342.89 779.87Z" fill="#B7CFE2"/>
<path d="M1137.84 779.87H1360.23C1361.06 779.869 1361.87 779.654 1362.59 779.245C1363.31 778.836 1363.92 778.248 1364.34 777.537C1364.77 776.826 1365 776.017 1365.02 775.189C1365.04 774.361 1364.85 773.541 1364.46 772.81L1294.57 641.87C1294.16 641.104 1293.55 640.464 1292.81 640.016C1292.06 639.569 1291.21 639.332 1290.34 639.33H1068C1067.17 639.328 1066.35 639.541 1065.63 639.95C1064.91 640.358 1064.31 640.946 1063.88 641.658C1063.45 642.37 1063.22 643.18 1063.2 644.01C1063.18 644.839 1063.38 645.659 1063.77 646.39L1133.66 777.33C1134.06 778.091 1134.66 778.728 1135.4 779.175C1136.14 779.622 1136.98 779.862 1137.84 779.87V779.87Z" fill="#D7E8F7"/>
<path d="M1214.09 724C1222.04 724 1228.48 717.553 1228.48 709.6C1228.48 701.647 1222.04 695.2 1214.09 695.2C1206.14 695.2 1199.7 701.647 1199.7 709.6C1199.7 717.553 1206.14 724 1214.09 724Z" fill="white"/>
<path d="M907.42 806.78L1720.54 806.78C1723.43 806.78 1725.77 804.438 1725.77 801.55V785.1C1725.77 782.212 1723.43 779.87 1720.54 779.87L907.42 779.87C904.532 779.87 902.19 782.212 902.19 785.1V801.55C902.19 804.438 904.532 806.78 907.42 806.78Z" fill="#B7CFE2"/>
<path d="M1463.32 806.78H1721.78C1724.8 806.78 1727.24 804.335 1727.24 801.32V785.33C1727.24 782.315 1724.8 779.87 1721.78 779.87H1463.32C1460.3 779.87 1457.86 782.315 1457.86 785.33V801.32C1457.86 804.335 1460.3 806.78 1463.32 806.78Z" fill="#95B5E8"/>
<path d="M1445.32 1380H1474.73L1507.83 837.51L1478.41 821.25L1445.32 1380Z" fill="#95B5E8"/>
<path d="M1727.24 1380H1697.82L1563.63 829.38L1593.04 813.11L1727.24 1380Z" fill="#95B5E8"/>
<path d="M1713.75 818.23L1513.03 839.31L1472.33 825.21V806.78H1713.75V818.23Z" fill="#6E99D6"/>
<path d="M916.43 825.21L1472.33 825.21V806.78L916.43 806.78V825.21Z" fill="#95B5E8"/>
<path d="M1039.42 649.49L1047.05 779.89H1014.72L1039.42 649.49Z" fill="#B7CFE2"/>
<path d="M944.8 779.9H1032L1039.42 649.49H956.76C955.542 649.496 954.372 649.965 953.487 650.803C952.603 651.641 952.071 652.784 952 654L944.8 779.9Z" fill="#D7E8F7"/>
</svg>
