<svg width="4680" height="3120" viewBox="0 0 4680 3120" fill="none" xmlns="http://www.w3.org/2000/svg">
<g clip-path="url(#clip0)">
<path d="M2477 965.11C2477 965.11 3283.3 357.9 3716.19 770.18C4149.08 1182.46 3708.32 2460 2687.8 2625.44C1579.92 2805 685.94 2562.4 809.62 1552.91C933.3 543.42 2096.74 411.06 2477 965.11Z" fill="#0670ED" fill-opacity="0.31"/>
<path d="M1421.17 2247.92L2687.08 1612.09C2690.29 1610.28 2693.92 1609.35 2697.61 1609.39C2701.3 1609.43 2704.91 1610.44 2708.08 1612.32L3399.32 1946.12C3413.01 1954.24 3405.03 2045.64 3391.32 2053.79L2136.65 2802C2133.29 2804 2129.45 2805.02 2125.54 2804.96C2121.64 2804.89 2117.83 2803.73 2114.54 2801.62L1426.37 2358.55C1413.09 2350 1407.41 2255.68 1421.17 2247.92Z" fill="#234489"/>
<path d="M2678 1587.46C2678 1587.46 1929.69 1592.89 2562.54 205L2802.77 582.49L2762.15 757L2873.35 673.52C2873.35 673.52 3010.14 926.42 2869.78 1054.65C3009.68 1050.51 2974.78 1109.57 2974.78 1109.57C2974.78 1109.57 2994.84 1506.67 2678 1587.46Z" fill="#3E9E8B"/>
<path d="M2661.38 1631.42L2589.8 616.46" stroke="#9C77BC" stroke-width="10" stroke-miterlimit="10" stroke-linecap="round"/>
<path d="M2709.23 675.53L2609.44 821.42" stroke="#9C77BC" stroke-width="10" stroke-miterlimit="10" stroke-linecap="round"/>
<path d="M2772.81 929.76L2623.28 1091.3" stroke="#9C77BC" stroke-width="10" stroke-miterlimit="10" stroke-linecap="round"/>
<path d="M2833.33 1191.07L2643.31 1375.21" stroke="#9C77BC" stroke-width="10" stroke-miterlimit="10" stroke-linecap="round"/>
<path d="M2634.13 1245.11L2453.73 1087.83" stroke="#9C77BC" stroke-width="10" stroke-miterlimit="10" stroke-linecap="round"/>
<path d="M2603.43 965.18L2466.29 817.44" stroke="#9C77BC" stroke-width="10" stroke-miterlimit="10" stroke-linecap="round"/>
<path d="M2860.09 1805.19C2860.09 1805.19 2217.99 1420.85 3480.09 564.19L3489.09 1011.55L3363.69 1139.49L3502.08 1125.98C3502.08 1125.98 3487.48 1413.13 3300.93 1449.71C3422.58 1518.9 3362.11 1551.24 3362.11 1551.24C3362.11 1551.24 3172.76 1900.87 2860.09 1805.19Z" fill="#70D66E"/>
<path d="M2834.67 1846.42L3284.8 933.91" stroke="#705683" stroke-width="10" stroke-miterlimit="10" stroke-linecap="round"/>
<path d="M3358.13 1045.17L3198.38 1120.8" stroke="#705683" stroke-width="10" stroke-miterlimit="10" stroke-linecap="round"/>
<path d="M3284.8 1296.75L3074.21 1360.82" stroke="#705683" stroke-width="10" stroke-miterlimit="10" stroke-linecap="round"/>
<path d="M3205.25 1552.91L2948.3 1616.07" stroke="#705683" stroke-width="10" stroke-miterlimit="10" stroke-linecap="round"/>
<path d="M3005.99 1499.11L2929.55 1272.3" stroke="#705683" stroke-width="10" stroke-miterlimit="10" stroke-linecap="round"/>
<path d="M3120.68 1241.9L3076.77 1045.17" stroke="#705683" stroke-width="10" stroke-miterlimit="10" stroke-linecap="round"/>
<path d="M1061.76 1355.67L1302.27 2158.67C1305.69 2170.09 1311.65 2180.6 1319.7 2189.4C1327.74 2198.2 1337.67 2205.07 1348.74 2209.5C1359.82 2213.93 1371.74 2215.8 1383.64 2214.97C1395.54 2214.15 1407.09 2210.65 1417.45 2204.74L2598.45 1530.26C2613.86 1521.46 2625.87 1507.74 2632.55 1491.3C2639.24 1474.86 2640.21 1456.65 2635.31 1439.59L2414.72 671.3C2411.46 659.958 2405.7 649.488 2397.87 640.656C2390.04 631.824 2380.34 624.853 2369.47 620.252C2358.6 615.652 2346.84 613.538 2335.05 614.065C2323.26 614.592 2311.73 617.748 2301.32 623.3L1100.41 1263C1084.26 1271.61 1071.58 1285.54 1064.53 1302.43C1057.49 1319.33 1056.51 1338.14 1061.76 1355.67V1355.67Z" fill="#234489"/>
<path d="M1111.36 1364L1351.86 2167C1355.28 2178.43 1361.24 2188.93 1369.29 2197.73C1377.33 2206.53 1387.26 2213.4 1398.34 2217.83C1409.41 2222.26 1421.34 2224.13 1433.24 2223.3C1445.14 2222.48 1456.69 2218.98 1467.05 2213.06L2648.05 1538.58C2663.46 1529.78 2675.47 1516.06 2682.15 1499.62C2688.84 1483.18 2689.81 1464.98 2684.91 1447.92L2464.31 679.65C2461.05 668.302 2455.3 657.826 2447.48 648.987C2439.65 640.149 2429.95 633.171 2419.08 628.564C2408.21 623.957 2396.44 621.838 2384.65 622.362C2372.86 622.885 2361.33 626.038 2350.91 631.59L1150 1271.36C1133.85 1279.97 1121.18 1293.89 1114.14 1310.78C1107.1 1327.67 1106.11 1346.47 1111.36 1364V1364Z" fill="#596AC3"/>
<path d="M1211.51 1353.51L1428.88 2136.76L2613.84 1470.72L2407.77 711.87L1211.51 1353.51Z" fill="white"/>
<path d="M1360.65 1373.5L1375.75 1427.91C1377.89 1435.63 1381.77 1442.77 1387.08 1448.77C1392.38 1454.78 1398.99 1459.5 1406.39 1462.58C1413.79 1465.66 1421.8 1467.01 1429.8 1466.54C1437.8 1466.06 1445.59 1463.78 1452.58 1459.85L1600.14 1376.91C1610.4 1371.15 1618.44 1362.12 1622.99 1351.26C1627.54 1340.41 1628.34 1328.35 1625.25 1316.99L1611.33 1265.73C1609.25 1258.05 1605.46 1250.94 1600.25 1244.93C1595.04 1238.92 1588.54 1234.17 1581.23 1231.02C1573.92 1227.87 1566 1226.42 1558.05 1226.76C1550.11 1227.1 1542.34 1229.24 1535.33 1233L1386.58 1312.79C1376.01 1318.46 1367.68 1327.57 1362.97 1338.6C1358.26 1349.63 1357.44 1361.94 1360.65 1373.5V1373.5Z" fill="#A8A8E2"/>
<path d="M1694.24 1149L2314 806.44C2316.64 804.984 2319.57 804.16 2322.58 804.031C2325.59 803.902 2328.59 804.472 2331.34 805.697C2334.09 806.922 2336.52 808.768 2338.44 811.09C2340.35 813.412 2341.71 816.147 2342.39 819.08L2369.82 937C2370.78 941.151 2370.36 945.502 2368.61 949.388C2366.86 953.273 2363.88 956.478 2360.14 958.51L1738.93 1296.08C1736.29 1297.51 1733.36 1298.32 1730.35 1298.43C1727.35 1298.54 1724.37 1297.95 1721.63 1296.72C1718.89 1295.49 1716.47 1293.63 1714.57 1291.31C1712.66 1288.99 1711.32 1286.26 1710.65 1283.33L1684.65 1170.33C1683.73 1166.22 1684.16 1161.91 1685.89 1158.07C1687.62 1154.22 1690.55 1151.04 1694.24 1149V1149Z" fill="#A8A8E2"/>
<path d="M1716.44 1175.94L1729.72 1246.59C1730.28 1249.6 1731.55 1252.44 1733.42 1254.87C1735.29 1257.3 1737.7 1259.25 1740.47 1260.57C1743.23 1261.89 1746.27 1262.54 1749.34 1262.47C1752.4 1262.39 1755.4 1261.59 1758.1 1260.14L2338.1 947.52C2341.85 945.498 2344.84 942.299 2346.6 938.415C2348.36 934.531 2348.8 930.177 2347.85 926.02L2329.58 846.41C2328.9 843.461 2327.55 840.711 2325.63 838.377C2323.7 836.042 2321.26 834.188 2318.5 832.961C2315.73 831.735 2312.72 831.169 2309.7 831.309C2306.68 831.45 2303.73 832.292 2301.09 833.77L1726.09 1155.35C1722.53 1157.34 1719.68 1160.4 1717.95 1164.09C1716.22 1167.79 1715.69 1171.93 1716.44 1175.94V1175.94Z" fill="#EEEDFD"/>
<path d="M1412.26 1538.2L1528.7 2015.98L2137.04 1669.69L2027.23 1219.6L1412.26 1538.2Z" fill="#D6D5FA"/>
<path d="M2113.19 1175.92L2223.64 1623.63L2546.3 1434.94L2414.34 1017.3L2113.19 1175.92Z" fill="#EEEDFD"/>
<path d="M2422.69 1116.75L2137.39 1274.02L2113.19 1175.92L2414.34 1017.3L2442.45 1106.29L2422.69 1116.75Z" fill="#A8A8E2"/>
<path d="M1477.94 1613.93L1484.04 1635.93C1484.91 1639.05 1486.47 1641.92 1488.61 1644.35C1490.76 1646.77 1493.42 1648.67 1496.4 1649.91C1499.39 1651.16 1502.62 1651.7 1505.85 1651.52C1509.08 1651.33 1512.22 1650.41 1515.04 1648.83L1574.65 1615.32C1578.8 1612.99 1582.04 1609.34 1583.88 1604.96C1585.72 1600.57 1586.04 1595.7 1584.8 1591.11L1579.17 1570.41C1578.33 1567.31 1576.8 1564.44 1574.7 1562.01C1572.59 1559.58 1569.97 1557.66 1567.02 1556.39C1564.07 1555.12 1560.87 1554.53 1557.66 1554.67C1554.45 1554.81 1551.31 1555.67 1548.48 1557.19L1488.39 1589.42C1484.13 1591.71 1480.77 1595.39 1478.87 1599.84C1476.97 1604.3 1476.64 1609.27 1477.94 1613.93V1613.93Z" fill="#FFA6CA"/>
<path d="M1521.64 1757.42L1527.74 1779.42C1528.61 1782.54 1530.17 1785.41 1532.31 1787.83C1534.46 1790.26 1537.12 1792.16 1540.1 1793.4C1543.09 1794.65 1546.32 1795.19 1549.55 1795.01C1552.78 1794.82 1555.92 1793.9 1558.74 1792.32L1618.35 1758.82C1622.5 1756.49 1625.74 1752.84 1627.58 1748.46C1629.42 1744.07 1629.74 1739.2 1628.5 1734.61L1622.88 1713.9C1622.04 1710.8 1620.51 1707.93 1618.4 1705.5C1616.29 1703.08 1613.67 1701.16 1610.72 1699.89C1607.77 1698.62 1604.57 1698.03 1601.36 1698.17C1598.15 1698.3 1595.01 1699.16 1592.18 1700.68L1532.09 1732.91C1527.83 1735.21 1524.47 1738.88 1522.57 1743.33C1520.67 1747.79 1520.34 1752.76 1521.64 1757.42V1757.42Z" fill="#FFA6CA"/>
<path d="M1845.3 978.344C1856.93 975.257 1863.85 963.33 1860.76 951.705C1857.68 940.079 1845.75 933.156 1834.12 936.243C1822.5 939.33 1815.57 951.257 1818.66 962.883C1821.75 974.509 1833.68 981.431 1845.3 978.344Z" fill="white" stroke="black" stroke-width="4" stroke-miterlimit="10" stroke-linecap="round"/>
<path d="M2295.37 922.886C2304.55 914.231 2304.98 899.769 2296.32 890.585C2287.67 881.401 2273.21 880.972 2264.02 889.627C2254.84 898.281 2254.41 912.743 2263.07 921.927C2271.72 931.111 2286.18 931.541 2295.37 922.886Z" stroke="black" stroke-width="4" stroke-miterlimit="10" stroke-linecap="round"/>
<path d="M2324.23 930.4L2299.33 917.88" stroke="black" stroke-width="4" stroke-miterlimit="10" stroke-linecap="round"/>
<path d="M1554.57 1932.68L2084.35 1626.88" stroke="#A8A8E2" stroke-width="4" stroke-miterlimit="10" stroke-linecap="round"/>
<path d="M1495.62 1702.22L1664.22 1619" stroke="#A8A8E2" stroke-width="4" stroke-miterlimit="10" stroke-linecap="round"/>
<path d="M1548.79 1852.36L1717.38 1769.14" stroke="#A8A8E2" stroke-width="4" stroke-miterlimit="10" stroke-linecap="round"/>
<path d="M1894.38 1668.87C1937.98 1625.27 1937.98 1554.57 1894.38 1510.96C1850.77 1467.36 1780.07 1467.36 1736.46 1510.96C1692.86 1554.57 1692.86 1625.27 1736.46 1668.87C1780.07 1712.48 1850.77 1712.48 1894.38 1668.87Z" fill="white"/>
<path d="M1776.38 1545.56L1813.58 1652.07L1875.52 1564.02L1776.38 1545.56Z" fill="#8F8BD8"/>
<path d="M2400.59 1098.42C2408.63 1094.71 2412.14 1085.19 2408.43 1077.15C2404.72 1069.11 2395.2 1065.6 2387.16 1069.31C2379.12 1073.02 2375.61 1082.54 2379.32 1090.58C2383.03 1098.62 2392.55 1102.13 2400.59 1098.42Z" fill="white"/>
<path d="M2182.71 1294.17L2193.36 1336.47C2194.01 1339.04 2195.26 1341.42 2197 1343.43C2198.74 1345.43 2200.92 1347 2203.38 1348.01C2205.83 1349.01 2208.49 1349.43 2211.13 1349.23C2213.78 1349.03 2216.34 1348.21 2218.61 1346.84L2387.44 1244.57C2390.35 1242.8 2392.66 1240.21 2394.07 1237.11C2395.49 1234.02 2395.94 1230.57 2395.38 1227.22L2389.57 1192.91C2389.11 1190.25 2388.03 1187.74 2386.41 1185.58C2384.79 1183.42 2382.68 1181.68 2380.25 1180.5C2377.83 1179.32 2375.15 1178.74 2372.46 1178.79C2369.76 1178.85 2367.11 1179.55 2364.74 1180.83L2191.07 1275.11C2187.76 1276.91 2185.15 1279.76 2183.63 1283.21C2182.12 1286.66 2181.79 1290.52 2182.71 1294.17Z" fill="#D6D5FA"/>
<path d="M2264.1 1372.24L2274.75 1414.53C2275.4 1417.1 2276.65 1419.49 2278.39 1421.49C2280.13 1423.49 2282.31 1425.06 2284.76 1426.07C2287.22 1427.08 2289.87 1427.5 2292.52 1427.3C2295.17 1427.1 2297.73 1426.28 2300 1424.91L2468.83 1322.63C2471.74 1320.86 2474.05 1318.27 2475.46 1315.17C2476.88 1312.08 2477.33 1308.63 2476.77 1305.28L2471 1271C2470.54 1268.34 2469.46 1265.83 2467.84 1263.67C2466.22 1261.51 2464.11 1259.77 2461.69 1258.59C2459.26 1257.4 2456.59 1256.82 2453.89 1256.87C2451.19 1256.93 2448.54 1257.63 2446.17 1258.91L2272.5 1353.2C2269.19 1354.99 2266.57 1357.84 2265.05 1361.28C2263.53 1364.73 2263.19 1368.58 2264.1 1372.24Z" fill="#D6D5FA"/>
<path d="M2242.42 1505.05L2253.07 1547.34C2253.72 1549.91 2254.97 1552.3 2256.71 1554.3C2258.45 1556.3 2260.63 1557.87 2263.08 1558.88C2265.54 1559.89 2268.19 1560.31 2270.84 1560.11C2273.49 1559.91 2276.05 1559.09 2278.32 1557.72L2447.15 1455.44C2450.06 1453.67 2452.37 1451.08 2453.78 1447.99C2455.2 1444.9 2455.65 1441.45 2455.09 1438.1L2449.28 1403.79C2448.82 1401.13 2447.74 1398.62 2446.12 1396.46C2444.5 1394.3 2442.39 1392.56 2439.97 1391.38C2437.54 1390.19 2434.87 1389.61 2432.17 1389.66C2429.47 1389.72 2426.82 1390.42 2424.45 1391.7L2250.78 1486C2247.47 1487.8 2244.86 1490.65 2243.35 1494.1C2241.83 1497.54 2241.51 1501.4 2242.42 1505.05Z" fill="#D6D5FA"/>
<path d="M1427.42 2242.57L2687.08 1532C2690.29 1530.19 2693.92 1529.26 2697.61 1529.3C2701.3 1529.34 2704.91 1530.35 2708.08 1532.23L3391.32 1937.62C3394.44 1939.48 3397.03 1942.12 3398.82 1945.28C3400.62 1948.45 3401.56 1952.02 3401.56 1955.66C3401.56 1959.29 3400.62 1962.86 3398.82 1966.03C3397.03 1969.19 3394.44 1971.83 3391.32 1973.69L2136.65 2722C2133.29 2724 2129.45 2725.02 2125.54 2724.96C2121.64 2724.89 2117.83 2723.73 2114.54 2721.62L1426.37 2278.5C1423.33 2276.54 1420.85 2273.83 1419.17 2270.63C1417.48 2267.43 1416.66 2263.85 1416.76 2260.24C1416.87 2256.63 1417.9 2253.1 1419.77 2250C1421.64 2246.91 1424.27 2244.35 1427.42 2242.57V2242.57Z" fill="#596AC3"/>
<path d="M2393.62 2277.7L2571.4 2416.84L2888.33 2214.06L2715.69 2089.61L2393.62 2277.7Z" fill="#8492CE"/>
<path d="M2067.3 2584.49C2094.94 2584.49 2117.34 2562.09 2117.34 2534.45C2117.34 2506.81 2094.94 2484.41 2067.3 2484.41C2039.66 2484.41 2017.26 2506.81 2017.26 2534.45C2017.26 2562.09 2039.66 2584.49 2067.3 2584.49Z" fill="#F4609B"/>
<path d="M2070.16 2503.13L2077.34 2517.69L2093.4 2520.02L2081.78 2531.35L2084.52 2547.35L2070.16 2539.8L2055.79 2547.35L2058.53 2531.35L2046.91 2520.02L2062.97 2517.69L2070.16 2503.13Z" fill="white"/>
<path d="M2161.07 2427.14L2192.64 2566.28L2337.07 2522.48L2307.3 2375.61L2161.07 2427.14Z" fill="#FFC47B"/>
<path d="M2241.1 2438.68C2245.5 2438.68 2249.07 2435.11 2249.07 2430.71C2249.07 2426.31 2245.5 2422.74 2241.1 2422.74C2236.7 2422.74 2233.13 2426.31 2233.13 2430.71C2233.13 2435.11 2236.7 2438.68 2241.1 2438.68Z" fill="white"/>
<path d="M2195.34 2477.71L2293.83 2449.08" stroke="white" stroke-width="4" stroke-miterlimit="10" stroke-linecap="round"/>
<path d="M2222.82 2493.74L2293.83 2470.95" stroke="white" stroke-width="4" stroke-miterlimit="10" stroke-linecap="round"/>
<path d="M2222.82 2525.24L2276.65 2509.77" stroke="white" stroke-width="4" stroke-miterlimit="10" stroke-linecap="round"/>
<path d="M2888.33 2038.08L2963.05 2112.8L3022.31 2075.44L2942.44 2003.59L2888.33 2038.08Z" fill="#CE388A"/>
<path d="M2963.05 1960.78L3076.42 2089.61L3205.25 1976.24L3097.03 1862.87L2963.05 1960.78Z" fill="#FFC47B"/>
<path d="M3011.88 1981.83L3105.79 1907.39" stroke="white" stroke-width="4" stroke-miterlimit="10" stroke-linecap="round"/>
<path d="M3039.37 1997.86L3120.68 1944.61" stroke="white" stroke-width="4" stroke-miterlimit="10" stroke-linecap="round"/>
<path d="M3142.44 1971.23L3080.02 2013.89" stroke="white" stroke-width="4" stroke-miterlimit="10" stroke-linecap="round"/>
<path d="M1559.53 2252.58L1607.4 2280.42C1608.62 2281.13 1610 2281.52 1611.42 2281.57C1612.83 2281.61 1614.24 2281.3 1615.5 2280.67L1659.16 2258.77C1660.56 2258.07 1661.74 2256.99 1662.57 2255.66C1663.4 2254.33 1663.84 2252.8 1663.86 2251.23C1663.87 2249.66 1663.45 2248.12 1662.65 2246.77C1661.85 2245.43 1660.69 2244.33 1659.3 2243.6L1609.47 2217.46C1608.29 2216.84 1606.98 2216.51 1605.64 2216.49C1604.31 2216.46 1602.99 2216.76 1601.79 2217.34L1560.09 2237.54C1558.7 2238.21 1557.52 2239.25 1556.67 2240.55C1555.82 2241.84 1555.35 2243.35 1555.29 2244.89C1555.23 2246.44 1555.6 2247.97 1556.34 2249.32C1557.09 2250.68 1558.19 2251.8 1559.53 2252.58V2252.58Z" fill="white"/>
<path d="M1559.37 2238L1607.24 2265.83C1608.46 2266.54 1609.84 2266.94 1611.26 2266.98C1612.67 2267.03 1614.08 2266.72 1615.34 2266.08L1659 2244.19C1660.4 2243.49 1661.59 2242.41 1662.42 2241.08C1663.25 2239.75 1663.7 2238.22 1663.71 2236.65C1663.72 2235.08 1663.31 2233.54 1662.5 2232.19C1661.69 2230.84 1660.53 2229.75 1659.14 2229.02L1609.31 2202.87C1608.13 2202.25 1606.82 2201.92 1605.48 2201.9C1604.15 2201.88 1602.83 2202.17 1601.63 2202.75L1559.93 2222.96C1558.54 2223.63 1557.36 2224.67 1556.51 2225.97C1555.66 2227.26 1555.19 2228.77 1555.13 2230.31C1555.07 2231.86 1555.44 2233.39 1556.18 2234.74C1556.93 2236.1 1558.03 2237.22 1559.37 2238V2238Z" fill="#234489"/>
<path d="M1678.44 2189.19L1726.31 2217.02C1727.54 2217.73 1728.92 2218.12 1730.33 2218.17C1731.75 2218.21 1733.15 2217.9 1734.42 2217.27L1778.08 2195.37C1779.48 2194.67 1780.66 2193.59 1781.49 2192.26C1782.31 2190.93 1782.76 2189.39 1782.77 2187.82C1782.79 2186.26 1782.37 2184.72 1781.56 2183.37C1780.76 2182.03 1779.6 2180.93 1778.21 2180.2L1728.38 2154.06C1727.2 2153.44 1725.89 2153.11 1724.55 2153.09C1723.22 2153.06 1721.9 2153.36 1720.7 2153.94L1679.01 2174.14C1677.62 2174.81 1676.43 2175.86 1675.59 2177.15C1674.74 2178.45 1674.26 2179.95 1674.2 2181.49C1674.15 2183.04 1674.51 2184.57 1675.26 2185.93C1676 2187.28 1677.1 2188.41 1678.44 2189.19Z" fill="white"/>
<path d="M1678.28 2174.56L1726.16 2202.39C1727.38 2203.1 1728.76 2203.5 1730.18 2203.54C1731.59 2203.59 1733 2203.28 1734.26 2202.64L1777.92 2180.75C1779.32 2180.05 1780.5 2178.97 1781.33 2177.64C1782.16 2176.31 1782.6 2174.78 1782.62 2173.21C1782.63 2171.64 1782.21 2170.1 1781.41 2168.75C1780.61 2167.41 1779.45 2166.31 1778.06 2165.58L1728.22 2139.44C1727.04 2138.82 1725.73 2138.48 1724.4 2138.46C1723.07 2138.44 1721.75 2138.73 1720.55 2139.31L1678.85 2159.52C1677.46 2160.2 1676.28 2161.24 1675.43 2162.53C1674.59 2163.82 1674.11 2165.32 1674.05 2166.87C1674 2168.41 1674.36 2169.94 1675.1 2171.3C1675.85 2172.65 1676.95 2173.78 1678.28 2174.56Z" fill="#234489"/>
<path d="M1797.36 2125.79L1845.23 2153.62C1846.45 2154.33 1847.84 2154.73 1849.25 2154.77C1850.67 2154.82 1852.07 2154.51 1853.34 2153.87L1897 2132C1898.4 2131.3 1899.59 2130.22 1900.42 2128.89C1901.25 2127.56 1901.7 2126.03 1901.71 2124.46C1901.72 2122.89 1901.31 2121.35 1900.5 2120C1899.69 2118.65 1898.53 2117.56 1897.14 2116.83L1847.31 2090.69C1846.13 2090.07 1844.82 2089.74 1843.48 2089.72C1842.15 2089.69 1840.83 2089.99 1839.63 2090.57L1797.94 2110.78C1796.55 2111.45 1795.38 2112.49 1794.53 2113.78C1793.69 2115.08 1793.22 2116.57 1793.16 2118.11C1793.1 2119.65 1793.46 2121.18 1794.2 2122.53C1794.94 2123.88 1796.03 2125.01 1797.36 2125.79V2125.79Z" fill="white"/>
<path d="M1797.2 2111.16L1845.07 2138.99C1846.29 2139.7 1847.68 2140.1 1849.09 2140.14C1850.51 2140.19 1851.91 2139.88 1853.18 2139.24L1896.83 2117.35C1898.23 2116.65 1899.42 2115.57 1900.25 2114.24C1901.08 2112.91 1901.53 2111.38 1901.54 2109.81C1901.55 2108.24 1901.14 2106.7 1900.33 2105.35C1899.52 2104 1898.36 2102.91 1896.97 2102.18L1847.14 2076C1845.96 2075.38 1844.65 2075.04 1843.32 2075.02C1841.98 2075 1840.66 2075.29 1839.46 2075.87L1797.77 2096.08C1796.37 2096.75 1795.18 2097.79 1794.33 2099.09C1793.48 2100.39 1793 2101.9 1792.94 2103.45C1792.88 2105 1793.24 2106.54 1794 2107.9C1794.75 2109.26 1795.85 2110.38 1797.2 2111.16Z" fill="#234489"/>
<path d="M1918.65 2063.44L1968.2 2088.15C1969.47 2088.78 1970.87 2089.09 1972.29 2089.04C1973.7 2088.99 1975.09 2088.59 1976.31 2087.88L2018.47 2063.23C2019.82 2062.44 2020.93 2061.29 2021.68 2059.91C2022.42 2058.53 2022.77 2056.97 2022.68 2055.41C2022.59 2053.84 2022.08 2052.33 2021.19 2051.04C2020.3 2049.75 2019.07 2048.73 2017.64 2048.09L1966.23 2025.19C1965.01 2024.64 1963.68 2024.39 1962.35 2024.45C1961.02 2024.52 1959.72 2024.89 1958.56 2025.55L1918.25 2048.39C1916.91 2049.15 1915.79 2050.27 1915.03 2051.61C1914.27 2052.96 1913.89 2054.49 1913.93 2056.04C1913.97 2057.58 1914.44 2059.09 1915.27 2060.39C1916.1 2061.7 1917.27 2062.75 1918.65 2063.44V2063.44Z" fill="white"/>
<path d="M1917.55 2048.85L1967.1 2073.56C1968.37 2074.2 1969.77 2074.5 1971.19 2074.46C1972.61 2074.41 1973.99 2074.01 1975.21 2073.29L2017.37 2048.65C2018.73 2047.86 2019.84 2046.71 2020.58 2045.33C2021.33 2043.95 2021.68 2042.39 2021.59 2040.82C2021.5 2039.25 2020.99 2037.74 2020.1 2036.45C2019.21 2035.16 2017.97 2034.14 2016.54 2033.5L1965.14 2010.6C1963.92 2010.06 1962.59 2009.81 1961.26 2009.87C1959.93 2009.94 1958.63 2010.31 1957.47 2010.97L1917.15 2033.8C1915.81 2034.56 1914.69 2035.68 1913.93 2037.02C1913.17 2038.37 1912.79 2039.9 1912.83 2041.44C1912.87 2042.99 1913.34 2044.5 1914.17 2045.8C1915 2047.11 1916.17 2048.16 1917.55 2048.85Z" fill="#234489"/>
<path d="M2033.26 1992.56L2082.82 2017.27C2084.09 2017.9 2085.49 2018.21 2086.9 2018.16C2088.32 2018.11 2089.7 2017.71 2090.92 2017L2133.09 1992.35C2134.44 1991.56 2135.55 1990.41 2136.29 1989.03C2137.04 1987.65 2137.38 1986.09 2137.3 1984.52C2137.21 1982.96 2136.69 1981.45 2135.8 1980.16C2134.91 1978.87 2133.68 1977.85 2132.25 1977.21L2080.85 1954.3C2079.63 1953.76 2078.3 1953.51 2076.97 1953.57C2075.64 1953.64 2074.34 1954.01 2073.18 1954.67L2032.87 1977.51C2031.52 1978.27 2030.41 1979.38 2029.64 1980.73C2028.88 1982.08 2028.5 1983.61 2028.54 1985.15C2028.58 1986.7 2029.04 1988.21 2029.87 1989.51C2030.7 1990.82 2031.87 1991.87 2033.26 1992.56V1992.56Z" fill="white"/>
<path d="M2032.17 1978L2081.72 2002.71C2082.99 2003.35 2084.39 2003.65 2085.81 2003.61C2087.23 2003.56 2088.61 2003.16 2089.83 2002.44L2131.99 1977.8C2133.34 1977.01 2134.45 1975.86 2135.19 1974.48C2135.94 1973.1 2136.28 1971.54 2136.2 1969.97C2136.11 1968.41 2135.6 1966.89 2134.71 1965.6C2133.82 1964.31 2132.59 1963.29 2131.16 1962.65L2079.76 1939.75C2078.54 1939.21 2077.21 1938.96 2075.88 1939.02C2074.54 1939.09 2073.24 1939.46 2072.08 1940.12L2031.77 1962.95C2030.43 1963.71 2029.31 1964.83 2028.55 1966.17C2027.79 1967.52 2027.41 1969.05 2027.45 1970.6C2027.49 1972.14 2027.96 1973.65 2028.79 1974.95C2029.62 1976.26 2030.79 1977.31 2032.17 1978Z" fill="#234489"/>
<path d="M2147.88 1921.67L2197.43 1946.39C2198.7 1947.02 2200.1 1947.33 2201.52 1947.28C2202.93 1947.23 2204.32 1946.83 2205.54 1946.12L2247.7 1921.47C2249.05 1920.68 2250.16 1919.53 2250.9 1918.15C2251.65 1916.77 2251.99 1915.21 2251.91 1913.64C2251.82 1912.08 2251.31 1910.56 2250.42 1909.27C2249.53 1907.98 2248.3 1906.96 2246.87 1906.32L2195.47 1883.42C2194.25 1882.88 2192.92 1882.63 2191.59 1882.69C2190.26 1882.76 2188.96 1883.13 2187.8 1883.79L2147.48 1906.63C2146.13 1907.39 2145.02 1908.51 2144.26 1909.85C2143.5 1911.2 2143.12 1912.72 2143.16 1914.27C2143.2 1915.82 2143.66 1917.32 2144.49 1918.62C2145.33 1919.93 2146.5 1920.98 2147.88 1921.67V1921.67Z" fill="white"/>
<path d="M2146.78 1907.09L2196.34 1931.8C2197.61 1932.43 2199.01 1932.74 2200.42 1932.69C2201.84 1932.65 2203.22 1932.25 2204.44 1931.53L2246.61 1906.89C2247.96 1906.1 2249.07 1904.95 2249.81 1903.57C2250.55 1902.18 2250.9 1900.62 2250.81 1899.06C2250.73 1897.49 2250.21 1895.98 2249.32 1894.69C2248.43 1893.4 2247.2 1892.38 2245.77 1891.74L2194.37 1868.84C2193.15 1868.3 2191.82 1868.05 2190.49 1868.11C2189.16 1868.18 2187.86 1868.55 2186.7 1869.21L2146.39 1892C2145.03 1892.76 2143.91 1893.87 2143.14 1895.22C2142.38 1896.58 2141.99 1898.11 2142.03 1899.66C2142.07 1901.22 2142.53 1902.73 2143.37 1904.04C2144.21 1905.35 2145.39 1906.4 2146.78 1907.09Z" fill="#234489"/>
<path d="M2278 1859.38L2327.56 1884.09C2328.83 1884.72 2330.23 1885.03 2331.64 1884.99C2333.06 1884.94 2334.44 1884.54 2335.66 1883.83L2377.83 1859.18C2379.19 1858.39 2380.31 1857.24 2381.06 1855.86C2381.8 1854.47 2382.15 1852.91 2382.07 1851.34C2381.98 1849.76 2381.46 1848.25 2380.57 1846.95C2379.67 1845.66 2378.44 1844.64 2377 1844L2325.59 1821.1C2324.37 1820.56 2323.04 1820.31 2321.71 1820.37C2320.38 1820.44 2319.08 1820.81 2317.92 1821.47L2277.61 1844.31C2276.26 1845.07 2275.14 1846.18 2274.37 1847.53C2273.6 1848.88 2273.22 1850.41 2273.26 1851.96C2273.3 1853.51 2273.76 1855.02 2274.6 1856.33C2275.43 1857.64 2276.61 1858.69 2278 1859.38Z" fill="white"/>
<path d="M2276.86 1844.8L2326.41 1869.51C2327.68 1870.14 2329.08 1870.45 2330.5 1870.4C2331.91 1870.35 2333.3 1869.95 2334.52 1869.24L2376.68 1844.6C2378.03 1843.81 2379.14 1842.66 2379.88 1841.28C2380.63 1839.9 2380.97 1838.34 2380.89 1836.77C2380.8 1835.21 2380.29 1833.69 2379.4 1832.4C2378.51 1831.11 2377.28 1830.09 2375.85 1829.45L2324.45 1806.55C2323.23 1806.01 2321.9 1805.76 2320.57 1805.82C2319.24 1805.88 2317.94 1806.26 2316.78 1806.92L2276.46 1829.75C2275.12 1830.51 2274 1831.63 2273.24 1832.97C2272.48 1834.32 2272.1 1835.85 2272.14 1837.4C2272.18 1838.94 2272.65 1840.45 2273.48 1841.75C2274.31 1843.06 2275.48 1844.11 2276.86 1844.8V1844.8Z" fill="#234489"/>
<path d="M2392.57 1788.5L2442.12 1813.21C2443.39 1813.85 2444.79 1814.15 2446.21 1814.11C2447.63 1814.06 2449.01 1813.66 2450.23 1812.94L2492.39 1788.3C2493.74 1787.51 2494.85 1786.36 2495.59 1784.98C2496.34 1783.6 2496.68 1782.04 2496.6 1780.47C2496.51 1778.91 2496 1777.39 2495.11 1776.1C2494.22 1774.81 2492.99 1773.79 2491.56 1773.15L2440.16 1750.25C2438.94 1749.71 2437.61 1749.46 2436.28 1749.52C2434.95 1749.59 2433.65 1749.96 2432.49 1750.62L2392.17 1773.46C2390.82 1774.22 2389.71 1775.34 2388.95 1776.68C2388.19 1778.03 2387.81 1779.55 2387.85 1781.1C2387.89 1782.65 2388.35 1784.15 2389.18 1785.45C2390.02 1786.76 2391.19 1787.81 2392.57 1788.5Z" fill="white"/>
<path d="M2391.48 1773.92L2441.03 1798.63C2442.3 1799.26 2443.7 1799.57 2445.12 1799.52C2446.53 1799.47 2447.92 1799.07 2449.14 1798.36L2491.3 1773.72C2492.65 1772.93 2493.76 1771.78 2494.5 1770.4C2495.25 1769.02 2495.59 1767.46 2495.51 1765.89C2495.42 1764.33 2494.91 1762.81 2494.02 1761.52C2493.13 1760.23 2491.9 1759.21 2490.47 1758.57L2439.06 1735.67C2437.84 1735.13 2436.51 1734.88 2435.18 1734.94C2433.85 1735 2432.55 1735.38 2431.39 1736.04L2391.08 1758.87C2389.74 1759.63 2388.62 1760.75 2387.86 1762.09C2387.1 1763.44 2386.72 1764.97 2386.76 1766.52C2386.8 1768.06 2387.27 1769.57 2388.1 1770.87C2388.93 1772.18 2390.1 1773.23 2391.48 1773.92Z" fill="#234489"/>
<path d="M2507.19 1717.62L2556.74 1742.33C2558.01 1742.97 2559.41 1743.27 2560.83 1743.23C2562.25 1743.18 2563.63 1742.78 2564.85 1742.06L2607.01 1717.42C2608.36 1716.63 2609.47 1715.48 2610.21 1714.1C2610.96 1712.72 2611.3 1711.16 2611.22 1709.59C2611.13 1708.03 2610.62 1706.51 2609.73 1705.22C2608.84 1703.93 2607.61 1702.91 2606.18 1702.27L2554.77 1679.37C2553.55 1678.83 2552.22 1678.58 2550.89 1678.64C2549.56 1678.71 2548.26 1679.08 2547.1 1679.74L2506.79 1702.57C2505.45 1703.33 2504.33 1704.45 2503.57 1705.79C2502.81 1707.14 2502.43 1708.67 2502.47 1710.22C2502.51 1711.76 2502.98 1713.27 2503.81 1714.57C2504.64 1715.88 2505.81 1716.93 2507.19 1717.62Z" fill="white"/>
<path d="M2506.09 1703L2555.65 1727.71C2556.92 1728.34 2558.32 1728.65 2559.73 1728.6C2561.15 1728.55 2562.53 1728.15 2563.75 1727.44L2605.92 1702.79C2607.27 1702 2608.38 1700.85 2609.12 1699.47C2609.87 1698.09 2610.21 1696.53 2610.13 1694.96C2610.04 1693.4 2609.52 1691.89 2608.63 1690.6C2607.74 1689.31 2606.51 1688.29 2605.08 1687.65L2553.68 1664.75C2552.46 1664.21 2551.13 1663.96 2549.8 1664.02C2548.47 1664.08 2547.17 1664.46 2546.01 1665.12L2505.69 1688C2504.36 1688.77 2503.26 1689.88 2502.51 1691.22C2501.75 1692.56 2501.38 1694.08 2501.42 1695.62C2501.46 1697.16 2501.92 1698.65 2502.74 1699.95C2503.56 1701.25 2504.72 1702.3 2506.09 1703Z" fill="#234489"/>
<path d="M2621.8 1646.74L2671.36 1671.45C2672.63 1672.08 2674.03 1672.39 2675.44 1672.34C2676.86 1672.3 2678.24 1671.9 2679.46 1671.18L2721.63 1646.54C2722.98 1645.75 2724.09 1644.6 2724.83 1643.22C2725.57 1641.83 2725.92 1640.27 2725.83 1638.71C2725.75 1637.14 2725.23 1635.63 2724.34 1634.34C2723.45 1633.05 2722.22 1632.03 2720.79 1631.39L2669.39 1608.49C2668.17 1607.95 2666.84 1607.7 2665.51 1607.76C2664.18 1607.83 2662.88 1608.2 2661.72 1608.86L2621.41 1631.69C2620.06 1632.45 2618.95 1633.56 2618.18 1634.91C2617.42 1636.26 2617.04 1637.79 2617.08 1639.33C2617.12 1640.88 2617.58 1642.39 2618.41 1643.69C2619.24 1645 2620.41 1646.05 2621.8 1646.74Z" fill="white"/>
<path d="M2620.71 1632.16L2670.26 1656.87C2671.53 1657.5 2672.93 1657.81 2674.35 1657.76C2675.76 1657.71 2677.15 1657.31 2678.37 1656.6L2720.53 1631.95C2721.88 1631.16 2722.99 1630.01 2723.74 1628.63C2724.48 1627.25 2724.83 1625.69 2724.74 1624.13C2724.65 1622.56 2724.14 1621.05 2723.25 1619.76C2722.36 1618.47 2721.13 1617.45 2719.7 1616.81L2668.3 1593.91C2667.08 1593.37 2665.75 1593.12 2664.42 1593.18C2663.09 1593.24 2661.79 1593.62 2660.63 1594.28L2620.31 1617.11C2618.97 1617.87 2617.85 1618.99 2617.09 1620.33C2616.33 1621.68 2615.95 1623.21 2615.99 1624.75C2616.03 1626.3 2616.5 1627.81 2617.33 1629.11C2618.16 1630.42 2619.33 1631.47 2620.71 1632.16V1632.16Z" fill="#234489"/>
<path d="M1666.48 2320.52L1714.36 2348.35C1715.58 2349.06 1716.96 2349.46 1718.38 2349.5C1719.79 2349.55 1721.2 2349.24 1722.46 2348.6L1766.12 2326.71C1767.52 2326.01 1768.7 2324.93 1769.53 2323.6C1770.36 2322.27 1770.8 2320.74 1770.82 2319.17C1770.83 2317.6 1770.41 2316.06 1769.61 2314.71C1768.81 2313.37 1767.65 2312.27 1766.26 2311.54L1716.42 2285.39C1715.24 2284.77 1713.93 2284.44 1712.6 2284.42C1711.27 2284.4 1709.95 2284.69 1708.75 2285.27L1667.05 2305.48C1665.66 2306.16 1664.48 2307.2 1663.63 2308.49C1662.79 2309.78 1662.31 2311.28 1662.25 2312.83C1662.2 2314.37 1662.56 2315.9 1663.3 2317.26C1664.05 2318.61 1665.14 2319.74 1666.48 2320.52V2320.52Z" fill="white"/>
<path d="M1666.33 2305.89L1714.2 2333.73C1715.42 2334.44 1716.8 2334.83 1718.22 2334.88C1719.63 2334.92 1721.04 2334.61 1722.3 2333.98L1765.96 2312.08C1767.36 2311.38 1768.54 2310.3 1769.37 2308.97C1770.2 2307.64 1770.64 2306.11 1770.66 2304.54C1770.67 2302.97 1770.25 2301.43 1769.45 2300.08C1768.65 2298.74 1767.49 2297.64 1766.1 2296.91L1716.26 2270.77C1715.08 2270.15 1713.77 2269.82 1712.44 2269.8C1711.11 2269.77 1709.79 2270.07 1708.59 2270.65L1666.89 2290.85C1665.5 2291.52 1664.32 2292.56 1663.47 2293.86C1662.62 2295.15 1662.15 2296.66 1662.09 2298.2C1662.03 2299.75 1662.4 2301.28 1663.14 2302.63C1663.89 2303.99 1664.99 2305.11 1666.33 2305.89V2305.89Z" fill="#234489"/>
<path d="M1785.4 2257.12L1833.27 2284.95C1834.49 2285.66 1835.88 2286.06 1837.29 2286.1C1838.71 2286.15 1840.11 2285.84 1841.38 2285.2L1885.03 2263.31C1886.43 2262.61 1887.62 2261.53 1888.45 2260.2C1889.28 2258.87 1889.73 2257.34 1889.74 2255.77C1889.75 2254.2 1889.34 2252.66 1888.53 2251.31C1887.72 2249.96 1886.56 2248.87 1885.17 2248.14L1835.34 2222C1834.16 2221.38 1832.85 2221.05 1831.51 2221.03C1830.18 2221.01 1828.86 2221.3 1827.66 2221.88L1786 2242.08C1784.61 2242.75 1783.43 2243.79 1782.58 2245.08C1781.73 2246.38 1781.25 2247.88 1781.19 2249.42C1781.13 2250.96 1781.49 2252.5 1782.23 2253.85C1782.97 2255.21 1784.07 2256.34 1785.4 2257.12V2257.12Z" fill="white"/>
<path d="M1785.24 2242.5L1833.11 2270.33C1834.34 2271.04 1835.72 2271.43 1837.13 2271.48C1838.55 2271.52 1839.95 2271.21 1841.22 2270.58L1884.88 2248.68C1886.28 2247.97 1887.46 2246.9 1888.29 2245.57C1889.11 2244.24 1889.56 2242.7 1889.57 2241.13C1889.59 2239.57 1889.17 2238.03 1888.36 2236.68C1887.56 2235.34 1886.4 2234.24 1885.01 2233.51L1835.18 2207.37C1834 2206.75 1832.69 2206.42 1831.35 2206.4C1830.02 2206.37 1828.7 2206.67 1827.5 2207.25L1785.81 2227.45C1784.42 2228.12 1783.23 2229.17 1782.39 2230.46C1781.54 2231.76 1781.06 2233.26 1781.01 2234.8C1780.95 2236.35 1781.31 2237.88 1782.06 2239.24C1782.8 2240.59 1783.9 2241.72 1785.24 2242.5Z" fill="#234489"/>
<path d="M1904.32 2193.72L1952.19 2221.55C1953.41 2222.26 1954.8 2222.66 1956.21 2222.7C1957.63 2222.75 1959.03 2222.44 1960.3 2221.8L2003.95 2199.91C2005.35 2199.21 2006.54 2198.13 2007.37 2196.8C2008.2 2195.47 2008.65 2193.94 2008.66 2192.37C2008.67 2190.8 2008.26 2189.26 2007.45 2187.91C2006.64 2186.56 2005.48 2185.47 2004.09 2184.74L1954.26 2158.59C1953.08 2157.97 1951.77 2157.64 1950.43 2157.62C1949.1 2157.6 1947.78 2157.89 1946.58 2158.47L1904.89 2178.68C1903.5 2179.35 1902.31 2180.39 1901.47 2181.69C1900.62 2182.98 1900.14 2184.48 1900.08 2186.03C1900.02 2187.57 1900.39 2189.11 1901.13 2190.46C1901.88 2191.82 1902.98 2192.94 1904.32 2193.72V2193.72Z" fill="white"/>
<path d="M1904.16 2179.1L1952.03 2206.93C1953.26 2207.64 1954.64 2208.03 1956.05 2208.08C1957.47 2208.12 1958.87 2207.81 1960.14 2207.18L2003.79 2185.28C2005.19 2184.58 2006.38 2183.5 2007.21 2182.17C2008.04 2180.84 2008.49 2179.31 2008.5 2177.74C2008.51 2176.17 2008.1 2174.63 2007.29 2173.28C2006.48 2171.93 2005.32 2170.84 2003.93 2170.11L1954.1 2144C1952.92 2143.38 1951.61 2143.05 1950.27 2143.03C1948.94 2143 1947.62 2143.3 1946.42 2143.88L1904.73 2164.08C1903.34 2164.76 1902.17 2165.8 1901.33 2167.09C1900.49 2168.38 1900.01 2169.88 1899.95 2171.42C1899.89 2172.96 1900.25 2174.49 1901 2175.84C1901.74 2177.19 1902.83 2178.32 1904.16 2179.1Z" fill="#234489"/>
<path d="M2025.6 2131.37L2075.16 2156.08C2076.43 2156.71 2077.83 2157.02 2079.25 2156.97C2080.67 2156.93 2082.05 2156.53 2083.27 2155.81L2125.43 2131.17C2126.78 2130.38 2127.89 2129.23 2128.63 2127.85C2129.38 2126.47 2129.72 2124.91 2129.64 2123.34C2129.55 2121.78 2129.04 2120.26 2128.15 2118.97C2127.26 2117.68 2126.03 2116.66 2124.6 2116.02L2073.19 2093.12C2071.97 2092.58 2070.64 2092.33 2069.31 2092.39C2067.98 2092.46 2066.68 2092.83 2065.52 2093.49L2025.21 2116.32C2023.86 2117.08 2022.75 2118.2 2021.99 2119.54C2021.23 2120.89 2020.85 2122.42 2020.89 2123.96C2020.93 2125.51 2021.39 2127.01 2022.22 2128.32C2023.05 2129.62 2024.22 2130.68 2025.6 2131.37V2131.37Z" fill="white"/>
<path d="M2024.51 2116.79L2074.06 2141.5C2075.33 2142.13 2076.73 2142.44 2078.15 2142.39C2079.56 2142.34 2080.95 2141.94 2082.17 2141.23L2124.33 2116.58C2125.68 2115.79 2126.79 2114.64 2127.54 2113.26C2128.28 2111.88 2128.63 2110.32 2128.54 2108.76C2128.45 2107.19 2127.94 2105.68 2127.05 2104.39C2126.16 2103.1 2124.93 2102.08 2123.5 2101.44L2072.1 2078.54C2070.88 2077.99 2069.55 2077.74 2068.22 2077.8C2066.89 2077.87 2065.59 2078.24 2064.43 2078.9L2024.11 2101.74C2022.77 2102.5 2021.65 2103.62 2020.89 2104.96C2020.13 2106.31 2019.75 2107.84 2019.79 2109.39C2019.83 2110.93 2020.3 2112.44 2021.13 2113.74C2021.96 2115.05 2023.13 2116.1 2024.51 2116.79V2116.79Z" fill="#234489"/>
<path d="M2140.22 2060.49L2189.77 2085.2C2191.04 2085.83 2192.44 2086.14 2193.86 2086.09C2195.27 2086.04 2196.66 2085.64 2197.88 2084.93L2240.04 2060.29C2241.39 2059.5 2242.5 2058.35 2243.24 2056.97C2243.99 2055.59 2244.33 2054.03 2244.25 2052.46C2244.16 2050.9 2243.65 2049.38 2242.76 2048.09C2241.87 2046.8 2240.64 2045.78 2239.21 2045.14L2187.81 2022.24C2186.59 2021.7 2185.26 2021.45 2183.93 2021.51C2182.6 2021.58 2181.3 2021.95 2180.14 2022.61L2139.82 2045.44C2138.48 2046.2 2137.36 2047.32 2136.6 2048.66C2135.84 2050.01 2135.46 2051.54 2135.5 2053.08C2135.54 2054.63 2136.01 2056.14 2136.84 2057.44C2137.67 2058.75 2138.84 2059.8 2140.22 2060.49Z" fill="white"/>
<path d="M2139.13 2045.91L2188.68 2070.62C2189.95 2071.25 2191.35 2071.56 2192.77 2071.51C2194.18 2071.46 2195.57 2071.06 2196.79 2070.35L2239 2045.7C2240.35 2044.91 2241.46 2043.76 2242.21 2042.38C2242.95 2041 2243.3 2039.44 2243.21 2037.88C2243.12 2036.31 2242.61 2034.8 2241.72 2033.51C2240.83 2032.22 2239.6 2031.2 2238.17 2030.56L2186.76 2007.65C2185.54 2007.11 2184.21 2006.86 2182.88 2006.92C2181.55 2006.99 2180.25 2007.36 2179.09 2008.02L2138.78 2030.86C2137.43 2031.62 2136.32 2032.73 2135.55 2034.07C2134.79 2035.42 2134.4 2036.94 2134.44 2038.49C2134.48 2040.04 2134.93 2041.54 2135.76 2042.85C2136.58 2044.16 2137.75 2045.21 2139.13 2045.91V2045.91Z" fill="#234489"/>
<path d="M2254.84 1989.61L2304.39 2014.32C2305.66 2014.95 2307.06 2015.26 2308.48 2015.21C2309.89 2015.16 2311.28 2014.76 2312.5 2014.05L2354.66 1989.41C2356.01 1988.62 2357.12 1987.47 2357.86 1986.09C2358.61 1984.71 2358.95 1983.15 2358.87 1981.58C2358.78 1980.02 2358.27 1978.5 2357.38 1977.21C2356.49 1975.92 2355.26 1974.9 2353.83 1974.26L2302.43 1951.36C2301.21 1950.82 2299.88 1950.57 2298.55 1950.63C2297.21 1950.69 2295.91 1951.07 2294.75 1951.73L2254.44 1974.56C2253.1 1975.32 2251.98 1976.44 2251.22 1977.78C2250.46 1979.13 2250.08 1980.66 2250.12 1982.21C2250.16 1983.75 2250.63 1985.26 2251.46 1986.56C2252.29 1987.87 2253.46 1988.92 2254.84 1989.61V1989.61Z" fill="white"/>
<path d="M2253.74 1975L2303.3 1999.72C2304.57 2000.35 2305.97 2000.66 2307.38 2000.61C2308.8 2000.56 2310.18 2000.16 2311.4 1999.45L2353.57 1974.8C2354.92 1974.01 2356.03 1972.86 2356.77 1971.48C2357.51 1970.09 2357.86 1968.53 2357.77 1966.97C2357.69 1965.4 2357.17 1963.89 2356.28 1962.6C2355.39 1961.31 2354.16 1960.29 2352.73 1959.65L2301.33 1936.75C2300.11 1936.21 2298.78 1935.96 2297.45 1936.02C2296.12 1936.09 2294.82 1936.46 2293.66 1937.12L2253.34 1960C2252.01 1960.77 2250.9 1961.88 2250.15 1963.22C2249.39 1964.56 2249.02 1966.08 2249.06 1967.62C2249.1 1969.16 2249.56 1970.66 2250.38 1971.96C2251.21 1973.26 2252.37 1974.31 2253.74 1975V1975Z" fill="#234489"/>
<path d="M2384.91 1927.32L2434.47 1952.03C2435.74 1952.66 2437.14 1952.97 2438.55 1952.92C2439.97 1952.87 2441.35 1952.47 2442.57 1951.76L2484.74 1927.11C2486.09 1926.32 2487.2 1925.17 2487.94 1923.79C2488.69 1922.41 2489.03 1920.85 2488.95 1919.28C2488.86 1917.72 2488.34 1916.21 2487.45 1914.92C2486.56 1913.63 2485.33 1912.61 2483.9 1911.97L2432.5 1889.07C2431.28 1888.53 2429.95 1888.28 2428.62 1888.34C2427.29 1888.4 2425.99 1888.78 2424.83 1889.44L2384.52 1912.27C2383.17 1913.03 2382.06 1914.15 2381.3 1915.49C2380.54 1916.84 2380.16 1918.37 2380.2 1919.91C2380.24 1921.46 2380.7 1922.96 2381.53 1924.27C2382.36 1925.57 2383.53 1926.63 2384.91 1927.32V1927.32Z" fill="white"/>
<path d="M2383.82 1912.73L2433.37 1937.44C2434.64 1938.07 2436.04 1938.38 2437.46 1938.34C2438.87 1938.29 2440.26 1937.89 2441.48 1937.18L2483.64 1912.53C2484.99 1911.74 2486.1 1910.59 2486.84 1909.21C2487.59 1907.83 2487.93 1906.27 2487.85 1904.7C2487.76 1903.14 2487.25 1901.62 2486.36 1900.33C2485.47 1899.04 2484.24 1898.02 2482.81 1897.38L2431.41 1874.48C2430.19 1873.94 2428.86 1873.69 2427.53 1873.75C2426.2 1873.82 2424.9 1874.19 2423.74 1874.85L2383.42 1897.69C2382.07 1898.45 2380.96 1899.57 2380.2 1900.91C2379.44 1902.26 2379.06 1903.78 2379.1 1905.33C2379.14 1906.88 2379.6 1908.38 2380.43 1909.68C2381.27 1910.99 2382.44 1912.04 2383.82 1912.73Z" fill="#234489"/>
<path d="M2499.53 1856.44L2549.08 1881.15C2550.35 1881.78 2551.75 1882.09 2553.17 1882.04C2554.58 1881.99 2555.97 1881.59 2557.19 1880.88L2599.35 1856.23C2600.7 1855.44 2601.81 1854.29 2602.56 1852.91C2603.3 1851.53 2603.65 1849.97 2603.56 1848.41C2603.47 1846.84 2602.96 1845.33 2602.07 1844.04C2601.18 1842.75 2599.95 1841.73 2598.52 1841.09L2547.12 1818.19C2545.9 1817.65 2544.57 1817.4 2543.24 1817.46C2541.91 1817.52 2540.61 1817.9 2539.45 1818.56L2499.13 1841.39C2497.79 1842.15 2496.67 1843.27 2495.91 1844.61C2495.15 1845.96 2494.77 1847.49 2494.81 1849.04C2494.85 1850.58 2495.32 1852.09 2496.15 1853.39C2496.98 1854.7 2498.15 1855.75 2499.53 1856.44V1856.44Z" fill="white"/>
<path d="M2498.43 1841.85L2547.99 1866.56C2549.26 1867.2 2550.66 1867.5 2552.07 1867.46C2553.49 1867.41 2554.87 1867.01 2556.09 1866.29L2598.26 1841.65C2599.61 1840.86 2600.72 1839.71 2601.46 1838.33C2602.21 1836.95 2602.55 1835.39 2602.47 1833.82C2602.38 1832.26 2601.87 1830.74 2600.98 1829.45C2600.09 1828.16 2598.86 1827.14 2597.43 1826.5L2546 1803.6C2544.78 1803.06 2543.45 1802.81 2542.12 1802.87C2540.79 1802.94 2539.49 1803.31 2538.33 1803.97L2498 1826.81C2496.66 1827.57 2495.55 1828.69 2494.79 1830.04C2494.03 1831.39 2493.65 1832.91 2493.7 1834.46C2493.74 1836 2494.2 1837.51 2495.04 1838.81C2495.87 1840.11 2497.04 1841.16 2498.43 1841.85V1841.85Z" fill="#234489"/>
<path d="M2614.15 1785.56L2663.7 1810.27C2664.97 1810.9 2666.37 1811.21 2667.79 1811.16C2669.2 1811.11 2670.59 1810.71 2671.81 1810L2713.97 1785.35C2715.32 1784.56 2716.43 1783.41 2717.18 1782.03C2717.92 1780.65 2718.27 1779.09 2718.18 1777.53C2718.09 1775.96 2717.58 1774.45 2716.69 1773.16C2715.8 1771.87 2714.57 1770.85 2713.14 1770.21L2661.73 1747.31C2660.51 1746.76 2659.18 1746.51 2657.85 1746.57C2656.52 1746.64 2655.22 1747.01 2654.06 1747.67L2613.75 1770.51C2612.41 1771.27 2611.29 1772.39 2610.53 1773.73C2609.77 1775.08 2609.39 1776.61 2609.43 1778.15C2609.47 1779.7 2609.94 1781.21 2610.77 1782.51C2611.6 1783.82 2612.77 1784.87 2614.15 1785.56Z" fill="white"/>
<path d="M2613.05 1771L2662.6 1795.71C2663.87 1796.35 2665.27 1796.65 2666.69 1796.61C2668.11 1796.56 2669.49 1796.16 2670.71 1795.44L2712.87 1770.8C2714.22 1770.01 2715.33 1768.86 2716.07 1767.48C2716.82 1766.1 2717.16 1764.54 2717.08 1762.97C2716.99 1761.41 2716.48 1759.89 2715.59 1758.6C2714.7 1757.31 2713.47 1756.29 2712.04 1755.65L2660.64 1732.75C2659.42 1732.21 2658.09 1731.96 2656.76 1732.02C2655.43 1732.09 2654.13 1732.46 2652.97 1733.12L2612.65 1755.95C2611.31 1756.71 2610.19 1757.83 2609.43 1759.17C2608.67 1760.52 2608.29 1762.05 2608.33 1763.6C2608.37 1765.14 2608.84 1766.65 2609.67 1767.95C2610.5 1769.26 2611.67 1770.31 2613.05 1771V1771Z" fill="#234489"/>
<path d="M2728.76 1714.68L2778.31 1739.39C2779.58 1740.02 2780.98 1740.33 2782.4 1740.28C2783.81 1740.23 2785.2 1739.83 2786.42 1739.12L2828.58 1714.47C2829.93 1713.68 2831.04 1712.53 2831.79 1711.15C2832.53 1709.77 2832.88 1708.21 2832.79 1706.65C2832.7 1705.08 2832.19 1703.57 2831.3 1702.28C2830.41 1700.99 2829.18 1699.97 2827.75 1699.33L2776.35 1676.42C2775.13 1675.88 2773.8 1675.63 2772.47 1675.69C2771.14 1675.76 2769.84 1676.13 2768.68 1676.79L2728.36 1699.63C2727.02 1700.39 2725.9 1701.51 2725.14 1702.85C2724.38 1704.2 2724 1705.73 2724.04 1707.28C2724.08 1708.82 2724.55 1710.33 2725.38 1711.63C2726.21 1712.94 2727.38 1713.99 2728.76 1714.68Z" fill="white"/>
<path d="M2727.67 1700.09L2777.22 1724.8C2778.49 1725.43 2779.89 1725.74 2781.31 1725.69C2782.73 1725.65 2784.11 1725.25 2785.33 1724.53L2827.49 1699.89C2828.84 1699.1 2829.95 1697.95 2830.69 1696.57C2831.44 1695.19 2831.78 1693.63 2831.7 1692.06C2831.61 1690.5 2831.1 1688.98 2830.21 1687.69C2829.32 1686.4 2828.09 1685.38 2826.66 1684.74L2775.25 1661.84C2774.03 1661.3 2772.7 1661.05 2771.37 1661.11C2770.04 1661.18 2768.74 1661.55 2767.58 1662.21L2727.27 1685C2725.91 1685.76 2724.79 1686.88 2724.03 1688.23C2723.26 1689.58 2722.87 1691.11 2722.92 1692.67C2722.96 1694.22 2723.42 1695.73 2724.26 1697.04C2725.1 1698.35 2726.28 1699.4 2727.67 1700.09V1700.09Z" fill="#234489"/>
<path d="M1787.19 2381.58L1835.06 2409.41C1836.28 2410.12 1837.66 2410.52 1839.08 2410.56C1840.49 2410.61 1841.9 2410.3 1843.16 2409.66L1886.82 2387.77C1888.22 2387.07 1889.4 2385.99 1890.23 2384.66C1891.06 2383.33 1891.5 2381.8 1891.52 2380.23C1891.53 2378.66 1891.11 2377.12 1890.31 2375.77C1889.51 2374.43 1888.35 2373.33 1886.96 2372.6L1837.13 2346.46C1835.95 2345.84 1834.64 2345.5 1833.31 2345.48C1831.97 2345.46 1830.65 2345.75 1829.45 2346.33L1787.75 2366.54C1786.36 2367.21 1785.17 2368.25 1784.33 2369.55C1783.48 2370.84 1783.01 2372.35 1782.95 2373.89C1782.89 2375.44 1783.26 2376.97 1784 2378.32C1784.75 2379.68 1785.85 2380.8 1787.19 2381.58Z" fill="white"/>
<path d="M1787 2367L1834.87 2394.83C1836.09 2395.54 1837.47 2395.94 1838.89 2395.98C1840.3 2396.03 1841.71 2395.72 1842.97 2395.08L1886.63 2373.18C1888.03 2372.48 1889.21 2371.4 1890.04 2370.07C1890.87 2368.74 1891.32 2367.21 1891.33 2365.64C1891.34 2364.08 1890.93 2362.54 1890.12 2361.19C1889.32 2359.85 1888.16 2358.75 1886.77 2358.02L1837 2331.83C1835.82 2331.21 1834.51 2330.88 1833.17 2330.86C1831.84 2330.83 1830.52 2331.13 1829.32 2331.71L1787.62 2351.92C1786.21 2352.58 1785.02 2353.62 1784.16 2354.92C1783.3 2356.21 1782.81 2357.72 1782.75 2359.27C1782.69 2360.83 1783.05 2362.37 1783.8 2363.73C1784.55 2365.09 1785.65 2366.22 1787 2367Z" fill="#234489"/>
<path d="M1906.1 2318.18L1954 2346C1955.23 2346.71 1956.61 2347.1 1958.02 2347.15C1959.44 2347.19 1960.84 2346.88 1962.11 2346.25L2005.77 2324.35C2007.17 2323.65 2008.35 2322.57 2009.18 2321.24C2010 2319.91 2010.45 2318.37 2010.46 2316.8C2010.48 2315.24 2010.06 2313.7 2009.25 2312.35C2008.45 2311.01 2007.29 2309.91 2005.9 2309.18L1956 2283.06C1954.82 2282.44 1953.51 2282.1 1952.18 2282.08C1950.84 2282.06 1949.52 2282.35 1948.32 2282.93L1906.63 2303.14C1905.24 2303.82 1904.06 2304.86 1903.22 2306.16C1902.38 2307.46 1901.91 2308.96 1901.86 2310.5C1901.8 2312.05 1902.17 2313.58 1902.91 2314.93C1903.66 2316.28 1904.76 2317.4 1906.1 2318.18V2318.18Z" fill="white"/>
<path d="M1905.94 2303.56L1953.82 2331.39C1955.04 2332.1 1956.42 2332.5 1957.84 2332.54C1959.25 2332.59 1960.66 2332.28 1961.92 2331.64L2005.58 2309.75C2006.98 2309.05 2008.16 2307.97 2008.99 2306.64C2009.82 2305.31 2010.26 2303.78 2010.28 2302.21C2010.29 2300.64 2009.87 2299.1 2009.07 2297.75C2008.27 2296.41 2007.11 2295.31 2005.72 2294.58L1955.88 2268.43C1954.7 2267.81 1953.39 2267.48 1952.06 2267.46C1950.73 2267.44 1949.41 2267.73 1948.21 2268.31L1906.51 2288.52C1905.12 2289.2 1903.94 2290.24 1903.09 2291.53C1902.25 2292.82 1901.77 2294.32 1901.71 2295.87C1901.66 2297.41 1902.02 2298.95 1902.76 2300.3C1903.51 2301.65 1904.6 2302.78 1905.94 2303.56V2303.56Z" fill="#234489"/>
<path d="M2025 2254.78L2072.87 2282.62C2074.1 2283.33 2075.48 2283.72 2076.89 2283.77C2078.31 2283.81 2079.71 2283.5 2080.98 2282.87L2124.63 2260.97C2126.03 2260.27 2127.22 2259.19 2128.05 2257.86C2128.88 2256.53 2129.33 2255 2129.34 2253.43C2129.35 2251.86 2128.94 2250.32 2128.13 2248.97C2127.32 2247.62 2126.16 2246.53 2124.77 2245.8L2075 2219.66C2073.82 2219.04 2072.51 2218.71 2071.17 2218.69C2069.84 2218.66 2068.52 2218.96 2067.32 2219.54L2025.63 2239.74C2024.23 2240.41 2023.05 2241.44 2022.19 2242.73C2021.34 2244.03 2020.86 2245.52 2020.79 2247.07C2020.73 2248.62 2021.08 2250.15 2021.83 2251.51C2022.57 2252.87 2023.66 2254 2025 2254.78V2254.78Z" fill="white"/>
<path d="M2024.86 2240.16L2072.73 2267.99C2073.95 2268.7 2075.34 2269.1 2076.75 2269.14C2078.17 2269.19 2079.57 2268.88 2080.84 2268.24L2124.49 2246.35C2125.89 2245.65 2127.08 2244.57 2127.91 2243.24C2128.74 2241.91 2129.19 2240.38 2129.2 2238.81C2129.21 2237.24 2128.8 2235.7 2127.99 2234.35C2127.18 2233 2126.02 2231.91 2124.63 2231.18L2074.8 2205C2073.62 2204.38 2072.31 2204.05 2070.97 2204.03C2069.64 2204.01 2068.32 2204.3 2067.12 2204.88L2025.43 2225.09C2024.03 2225.76 2022.84 2226.8 2021.99 2228.1C2021.14 2229.4 2020.66 2230.9 2020.61 2232.45C2020.55 2234 2020.91 2235.54 2021.66 2236.9C2022.41 2238.26 2023.52 2239.38 2024.86 2240.16V2240.16Z" fill="#234489"/>
<path d="M2146.31 2192.43L2195.86 2217.14C2197.13 2217.77 2198.53 2218.08 2199.95 2218.04C2201.36 2217.99 2202.75 2217.59 2203.97 2216.88L2246.13 2192.23C2247.48 2191.44 2248.59 2190.29 2249.33 2188.91C2250.08 2187.53 2250.42 2185.97 2250.34 2184.4C2250.25 2182.84 2249.74 2181.32 2248.85 2180.03C2247.96 2178.74 2246.73 2177.72 2245.3 2177.08L2193.89 2154.18C2192.67 2153.64 2191.34 2153.39 2190.01 2153.45C2188.68 2153.52 2187.38 2153.89 2186.22 2154.55L2145.91 2177.39C2144.56 2178.15 2143.45 2179.27 2142.69 2180.61C2141.93 2181.96 2141.55 2183.48 2141.59 2185.03C2141.63 2186.58 2142.09 2188.08 2142.92 2189.38C2143.76 2190.69 2144.93 2191.74 2146.31 2192.43V2192.43Z" fill="white"/>
<path d="M2145.21 2177.85L2194.77 2202.56C2196.04 2203.19 2197.44 2203.5 2198.85 2203.45C2200.27 2203.4 2201.65 2203 2202.87 2202.29L2245.03 2177.65C2246.39 2176.86 2247.5 2175.71 2248.24 2174.33C2248.99 2172.95 2249.34 2171.39 2249.25 2169.82C2249.16 2168.25 2248.65 2166.74 2247.76 2165.45C2246.87 2164.16 2245.63 2163.14 2244.2 2162.5L2192.8 2139.6C2191.58 2139.06 2190.25 2138.81 2188.92 2138.87C2187.59 2138.93 2186.29 2139.31 2185.13 2139.97L2144.81 2162.8C2143.47 2163.56 2142.35 2164.68 2141.59 2166.02C2140.83 2167.37 2140.45 2168.9 2140.49 2170.45C2140.53 2171.99 2141 2173.5 2141.83 2174.8C2142.66 2176.11 2143.83 2177.16 2145.21 2177.85V2177.85Z" fill="#234489"/>
<path d="M2260.92 2121.55L2310.48 2146.26C2311.75 2146.9 2313.15 2147.2 2314.56 2147.16C2315.98 2147.11 2317.36 2146.71 2318.58 2145.99L2360.75 2121.35C2362.1 2120.56 2363.21 2119.41 2363.95 2118.03C2364.69 2116.64 2365.04 2115.08 2364.95 2113.52C2364.87 2111.95 2364.35 2110.44 2363.46 2109.15C2362.57 2107.86 2361.34 2106.84 2359.91 2106.2L2308.51 2083.3C2307.29 2082.76 2305.96 2082.51 2304.63 2082.57C2303.3 2082.64 2302 2083.01 2300.84 2083.67L2260.53 2106.51C2259.18 2107.27 2258.07 2108.38 2257.31 2109.73C2256.55 2111.07 2256.17 2112.6 2256.21 2114.15C2256.25 2115.69 2256.71 2117.2 2257.54 2118.5C2258.37 2119.81 2259.54 2120.86 2260.92 2121.55Z" fill="white"/>
<path d="M2259.83 2107L2309.38 2131.71C2310.65 2132.34 2312.05 2132.65 2313.47 2132.6C2314.88 2132.55 2316.27 2132.15 2317.49 2131.44L2359.65 2106.8C2361 2106.01 2362.11 2104.86 2362.85 2103.48C2363.6 2102.1 2363.94 2100.54 2363.86 2098.97C2363.77 2097.41 2363.26 2095.89 2362.37 2094.6C2361.48 2093.31 2360.25 2092.29 2358.82 2091.65L2307.42 2068.75C2306.2 2068.21 2304.87 2067.96 2303.54 2068.02C2302.2 2068.08 2300.9 2068.46 2299.74 2069.12L2259.43 2091.95C2258.09 2092.71 2256.97 2093.83 2256.21 2095.17C2255.45 2096.52 2255.07 2098.05 2255.11 2099.6C2255.15 2101.14 2255.62 2102.65 2256.45 2103.95C2257.28 2105.26 2258.45 2106.31 2259.83 2107Z" fill="#234489"/>
<path d="M2375.54 2050.67L2425.09 2075.38C2426.36 2076.02 2427.76 2076.32 2429.18 2076.28C2430.6 2076.23 2431.98 2075.83 2433.2 2075.11L2475.36 2050.47C2476.71 2049.68 2477.82 2048.53 2478.56 2047.15C2479.31 2045.77 2479.65 2044.21 2479.57 2042.64C2479.48 2041.08 2478.97 2039.56 2478.08 2038.27C2477.19 2036.98 2475.96 2035.96 2474.53 2035.32L2423.13 2012.42C2421.91 2011.88 2420.58 2011.63 2419.25 2011.69C2417.92 2011.76 2416.62 2012.13 2415.46 2012.79L2375.14 2035.62C2373.8 2036.38 2372.68 2037.5 2371.92 2038.84C2371.16 2040.19 2370.78 2041.72 2370.82 2043.27C2370.86 2044.81 2371.33 2046.32 2372.16 2047.62C2372.99 2048.93 2374.16 2049.98 2375.54 2050.67V2050.67Z" fill="white"/>
<path d="M2374.44 2036.09L2424 2060.8C2425.27 2061.43 2426.67 2061.74 2428.08 2061.69C2429.5 2061.64 2430.88 2061.24 2432.1 2060.53L2474.27 2035.89C2475.62 2035.1 2476.73 2033.95 2477.47 2032.57C2478.21 2031.18 2478.56 2029.62 2478.47 2028.06C2478.39 2026.49 2477.87 2024.98 2476.98 2023.69C2476.09 2022.4 2474.86 2021.38 2473.43 2020.74L2422.03 1997.84C2420.81 1997.3 2419.48 1997.05 2418.15 1997.11C2416.82 1997.17 2415.52 1997.55 2414.36 1998.21L2374.05 2021C2372.69 2021.76 2371.57 2022.87 2370.8 2024.22C2370.04 2025.58 2369.65 2027.11 2369.69 2028.66C2369.73 2030.22 2370.19 2031.73 2371.03 2033.04C2371.87 2034.35 2373.05 2035.4 2374.44 2036.09Z" fill="#234489"/>
<path d="M2505.61 1988.38L2555.17 2013.09C2556.44 2013.72 2557.84 2014.03 2559.25 2013.98C2560.67 2013.94 2562.05 2013.54 2563.27 2012.82L2605.44 1988.18C2606.79 1987.39 2607.9 1986.24 2608.64 1984.86C2609.39 1983.48 2609.73 1981.92 2609.65 1980.35C2609.56 1978.79 2609.05 1977.27 2608.16 1975.98C2607.27 1974.69 2606.04 1973.67 2604.61 1973.03L2553.2 1950.13C2551.98 1949.59 2550.65 1949.34 2549.32 1949.4C2547.99 1949.47 2546.69 1949.84 2545.53 1950.5L2505.22 1973.33C2503.87 1974.09 2502.76 1975.21 2502 1976.55C2501.24 1977.9 2500.86 1979.43 2500.9 1980.97C2500.94 1982.52 2501.4 1984.02 2502.23 1985.33C2503.06 1986.63 2504.23 1987.69 2505.61 1988.38V1988.38Z" fill="white"/>
<path d="M2504.52 1973.8L2554.07 1998.51C2555.34 1999.14 2556.74 1999.45 2558.16 1999.4C2559.57 1999.35 2560.96 1998.95 2562.18 1998.24L2604.34 1973.59C2605.69 1972.8 2606.8 1971.65 2607.55 1970.27C2608.29 1968.89 2608.64 1967.33 2608.55 1965.77C2608.46 1964.2 2607.95 1962.69 2607.06 1961.4C2606.17 1960.11 2604.94 1959.09 2603.51 1958.45L2552.11 1935.55C2550.89 1935 2549.56 1934.75 2548.23 1934.81C2546.9 1934.88 2545.6 1935.25 2544.44 1935.91L2504.12 1958.75C2502.78 1959.51 2501.66 1960.63 2500.9 1961.97C2500.14 1963.32 2499.76 1964.85 2499.8 1966.39C2499.84 1967.94 2500.31 1969.45 2501.14 1970.75C2501.97 1972.06 2503.14 1973.11 2504.52 1973.8V1973.8Z" fill="#234489"/>
<path d="M2620.23 1917.5L2669.78 1942.21C2671.05 1942.84 2672.45 1943.15 2673.87 1943.1C2675.28 1943.05 2676.67 1942.65 2677.89 1941.94L2720.05 1917.3C2721.4 1916.51 2722.51 1915.36 2723.25 1913.98C2724 1912.6 2724.34 1911.04 2724.26 1909.47C2724.17 1907.91 2723.66 1906.39 2722.77 1905.1C2721.88 1903.81 2720.65 1902.79 2719.22 1902.15L2667.82 1879.25C2666.6 1878.71 2665.27 1878.46 2663.94 1878.52C2662.61 1878.59 2661.31 1878.96 2660.15 1879.62L2619.83 1902.45C2618.49 1903.21 2617.37 1904.33 2616.61 1905.67C2615.85 1907.02 2615.47 1908.55 2615.51 1910.1C2615.55 1911.64 2616.02 1913.15 2616.85 1914.45C2617.68 1915.76 2618.85 1916.81 2620.23 1917.5V1917.5Z" fill="white"/>
<path d="M2619.14 1902.92L2668.69 1927.63C2669.96 1928.26 2671.36 1928.57 2672.78 1928.52C2674.19 1928.47 2675.58 1928.07 2676.8 1927.36L2718.96 1902.71C2720.31 1901.92 2721.42 1900.77 2722.17 1899.39C2722.91 1898.01 2723.26 1896.45 2723.17 1894.89C2723.08 1893.32 2722.57 1891.81 2721.68 1890.52C2720.79 1889.23 2719.56 1888.21 2718.13 1887.57L2666.72 1864.66C2665.5 1864.12 2664.17 1863.87 2662.84 1863.93C2661.51 1864 2660.21 1864.37 2659.05 1865.03L2618.74 1887.87C2617.4 1888.63 2616.28 1889.75 2615.52 1891.09C2614.76 1892.44 2614.38 1893.97 2614.42 1895.52C2614.46 1897.06 2614.93 1898.57 2615.76 1899.87C2616.59 1901.18 2617.76 1902.23 2619.14 1902.92Z" fill="#234489"/>
<path d="M2734.85 1846.62L2784.4 1871.33C2785.67 1871.96 2787.07 1872.27 2788.49 1872.22C2789.9 1872.17 2791.29 1871.77 2792.51 1871.06L2834.67 1846.42C2836.02 1845.63 2837.13 1844.48 2837.87 1843.1C2838.62 1841.72 2838.96 1840.16 2838.88 1838.59C2838.79 1837.03 2838.28 1835.51 2837.39 1834.22C2836.5 1832.93 2835.27 1831.91 2833.84 1831.27L2782.44 1808.37C2781.22 1807.83 2779.89 1807.58 2778.56 1807.64C2777.22 1807.7 2775.92 1808.08 2774.76 1808.74L2734.45 1831.57C2733.11 1832.33 2731.99 1833.45 2731.23 1834.79C2730.47 1836.14 2730.09 1837.67 2730.13 1839.22C2730.17 1840.76 2730.64 1842.27 2731.47 1843.57C2732.3 1844.88 2733.47 1845.93 2734.85 1846.62V1846.62Z" fill="white"/>
<path d="M2733.75 1832L2783.31 1856.72C2784.58 1857.35 2785.98 1857.66 2787.39 1857.61C2788.81 1857.56 2790.19 1857.16 2791.41 1856.45L2833.58 1831.8C2834.93 1831.01 2836.04 1829.86 2836.78 1828.48C2837.52 1827.09 2837.87 1825.53 2837.78 1823.97C2837.7 1822.4 2837.18 1820.89 2836.29 1819.6C2835.4 1818.31 2834.17 1817.29 2832.74 1816.65L2781.34 1793.75C2780.12 1793.21 2778.79 1792.96 2777.46 1793.02C2776.13 1793.09 2774.83 1793.46 2773.67 1794.12L2733.35 1817C2732.02 1817.77 2730.91 1818.88 2730.16 1820.22C2729.4 1821.56 2729.03 1823.08 2729.07 1824.62C2729.11 1826.16 2729.57 1827.66 2730.39 1828.96C2731.22 1830.26 2732.38 1831.31 2733.75 1832V1832Z" fill="#234489"/>
<path d="M2849.46 1775.74L2899.02 1800.45C2900.29 1801.08 2901.69 1801.39 2903.1 1801.34C2904.52 1801.29 2905.9 1800.89 2907.12 1800.18L2949.29 1775.54C2950.64 1774.75 2951.75 1773.6 2952.49 1772.22C2953.23 1770.83 2953.58 1769.27 2953.49 1767.71C2953.41 1766.14 2952.89 1764.63 2952 1763.34C2951.11 1762.05 2949.88 1761.03 2948.45 1760.39L2897.05 1737.49C2895.83 1736.95 2894.5 1736.7 2893.17 1736.76C2891.84 1736.82 2890.54 1737.2 2889.38 1737.86L2849.07 1760.69C2847.72 1761.45 2846.61 1762.56 2845.84 1763.91C2845.08 1765.26 2844.7 1766.79 2844.74 1768.33C2844.78 1769.88 2845.24 1771.39 2846.07 1772.69C2846.9 1774 2848.07 1775.05 2849.46 1775.74Z" fill="white"/>
<path d="M2848.37 1761.15L2897.92 1785.87C2899.19 1786.5 2900.59 1786.81 2902.01 1786.76C2903.42 1786.71 2904.81 1786.31 2906.03 1785.6L2948.19 1760.95C2949.54 1760.16 2950.65 1759.01 2951.39 1757.63C2952.14 1756.25 2952.48 1754.69 2952.4 1753.12C2952.31 1751.56 2951.8 1750.04 2950.91 1748.75C2950.02 1747.46 2948.79 1746.44 2947.36 1745.8L2895.96 1722.9C2894.74 1722.36 2893.41 1722.11 2892.08 1722.17C2890.75 1722.24 2889.45 1722.61 2888.29 1723.27L2848 1746.11C2846.65 1746.87 2845.54 1747.98 2844.78 1749.32C2844.01 1750.67 2843.63 1752.2 2843.67 1753.74C2843.7 1755.29 2844.16 1756.79 2844.99 1758.1C2845.82 1759.4 2846.99 1760.46 2848.37 1761.15V1761.15Z" fill="#234489"/>
<path d="M1907.89 2442.65L1955.76 2470.48C1956.99 2471.19 1958.37 2471.58 1959.78 2471.63C1961.2 2471.67 1962.6 2471.36 1963.87 2470.73L2007.52 2448.83C2008.92 2448.13 2010.11 2447.05 2010.94 2445.72C2011.77 2444.39 2012.22 2442.86 2012.23 2441.29C2012.24 2439.72 2011.83 2438.18 2011.02 2436.83C2010.21 2435.48 2009.05 2434.39 2007.66 2433.66L1957.83 2407.52C1956.65 2406.9 1955.34 2406.57 1954 2406.55C1952.67 2406.52 1951.35 2406.82 1950.15 2407.4L1908.45 2427.6C1907.06 2428.28 1905.88 2429.32 1905.03 2430.61C1904.18 2431.91 1903.71 2433.41 1903.65 2434.96C1903.59 2436.5 1903.96 2438.04 1904.7 2439.39C1905.45 2440.75 1906.55 2441.87 1907.89 2442.65Z" fill="white"/>
<path d="M1907.73 2428L1955.6 2455.83C1956.82 2456.54 1958.21 2456.94 1959.62 2456.98C1961.04 2457.03 1962.44 2456.72 1963.71 2456.08L2007.36 2434.19C2008.76 2433.49 2009.95 2432.41 2010.78 2431.08C2011.61 2429.75 2012.06 2428.22 2012.07 2426.65C2012.08 2425.08 2011.67 2423.54 2010.86 2422.19C2010.05 2420.84 2008.89 2419.75 2007.5 2419.02L1957.67 2392.87C1956.49 2392.25 1955.18 2391.92 1953.84 2391.9C1952.51 2391.88 1951.19 2392.17 1949.99 2392.75L1908.3 2413C1906.92 2413.68 1905.74 2414.72 1904.9 2416.01C1904.06 2417.3 1903.59 2418.79 1903.53 2420.33C1903.47 2421.87 1903.83 2423.39 1904.57 2424.74C1905.31 2426.1 1906.4 2427.22 1907.73 2428Z" fill="#234489"/>
<path d="M2026.81 2379.25L2074.68 2407.08C2075.9 2407.79 2077.28 2408.18 2078.7 2408.23C2080.11 2408.27 2081.52 2407.96 2082.78 2407.33L2126.44 2385.43C2127.84 2384.73 2129.02 2383.65 2129.85 2382.32C2130.68 2380.99 2131.12 2379.46 2131.14 2377.89C2131.15 2376.32 2130.73 2374.78 2129.93 2373.43C2129.13 2372.09 2127.97 2370.99 2126.58 2370.26L2076.74 2344.12C2075.56 2343.5 2074.25 2343.17 2072.92 2343.15C2071.59 2343.12 2070.27 2343.42 2069.07 2344L2027.37 2364.2C2025.98 2364.88 2024.8 2365.92 2023.95 2367.21C2023.1 2368.51 2022.63 2370.01 2022.57 2371.56C2022.51 2373.1 2022.88 2374.64 2023.62 2375.99C2024.37 2377.35 2025.47 2378.47 2026.81 2379.25Z" fill="white"/>
<path d="M2026.65 2364.62L2074.52 2392.45C2075.74 2393.16 2077.12 2393.56 2078.54 2393.6C2079.95 2393.65 2081.36 2393.34 2082.62 2392.7L2126.28 2370.81C2127.68 2370.11 2128.86 2369.03 2129.69 2367.7C2130.52 2366.37 2130.96 2364.84 2130.98 2363.27C2130.99 2361.7 2130.57 2360.16 2129.77 2358.81C2128.97 2357.47 2127.81 2356.37 2126.42 2355.64L2076.59 2329.5C2075.41 2328.88 2074.1 2328.54 2072.77 2328.52C2071.43 2328.5 2070.11 2328.79 2068.91 2329.37L2027.21 2349.58C2025.82 2350.25 2024.64 2351.29 2023.79 2352.59C2022.94 2353.88 2022.47 2355.39 2022.41 2356.93C2022.35 2358.48 2022.72 2360.01 2023.46 2361.36C2024.21 2362.72 2025.31 2363.84 2026.65 2364.62V2364.62Z" fill="#234489"/>
<path d="M2145.72 2315.85L2193.59 2343.68C2194.81 2344.39 2196.2 2344.79 2197.61 2344.83C2199.03 2344.88 2200.43 2344.57 2201.7 2343.93L2245.36 2322.03C2246.76 2321.33 2247.94 2320.25 2248.77 2318.92C2249.59 2317.59 2250.04 2316.05 2250.05 2314.48C2250.07 2312.92 2249.65 2311.38 2248.84 2310.03C2248.04 2308.69 2246.88 2307.59 2245.49 2306.86L2195.66 2280.72C2194.48 2280.1 2193.17 2279.77 2191.83 2279.75C2190.5 2279.72 2189.18 2280.02 2187.98 2280.6L2146.29 2300.81C2144.9 2301.49 2143.72 2302.53 2142.87 2303.82C2142.03 2305.12 2141.55 2306.61 2141.49 2308.16C2141.44 2309.7 2141.8 2311.24 2142.54 2312.59C2143.29 2313.94 2144.38 2315.07 2145.72 2315.85Z" fill="white"/>
<path d="M2145.56 2301.22L2193.43 2329.05C2194.65 2329.76 2196.04 2330.16 2197.45 2330.2C2198.87 2330.25 2200.27 2329.94 2201.54 2329.31L2245.2 2307.41C2246.6 2306.7 2247.78 2305.63 2248.61 2304.3C2249.43 2302.97 2249.88 2301.43 2249.89 2299.86C2249.91 2298.3 2249.49 2296.76 2248.68 2295.41C2247.88 2294.07 2246.72 2292.97 2245.33 2292.24L2195.5 2266.1C2194.32 2265.48 2193.01 2265.14 2191.68 2265.12C2190.34 2265.1 2189.02 2265.39 2187.82 2265.97L2146.13 2286.18C2144.74 2286.86 2143.56 2287.9 2142.71 2289.19C2141.87 2290.48 2141.39 2291.98 2141.33 2293.53C2141.28 2295.07 2141.64 2296.6 2142.38 2297.96C2143.13 2299.31 2144.23 2300.44 2145.56 2301.22Z" fill="#234489"/>
<path d="M2626.32 2049.44L2675.87 2074.15C2677.14 2074.78 2678.54 2075.09 2679.96 2075.05C2681.37 2075 2682.76 2074.6 2683.98 2073.89L2726.14 2049.24C2727.49 2048.45 2728.6 2047.3 2729.34 2045.92C2730.09 2044.54 2730.43 2042.98 2730.35 2041.41C2730.26 2039.85 2729.75 2038.33 2728.86 2037.04C2727.97 2035.75 2726.74 2034.73 2725.31 2034.09L2673.9 2011.19C2672.68 2010.65 2671.35 2010.4 2670.02 2010.46C2668.69 2010.53 2667.39 2010.9 2666.23 2011.56L2625.92 2034.4C2624.57 2035.16 2623.46 2036.28 2622.7 2037.62C2621.94 2038.97 2621.56 2040.49 2621.6 2042.04C2621.64 2043.59 2622.1 2045.09 2622.93 2046.39C2623.77 2047.7 2624.94 2048.75 2626.32 2049.44V2049.44Z" fill="white"/>
<path d="M2625.22 2034.86L2674.77 2059.57C2676.04 2060.2 2677.44 2060.51 2678.86 2060.46C2680.27 2060.41 2681.66 2060.01 2682.88 2059.3L2725.04 2034.66C2726.39 2033.87 2727.5 2032.72 2728.24 2031.34C2728.99 2029.96 2729.33 2028.4 2729.25 2026.83C2729.16 2025.27 2728.65 2023.75 2727.76 2022.46C2726.87 2021.17 2725.64 2020.15 2724.21 2019.51L2672.81 1996.61C2671.59 1996.07 2670.26 1995.82 2668.93 1995.88C2667.6 1995.94 2666.3 1996.32 2665.14 1996.98L2624.82 2019.81C2623.48 2020.57 2622.36 2021.69 2621.6 2023.03C2620.84 2024.38 2620.46 2025.91 2620.5 2027.46C2620.54 2029 2621.01 2030.51 2621.84 2031.81C2622.67 2033.12 2623.84 2034.17 2625.22 2034.86V2034.86Z" fill="#234489"/>
<path d="M2740.93 1978.56L2790.49 2003.27C2791.76 2003.91 2793.16 2004.21 2794.57 2004.17C2795.99 2004.12 2797.37 2003.72 2798.59 2003L2840.76 1978.36C2842.11 1977.57 2843.22 1976.42 2843.96 1975.04C2844.7 1973.65 2845.05 1972.09 2844.96 1970.53C2844.88 1968.96 2844.36 1967.45 2843.47 1966.16C2842.58 1964.87 2841.35 1963.85 2839.92 1963.21L2788.52 1940.31C2787.3 1939.77 2785.97 1939.52 2784.64 1939.58C2783.31 1939.65 2782.01 1940.02 2780.85 1940.68L2740.53 1963.52C2739.18 1964.28 2738.07 1965.4 2737.31 1966.74C2736.55 1968.09 2736.17 1969.61 2736.21 1971.16C2736.25 1972.71 2736.71 1974.21 2737.54 1975.51C2738.38 1976.82 2739.55 1977.87 2740.93 1978.56V1978.56Z" fill="white"/>
<path d="M2739.84 1964L2789.39 1988.71C2790.66 1989.34 2792.06 1989.65 2793.48 1989.6C2794.89 1989.55 2796.28 1989.15 2797.5 1988.44L2839.66 1963.8C2841.01 1963.01 2842.12 1961.86 2842.86 1960.48C2843.61 1959.1 2843.95 1957.54 2843.87 1955.97C2843.78 1954.41 2843.27 1952.89 2842.38 1951.6C2841.49 1950.31 2840.26 1949.29 2838.83 1948.65L2787.43 1925.75C2786.21 1925.21 2784.88 1924.96 2783.55 1925.02C2782.21 1925.08 2780.91 1925.46 2779.75 1926.12L2739.44 1948.95C2738.1 1949.71 2736.98 1950.83 2736.22 1952.17C2735.46 1953.52 2735.08 1955.05 2735.12 1956.6C2735.16 1958.14 2735.63 1959.65 2736.46 1960.95C2737.29 1962.26 2738.46 1963.31 2739.84 1964V1964Z" fill="#234489"/>
<path d="M2855.55 1907.68L2905.1 1932.39C2906.37 1933.03 2907.77 1933.33 2909.19 1933.29C2910.61 1933.24 2911.99 1932.84 2913.21 1932.12L2955.37 1907.48C2956.72 1906.69 2957.83 1905.54 2958.57 1904.16C2959.32 1902.78 2959.66 1901.22 2959.58 1899.65C2959.49 1898.09 2958.98 1896.57 2958.09 1895.28C2957.2 1893.99 2955.97 1892.97 2954.54 1892.33L2903.14 1869.43C2901.92 1868.89 2900.59 1868.64 2899.26 1868.7C2897.93 1868.77 2896.63 1869.14 2895.47 1869.8L2855.15 1892.63C2853.81 1893.39 2852.69 1894.51 2851.93 1895.85C2851.17 1897.2 2850.79 1898.73 2850.83 1900.28C2850.87 1901.82 2851.34 1903.33 2852.17 1904.63C2853 1905.94 2854.17 1906.99 2855.55 1907.68V1907.68Z" fill="white"/>
<path d="M2854.45 1893.1L2904.01 1917.81C2905.28 1918.44 2906.68 1918.75 2908.09 1918.7C2909.51 1918.65 2910.89 1918.25 2912.11 1917.54L2954.28 1892.89C2955.63 1892.1 2956.74 1890.95 2957.48 1889.57C2958.23 1888.19 2958.57 1886.63 2958.49 1885.06C2958.4 1883.5 2957.88 1881.99 2956.99 1880.7C2956.1 1879.41 2954.87 1878.39 2953.44 1877.75L2902.04 1854.85C2900.82 1854.31 2899.49 1854.06 2898.16 1854.12C2896.83 1854.18 2895.53 1854.56 2894.37 1855.22L2854.06 1878.05C2852.71 1878.81 2851.6 1879.93 2850.84 1881.27C2850.08 1882.62 2849.7 1884.15 2849.74 1885.69C2849.78 1887.24 2850.24 1888.74 2851.07 1890.05C2851.9 1891.35 2853.07 1892.41 2854.45 1893.1V1893.1Z" fill="#234489"/>
<path d="M2970.16 1836.8L3019.72 1861.51C3020.99 1862.15 3022.39 1862.45 3023.8 1862.41C3025.22 1862.36 3026.6 1861.96 3027.82 1861.24L3070 1836.6C3071.35 1835.81 3072.46 1834.66 3073.2 1833.28C3073.94 1831.89 3074.29 1830.33 3074.2 1828.77C3074.12 1827.2 3073.6 1825.69 3072.71 1824.4C3071.82 1823.11 3070.59 1822.09 3069.16 1821.45L3017.76 1798.55C3016.54 1798.01 3015.21 1797.76 3013.88 1797.82C3012.55 1797.89 3011.25 1798.26 3010.09 1798.92L2969.78 1821.75C2968.43 1822.51 2967.32 1823.62 2966.56 1824.97C2965.8 1826.32 2965.41 1827.84 2965.45 1829.39C2965.49 1830.93 2965.95 1832.44 2966.78 1833.75C2967.61 1835.05 2968.78 1836.11 2970.16 1836.8V1836.8Z" fill="white"/>
<path d="M2969.07 1822.22L3018.62 1846.93C3019.89 1847.56 3021.29 1847.87 3022.71 1847.82C3024.12 1847.77 3025.51 1847.37 3026.73 1846.66L3068.89 1822.01C3070.24 1821.22 3071.35 1820.07 3072.1 1818.69C3072.84 1817.31 3073.19 1815.75 3073.1 1814.19C3073.01 1812.62 3072.5 1811.11 3071.61 1809.82C3070.72 1808.53 3069.49 1807.51 3068.06 1806.87L3016.66 1783.97C3015.44 1783.43 3014.11 1783.18 3012.78 1783.24C3011.45 1783.3 3010.15 1783.68 3008.99 1784.34L2968.67 1807.17C2967.33 1807.93 2966.21 1809.05 2965.45 1810.39C2964.69 1811.74 2964.31 1813.27 2964.35 1814.82C2964.39 1816.36 2964.86 1817.87 2965.69 1819.17C2966.52 1820.48 2967.69 1821.53 2969.07 1822.22V1822.22Z" fill="#234489"/>
<path d="M2274.58 2257.09L2311.86 2276.71C2313.69 2277.67 2315.73 2278.16 2317.79 2278.15C2319.86 2278.13 2321.89 2277.6 2323.7 2276.61L2598.18 2126.53C2600.19 2125.43 2601.86 2123.8 2603.01 2121.82C2604.16 2119.84 2604.74 2117.58 2604.7 2115.29C2604.65 2113 2603.98 2110.76 2602.75 2108.83C2601.52 2106.9 2599.78 2105.34 2597.73 2104.32L2559.89 2085.58C2558.09 2084.69 2556.1 2084.24 2554.09 2084.28C2552.08 2084.32 2550.11 2084.85 2548.34 2085.81L2274.43 2235C2272.44 2236.08 2270.77 2237.68 2269.62 2239.64C2268.47 2241.59 2267.87 2243.82 2267.88 2246.09C2267.9 2248.36 2268.53 2250.58 2269.71 2252.52C2270.89 2254.46 2272.57 2256.04 2274.58 2257.09V2257.09Z" fill="white"/>
<path d="M2275.8 2242.38L2313.08 2261.99C2314.91 2262.95 2316.95 2263.45 2319.01 2263.43C2321.08 2263.42 2323.11 2262.89 2324.92 2261.9L2599.4 2111.82C2601.41 2110.72 2603.08 2109.09 2604.23 2107.11C2605.38 2105.13 2605.96 2102.87 2605.92 2100.58C2605.87 2098.29 2605.2 2096.05 2603.97 2094.12C2602.74 2092.19 2601 2090.63 2598.95 2089.61L2561.11 2070.87C2559.31 2069.98 2557.32 2069.53 2555.31 2069.57C2553.3 2069.61 2551.33 2070.13 2549.56 2071.09L2275.65 2220.3C2273.66 2221.38 2272 2222.99 2270.85 2224.94C2269.69 2226.89 2269.09 2229.12 2269.11 2231.39C2269.13 2233.65 2269.76 2235.87 2270.93 2237.81C2272.11 2239.74 2273.79 2241.32 2275.8 2242.38Z" fill="#234489"/>
<path d="M2990.8 1658.4L3126.6 1670.59L2713.06 1935.98L2338 1680.9L2778.91 1613L2990.8 1658.4Z" fill="#C7206C"/>
<path d="M2826.16 1145.69V1188.06L2808.16 1193.79C2808.16 1193.79 2804.72 1286.55 2868.86 1253.34C2933 1220.13 2918.1 1162.87 2918.1 1162.87L2903.37 1165.16L2881.45 1093.39L2826.16 1145.69Z" fill="#F9B191"/>
<path d="M2893.27 1079.32C2893.27 1079.32 2893.51 1180.17 2840.83 1181.88C2788.15 1183.59 2793.39 1143.52 2793.39 1143.52L2893.27 1079.32Z" fill="#E28966"/>
<path d="M2718.79 1592.76L2715.79 1649.44C2715.79 1649.44 2835.99 1749.93 2964.79 1649.44C3093.59 1548.95 2931.3 1417.55 2931.3 1417.55L2718.79 1592.76Z" fill="white" stroke="black" stroke-width="4" stroke-miterlimit="10" stroke-linecap="round"/>
<path d="M2668.4 957.87C2668.4 957.87 2701.4 1069.71 2703.09 1114.37C2704.78 1159.03 2809.26 1212.11 2862.52 1143.37C2915.78 1074.63 2927.79 918.37 2831.6 906.31C2735.41 894.25 2668.4 957.87 2668.4 957.87Z" fill="#F9B191"/>
<path d="M2755.44 1082.7C2755.44 1082.7 2755.59 1103.32 2785.86 1087.28" stroke="#C64C38" stroke-width="4" stroke-miterlimit="10" stroke-linecap="round"/>
<path d="M2755.44 1125.07C2755.44 1125.07 2778.34 1139.96 2813.84 1120.49" stroke="#C64C38" stroke-width="4" stroke-miterlimit="10" stroke-linecap="round"/>
<path d="M2793 1056.36C2799.01 1056.36 2803.88 1049.44 2803.88 1040.9C2803.88 1032.36 2799.01 1025.44 2793 1025.44C2786.99 1025.44 2782.12 1032.36 2782.12 1040.9C2782.12 1049.44 2786.99 1056.36 2793 1056.36Z" fill="black"/>
<path d="M2726.67 1064.95C2732.68 1064.95 2737.55 1058.03 2737.55 1049.49C2737.55 1040.95 2732.68 1034.03 2726.67 1034.03C2720.66 1034.03 2715.79 1040.95 2715.79 1049.49C2715.79 1058.03 2720.66 1064.95 2726.67 1064.95Z" fill="black"/>
<path d="M2808.12 991.08C2808.12 991.08 2829.88 976.2 2844.19 986.5" stroke="black" stroke-width="4" stroke-miterlimit="10" stroke-linecap="round"/>
<path d="M2741 999.34C2741 999.34 2715.9 991.34 2705.12 1005.26" stroke="black" stroke-width="4" stroke-miterlimit="10" stroke-linecap="round"/>
<path d="M2885.71 1055.91C2885.71 1055.91 2870.1 905.48 2808.12 920.91C2785.86 959.99 2771.04 969.01 2768.47 944.1C2752.47 972.87 2742.64 985.76 2705.09 965.57C2672.51 992.71 2625.58 962.85 2643.09 926.44C2644.07 924.409 2645.47 922.607 2647.19 921.148C2648.92 919.689 2650.93 918.607 2653.09 917.97L2679.19 910.17C2679.19 910.17 2722.13 822.17 2805.02 829C2887.91 835.83 2876.31 873.67 2876.31 873.67C2876.31 873.67 2922 870 2942.4 926.52C2968.59 999.1 2885.71 1055.91 2885.71 1055.91Z" fill="#191552"/>
<path d="M2653.06 908.8C2644.28 918.18 2641.94 933.25 2648.06 944.53C2654.18 955.81 2668.76 962 2681 958C2692.3 954.32 2699.65 943.78 2707 934.4C2707.83 933.33 2708.85 932.17 2710.2 932.13C2710.75 932.173 2711.29 932.33 2711.78 932.592C2712.27 932.853 2712.7 933.214 2713.04 933.65C2716.75 937.58 2717.57 943.33 2719.69 948.3C2721.81 953.27 2726.82 958.11 2731.96 956.45C2734.76 955.55 2736.63 952.98 2738.31 950.56L2761.25 917.47C2764.69 912.47 2768.65 907.16 2774.53 905.73C2780.41 904.3 2787.82 909.8 2785.64 915.44C2797.52 898.11 2821.64 893.56 2842.39 896.77C2858.64 899.27 2876.11 907.48 2880.95 923.2C2884.55 934.93 2880.31 948.58 2886.22 959.34C2889.86 965.97 2896.65 970.12 2902.77 974.58C2914.98 983.48 2925.94 995.58 2928.51 1010.52C2930.12 1019.85 2928.3 1029.42 2925.87 1038.52C2923.72 1046.63 2921.03 1054.72 2916.4 1061.72C2907.58 1075.06 2892.28 1083.22 2876.52 1085.9C2865.85 1087.71 2854.32 1087.09 2845.03 1081.54C2833.8 1074.83 2827.59 1062.04 2824.35 1049.36C2821.11 1036.68 2820.17 1023.45 2816.27 1010.96C2813.75 1002.87 2809.67 994.79 2802.58 990.17C2795.31 985.44 2785.89 985.08 2777.46 987.1C2769.03 989.12 2761.3 993.29 2753.53 997.16C2739.38 1004.16 2724.64 1010.47 2709.09 1013.34C2693.54 1016.21 2676.99 1015.51 2662.53 1009.1C2648.83 1003.02 2637.72 992.18 2628.74 980.17C2624.19 974.09 2620.02 967.43 2618.74 959.96C2616.89 949.53 2620.95 938.66 2627.74 930.54C2634.53 922.42 2643.8 916.73 2653.4 912.26" fill="#08082B"/>
<path d="M2771 832.285C2789.79 830.035 2809 844.705 2811.77 863.425C2813.41 874.475 2810 886.005 2812.9 896.795C2813.97 900.778 2815.87 904.491 2818.47 907.693C2821.07 910.894 2824.31 913.512 2827.99 915.375C2831.67 917.238 2835.7 918.305 2839.82 918.507C2843.94 918.709 2848.06 918.04 2851.9 916.545C2859.08 913.745 2864.9 908.255 2871.68 904.635C2878.9 900.806 2887.08 899.163 2895.22 899.905C2898.97 900.245 2903.42 900.905 2905.9 898.015C2908.23 895.345 2907.32 891.215 2905.9 887.955C2900.57 875.395 2890.43 865.445 2879.41 857.385C2852.25 837.663 2819.22 827.707 2785.69 829.135" fill="#08082B"/>
<path d="M2903.33 1165.16C2903.33 1165.16 3022.27 1135.38 3072.66 1198.37C3123.05 1261.36 3089.84 1489.25 3089.84 1489.25C3089.84 1489.25 3021.13 1453.75 2958.14 1478.95C2950.14 1512.16 2945.54 1548.81 2945.54 1548.81L2986.84 1684.64L2880 1696.5C2832.81 1701.74 2785.06 1695.48 2740.82 1678.26L2661 1647.17L2668.45 1556.82L2548.15 1454.9C2548.15 1454.9 2668.4 1243.03 2698.15 1220.13C2727.9 1197.23 2808.09 1193.79 2808.09 1193.79L2852.75 1218.98L2903.33 1165.16Z" fill="#FD9B44"/>
<path d="M2727.32 1174.27C2727.32 1174.27 2798 1289 2849.54 1250C2901.08 1211 2951.54 1110.29 2951.54 1110.29L2727.32 1174.27Z" fill="#EA7E2D"/>
<path d="M2984.55 1276.36L2947.55 1481.36C2947.55 1481.36 2935.31 1348.51 2984.55 1276.36Z" fill="#EA7E2D"/>
<path d="M2715.36 1322L2755.44 1540.94C2755.44 1540.94 2667.2 1422.55 2715.36 1322Z" fill="#EA7E2D"/>
<path d="M2776.62 1531.75C2776.62 1531.75 2861.43 1501.75 2919.56 1408.07C2977.69 1314.39 2968.56 1335.92 2968.56 1335.92L2946.21 1583.28L2776.62 1531.75Z" fill="#EA7E2D"/>
<path d="M2715.82 1854.58C2715.82 1854.58 2476 1593.76 2343.73 1639.14C2211.46 1684.52 2453.67 1877.14 2635.73 1894.22C2817.79 1911.3 2715.82 1854.58 2715.82 1854.58Z" fill="#F45D94"/>
<path d="M2725.58 1860.76C2725.58 1860.76 2602.47 1774.39 2596.25 1830.53C2590.03 1886.67 2649.55 1951.11 2692.37 1934.98C2735.19 1918.85 2725.58 1860.76 2725.58 1860.76Z" fill="#191245"/>
<path d="M2701.61 1617.52L2762.31 1600.34C2762.31 1600.34 2983.31 1695.39 3002.81 1671.34C3022.31 1647.29 3072.13 1481.84 3072.13 1481.84C3072.13 1481.84 2999.73 1451.01 2956.42 1478.95C2945.65 1535.8 2945.54 1548.81 2945.54 1548.81L2755.44 1514.45L2668.44 1556.82C2668.44 1556.82 2637.48 1601.49 2701.61 1617.52Z" fill="#F9B191"/>
<path d="M2738 1852.86C2738 1852.86 2684.39 1851.14 2660.92 1883.78C2637.45 1916.42 2584.2 1964.52 2620.27 2004.03C2656.34 2043.54 2663.57 1983.24 2706.16 1959.37C2748.75 1935.5 2776.59 1921.58 2776.59 1921.58L2738 1852.86Z" fill="#0E0D72"/>
<path d="M2738 1837.4C2738 1837.4 2720.8 1820.4 2715.79 1854.58C2710.78 1888.76 2747.39 1957.65 2786.9 1950.78C2826.41 1943.91 3295.21 1707.13 3132.3 1628.78C3048 1588.32 2738 1837.4 2738 1837.4Z" fill="#F45D94"/>
<path d="M2926.87 1062.42C2934.55 1047.52 2931.89 1030.86 2920.93 1025.21C2909.97 1019.56 2894.86 1027.05 2887.18 1041.95C2879.49 1056.85 2882.15 1073.51 2893.11 1079.16C2904.07 1084.81 2919.19 1077.32 2926.87 1062.42Z" fill="#F9B191"/>
<path d="M2910.78 1063.42C2907.17 1070.42 2900.09 1073.91 2894.95 1071.26C2889.81 1068.61 2888.57 1060.81 2892.17 1053.82C2895.77 1046.83 2902.86 1043.33 2907.99 1045.98C2913.12 1048.63 2914.38 1056.44 2910.78 1063.42Z" fill="#C64C38"/>
<path d="M2773.84 1633.55H2346.32C2341.94 1633.55 2338.39 1637.1 2338.39 1641.48V1652.86C2338.39 1657.24 2341.94 1660.79 2346.32 1660.79H2773.84C2778.22 1660.79 2781.77 1657.24 2781.77 1652.86V1641.48C2781.77 1637.1 2778.22 1633.55 2773.84 1633.55Z" fill="#A284BC"/>
<path d="M2729.19 1342H2338.52C2332.71 1342 2328 1346.71 2328 1352.52V1625.88C2328 1631.69 2332.71 1636.4 2338.52 1636.4H2729.19C2735 1636.4 2739.71 1631.69 2739.71 1625.88V1352.52C2739.71 1346.71 2735 1342 2729.19 1342Z" fill="#CEB6DD"/>
<path d="M2583.98 1501.2C2590.54 1473.41 2573.33 1445.57 2545.54 1439.01C2517.76 1432.46 2489.92 1449.66 2483.36 1477.45C2476.81 1505.23 2494.01 1533.07 2521.8 1539.63C2549.58 1546.19 2577.42 1528.98 2583.98 1501.2Z" stroke="white" stroke-width="4" stroke-miterlimit="10"/>
<path d="M2776.15 1061.38L2837.65 1052.14C2840.5 1051.71 2842.46 1049.06 2842.03 1046.21L2839.67 1030.51C2839.24 1027.66 2836.59 1025.7 2833.74 1026.13L2772.25 1035.37C2769.4 1035.79 2767.44 1038.45 2767.87 1041.3L2770.23 1057C2770.65 1059.84 2773.31 1061.8 2776.15 1061.38Z" stroke="white" stroke-width="3.994" stroke-miterlimit="10" stroke-linecap="round"/>
<path d="M2688.06 1075.75L2749.55 1066.51C2752.4 1066.08 2754.36 1063.43 2753.93 1060.58L2751.57 1044.88C2751.15 1042.03 2748.49 1040.07 2745.65 1040.5L2684.15 1049.74C2681.3 1050.17 2679.34 1052.82 2679.77 1055.67L2682.13 1071.37C2682.56 1074.21 2685.21 1076.18 2688.06 1075.75Z" stroke="white" stroke-width="3.994" stroke-miterlimit="10" stroke-linecap="round"/>
<line x1="2748.75" y1="1041.52" x2="2766.75" y2="1038.52" stroke="white" stroke-width="3"/>
</g>
<defs>
<clipPath id="clip0">
<rect width="4680" height="3120" fill="white"/>
</clipPath>
</defs>
</svg>
